<svg width="17" height="17" viewBox="0 0 17 17" fill="none" xmlns="http://www.w3.org/2000/svg">
<path d="M8.49966 4.28369C7.08016 4.28369 5.92261 5.4377 5.92261 6.86074C5.92261 7.20057 6.19872 7.47668 6.53855 7.47668C6.87838 7.47668 7.15449 7.20057 7.15449 6.86074C7.15449 6.1209 7.75628 5.51558 8.49966 5.51558C8.83949 5.51558 9.1156 5.23947 9.1156 4.89963C9.1156 4.5598 8.83949 4.28369 8.49966 4.28369Z" fill="black"/>
<path d="M15.2821 6.78294C15.2821 2.9563 12.1139 -0.126952 8.25896 0.00402401C4.88189 0.120841 2.07474 2.75807 1.74907 6.12098C1.68536 6.79356 1.72075 7.4449 1.84111 8.06793C1.84111 8.06793 1.85173 8.14226 1.88359 8.28032C1.98979 8.74759 2.142 9.2007 2.34024 9.62548C3.02344 11.2397 4.59516 13.9371 8.1209 16.8646C8.34037 17.0451 8.65543 17.0451 8.8749 16.8646C12.4042 13.9371 13.9724 11.2397 14.6556 9.62548C14.8538 9.2007 15.006 8.74759 15.1122 8.28032C15.1441 8.14226 15.1547 8.06793 15.1547 8.06793C15.2396 7.65022 15.2821 7.22189 15.2821 6.78294ZM8.49967 10.9848C6.21997 10.9848 4.37568 9.13698 4.37568 6.86082C4.37568 4.58112 6.22351 2.73683 8.49967 2.73683C10.7758 2.73683 12.6237 4.58466 12.6237 6.86082C12.6237 9.13698 10.7794 10.9848 8.49967 10.9848Z" fill="black"/>
</svg>
