<svg width="17" height="17" viewBox="0 0 17 17" fill="none" xmlns="http://www.w3.org/2000/svg">
<path d="M14.8837 14.981C16.0513 14.981 17 14.0323 17 12.8647V4.13536C17 2.96773 16.0513 2.01904 14.8837 2.01904H2.11631C0.948692 2.01904 0 2.96773 0 4.13536V12.8612C0 14.0289 0.948692 14.9775 2.11631 14.9775H14.8837V14.981ZM2.16496 4.96589C1.94603 4.77824 1.91823 4.45159 2.10589 4.23266C2.29354 4.01373 2.6202 3.98593 2.83912 4.17358L8.5 8.97612L14.1643 4.17011C14.3833 3.98245 14.7134 4.01025 14.8976 4.22918C15.0852 4.44811 15.0574 4.77824 14.8385 4.96242L10.797 8.39578L14.8594 12.2183C15.0679 12.4164 15.0783 12.7466 14.8802 12.9551C14.776 13.0628 14.6404 13.1184 14.5014 13.1184C14.3729 13.1184 14.2443 13.0697 14.1435 12.9759L9.99775 9.07689L8.84056 10.0603C8.74325 10.1437 8.62163 10.1854 8.50347 10.1854C8.38185 10.1854 8.26369 10.1437 8.16639 10.0603L7.00572 9.07689L2.85998 12.9794C2.7592 13.0732 2.63062 13.1219 2.50204 13.1219C2.36304 13.1219 2.22404 13.0663 2.12326 12.9585C1.92518 12.75 1.93561 12.4199 2.14411 12.2218L6.20646 8.39578L2.16496 4.96589Z" fill="black"/>
</svg>
