<svg width="17" height="17" viewBox="0 0 17 17" fill="none" xmlns="http://www.w3.org/2000/svg">
<g clip-path="url(#clip0_75_303)">
<path d="M12.9246 11.246C12.3692 10.6977 11.6758 10.6977 11.1239 11.246C10.703 11.6635 10.282 12.0809 9.86812 12.5054C9.75492 12.6221 9.6594 12.6469 9.52144 12.5691C9.24905 12.4205 8.95897 12.3002 8.69719 12.1375C7.47674 11.3698 6.45439 10.3829 5.54878 9.27208C5.09952 8.72023 4.69977 8.12946 4.42031 7.4644C4.36371 7.32997 4.37432 7.24154 4.48398 7.13187C4.90495 6.72506 5.3153 6.30763 5.7292 5.8902C6.30582 5.31004 6.30582 4.63083 5.72566 4.04714C5.39667 3.71461 5.06768 3.38916 4.73869 3.05663C4.39908 2.71702 4.06302 2.37388 3.71987 2.03782C3.16448 1.49657 2.47112 1.49657 1.91927 2.04135C1.49476 2.45878 1.08795 2.88683 0.656366 3.29718C0.256624 3.6757 0.054984 4.13911 0.0125335 4.68036C-0.0546797 5.56121 0.16111 6.39253 0.465339 7.20262C1.08795 8.87942 2.03601 10.3687 3.18571 11.7342C4.73869 13.5808 6.59236 15.0418 8.76087 16.096C9.73723 16.57 10.749 16.9344 11.8491 16.9945C12.6062 17.037 13.2642 16.846 13.7912 16.2552C14.1521 15.8519 14.5589 15.484 14.941 15.0984C15.507 14.5253 15.5105 13.832 14.948 13.266C14.2759 12.5903 13.6002 11.9182 12.9246 11.246Z" fill="black"/>
<path d="M12.2489 8.42638L13.5542 8.20351C13.3491 7.00429 12.783 5.91826 11.9234 5.0551C11.0143 4.14595 9.86458 3.57287 8.59814 3.396L8.41418 4.70842C9.39408 4.84639 10.2855 5.28858 10.9895 5.99255C11.6546 6.65761 12.0897 7.49954 12.2489 8.42638Z" fill="black"/>
<path d="M14.29 2.75221C12.783 1.24521 10.8763 0.293616 8.77148 0L8.58752 1.31243C10.4058 1.56713 12.0543 2.39138 13.3561 3.68965C14.5907 4.92426 15.4008 6.48431 15.6944 8.20002L16.9998 7.97715C16.6567 5.98905 15.7192 4.18491 14.29 2.75221Z" fill="black"/>
</g>
<defs>
<clipPath id="clip0_75_303">
<rect width="17" height="17" fill="white"/>
</clipPath>
</defs>
</svg>
