<svg width="17" height="17" viewBox="0 0 17 17" fill="none" xmlns="http://www.w3.org/2000/svg">
<g clip-path="url(#clip0_75_321)">
<path d="M6.1998 11.8757L8.34041 10.1237C8.40633 10.1341 8.47571 10.1445 8.54163 10.1445C9.40898 10.1688 10.1167 9.4749 10.1167 8.61102C10.1167 8.11143 9.87735 7.66735 9.50612 7.3898L9.20429 3.54918C9.18347 3.26469 8.98225 3.00796 8.70122 2.95592C8.33 2.88653 7.99694 3.15714 7.96571 3.51796L7.66388 7.3898C7.28224 7.67776 7.03939 8.13918 7.05327 8.65612C7.05674 8.72551 7.06367 8.79143 7.07408 8.85735L5.34633 10.9737C5.15898 11.1922 5.12082 11.5149 5.28388 11.7508C5.49898 12.0631 5.92225 12.1082 6.1998 11.8757ZM8.58673 7.99347C8.9302 7.99347 9.20429 8.27102 9.20429 8.61102C9.20429 8.95449 8.92673 9.22857 8.58673 9.22857C8.24327 9.22857 7.96918 8.95102 7.96918 8.61102C7.96918 8.27102 8.24673 7.99347 8.58673 7.99347ZM8.5 17C13.1871 17 17 13.1871 17 8.5C17 3.81286 13.1871 0 8.5 0C3.81286 0 0 3.81286 0 8.5C0 13.1871 3.81286 17 8.5 17ZM8.5 1.99837C12.0839 1.99837 15.0016 4.91265 15.0016 8.5C15.0016 12.0839 12.0873 15.0016 8.5 15.0016C4.91612 15.0016 1.99837 12.0873 1.99837 8.5C1.99837 4.91612 4.91612 1.99837 8.5 1.99837Z" fill="black"/>
</g>
<defs>
<clipPath id="clip0_75_321">
<rect width="17" height="17" fill="white"/>
</clipPath>
</defs>
</svg>
