<svg width="83" height="82" viewBox="0 0 83 82" fill="none" xmlns="http://www.w3.org/2000/svg">
<path d="M77.1257 30.8461C77.1257 25.5266 77.1257 20.2071 77.1257 14.8876C77.1257 13.5745 76.6316 13.12 75.3196 12.9685C72.5422 12.615 69.7137 12.3793 66.9874 11.7901C58.2804 9.90473 50.5276 5.89827 43.2689 0.898609C41.548 -0.279763 41.5139 -0.31343 39.7759 0.881775C30.1487 7.43015 19.8571 12.211 7.98079 12.9517C6.17464 13.0527 5.88497 13.4567 5.88497 15.2242C5.88497 24.7859 5.83385 34.3644 5.93609 43.9428C5.95313 46.3332 6.27687 48.7742 6.82213 51.0972C8.23638 57.2248 11.6101 62.3086 16.0403 66.7359C23.0434 73.722 31.5119 78.4523 40.7471 81.8864C41.2583 82.0716 42.008 82.0211 42.5192 81.8022C45.7225 80.4218 48.96 79.1256 52.0441 77.5096C59.3709 73.6883 65.914 68.8738 70.8894 62.2076C74.3654 57.5446 76.6998 52.3598 76.9553 46.5184C77.1598 41.2999 77.1257 36.0646 77.1257 30.8461ZM41.4968 67.5776C26.6557 67.5776 14.592 55.6424 14.592 40.9969C14.592 26.3514 26.6557 14.4162 41.4968 14.4162C56.3379 14.4162 68.4017 26.3346 68.4017 40.9969C68.4017 55.6592 56.3379 67.5776 41.4968 67.5776Z" fill="#FFD600"/>
<path d="M41.4969 19.9209C29.7228 19.9209 20.1638 29.3815 20.1638 40.9969C20.1638 52.6291 29.7398 62.0729 41.4969 62.0729C53.2709 62.0729 62.8299 52.6123 62.8299 40.9969C62.8299 29.3647 53.2709 19.9209 41.4969 19.9209ZM48.4318 50.3902C47.3754 51.6528 46.0122 52.5113 44.4106 52.9321C43.7119 53.1173 43.4052 53.4876 43.4393 54.1947C43.4734 54.9017 43.4393 55.6087 43.4393 56.2989C43.4393 56.9218 43.1156 57.2584 42.4851 57.2753C41.7184 57.2921 40.9516 57.2921 40.1848 57.2753C39.5203 57.2584 39.1966 56.8881 39.1966 56.2316C39.1966 55.7097 39.1795 55.2047 39.1795 54.6829C39.1625 53.555 39.1284 53.5045 38.0209 53.3361C36.6066 53.1173 35.2264 52.7975 33.9315 52.1746C32.9091 51.6864 32.8069 51.4339 33.0965 50.3902C33.3181 49.599 33.5396 48.8247 33.7781 48.0503C34.0678 47.1581 34.3063 47.0403 35.1412 47.4611C36.5725 48.2018 38.089 48.6058 39.6907 48.8078C40.7131 48.9425 41.7184 48.8247 42.6726 48.4207C44.4446 47.6631 44.7173 45.6262 43.2178 44.3974C42.7066 43.9765 42.1273 43.6735 41.5139 43.421C39.9633 42.7476 38.3446 42.2258 36.8622 41.3673C34.4767 39.9532 32.9602 38.0173 33.1477 35.1556C33.3521 31.9235 35.2094 29.9034 38.2083 28.8092C39.4522 28.3715 39.4522 28.3883 39.4692 27.109C39.4692 26.6713 39.4692 26.2504 39.4692 25.8128C39.4862 24.8532 39.6566 24.6849 40.6279 24.6512C40.9346 24.6344 41.2242 24.6512 41.5309 24.6512C43.6097 24.6512 43.6097 24.6512 43.6097 26.705C43.6097 28.1527 43.6097 28.1527 45.0751 28.3883C46.1997 28.5567 47.2561 28.8934 48.2955 29.331C48.8578 29.5835 49.0793 29.9707 48.9089 30.5599C48.6533 31.4521 48.4148 32.3275 48.1251 33.2028C47.8525 34.0277 47.5798 34.1455 46.779 33.7752C45.1603 33.0008 43.4564 32.681 41.6672 32.782C41.1902 32.7988 40.7471 32.8661 40.3041 33.0513C38.7535 33.7247 38.515 35.4081 39.827 36.4349C40.4915 36.9568 41.2583 37.344 42.0421 37.6638C43.4052 38.2193 44.7854 38.758 46.0804 39.465C50.2209 41.7713 51.3455 46.9056 48.4318 50.3902Z" fill="#FFD600"/>
<circle cx="41.5" cy="40.5" r="18.5" fill="#FFD600"/>
</svg>
