<svg width="1920" height="337" viewBox="0 0 1920 337" fill="none" xmlns="http://www.w3.org/2000/svg">
<path d="M1782.45 25.6051C1915.79 -27.6861 2046.42 9.16701 2152.24 72.4136C2257.94 135.594 2343 227.307 2389.48 292.951L2341.32 327.044C2298.47 266.522 2219.13 181.135 2121.96 123.057C2024.91 65.0456 1914.21 36.4824 1804.35 80.3912C1730.41 109.942 1667.69 146.153 1602.5 181.782C1537.82 217.134 1471.25 251.58 1392.8 274.502C1234.41 320.781 1033.44 318.521 702.438 199.765C379.144 83.7742 186.865 94.0991 48.4111 142.295C-21.5311 166.643 -79.2867 201.159 -135.19 236.984C-190.311 272.306 -245.398 310.186 -306.199 336.991L-330 283.004C-274.552 258.559 -224.576 224.189 -167.024 187.308C-110.256 150.93 -47.7305 113.29 29.0146 86.5748C183.936 32.6463 390.657 25.2222 722.362 144.231C1046.36 260.475 1233.89 259.465 1376.25 217.87C1448.18 196.853 1510.04 165.08 1574.21 130.01C1637.86 95.2174 1704.39 56.8044 1782.45 25.6051Z" fill="#FFD600"/>
<path d="M1915.03 30.3801C1914.73 30.679 1914.37 30.8277 1913.95 30.8262C1913.53 30.8247 1913.17 30.6734 1912.87 30.3724C1912.58 30.0713 1912.43 29.7108 1912.43 29.2908C1912.43 28.8708 1912.58 28.5113 1912.88 28.2124C1913.18 27.9135 1913.54 27.7647 1913.96 27.7662C1914.38 27.7677 1914.74 27.919 1915.04 28.2201C1915.34 28.5212 1915.49 28.8817 1915.49 29.3017C1915.49 29.7217 1915.34 30.0812 1915.03 30.3801Z" fill="#1E1E1E"/>
<path d="M1892.66 23.6533L1895.14 23.49L1895.97 36.0627L1893.49 36.226L1893.19 31.628C1892.43 32.0026 1891.62 32.2182 1890.76 32.275C1889.5 32.3579 1888.43 32.0736 1887.55 31.4224C1886.69 30.7576 1886.21 29.8145 1886.13 28.5931L1885.84 24.1029L1888.32 23.9396L1888.59 28.1066C1888.63 28.7172 1888.84 29.1788 1889.21 29.4912C1889.59 29.8028 1890.07 29.9393 1890.66 29.9006C1891.51 29.8446 1892.3 29.6181 1893.03 29.2212L1892.66 23.6533Z" fill="#1E1E1E"/>
<path d="M1870.28 38.4694L1868.88 25.9477L1871.34 25.6712L1871.81 29.7855L1874.01 29.5391C1875.2 29.4056 1876.26 29.6975 1877.18 30.415C1878.1 31.1338 1878.62 32.0835 1878.75 33.2641C1878.89 34.4566 1878.59 35.4985 1877.85 36.3896C1877.11 37.2941 1876.14 37.813 1874.95 37.9466L1870.28 38.4694ZM1880.37 37.3396L1878.97 24.8179L1881.42 24.5435L1882.82 37.0652L1880.37 37.3396ZM1872.49 35.8854L1874.69 35.639C1875.23 35.5789 1875.64 35.3513 1875.93 34.9561C1876.24 34.5596 1876.36 34.0871 1876.3 33.5385C1876.24 32.99 1876.02 32.5562 1875.63 32.2371C1875.26 31.9167 1874.8 31.7866 1874.26 31.8467L1872.06 32.0931L1872.49 35.8854Z" fill="#1E1E1E"/>
<path d="M1867.28 38.8903L1864.45 39.3384L1859.09 34.2117L1860.01 40.0429L1857.56 40.4318L1855.58 27.9871L1858.04 27.5983L1858.91 33.0917L1862.3 26.9219L1865.13 26.4739L1861.48 33.2483L1867.28 38.8903Z" fill="#1E1E1E"/>
<path d="M1851.94 41.513L1850.75 39.4387L1845.83 40.4294L1845.53 42.8019L1842.9 43.331L1844.74 30.1087L1847.76 29.5015L1854.59 40.9804L1851.94 41.513ZM1846.15 37.9968L1849.53 37.315L1846.82 32.609L1846.15 37.9968Z" fill="#1E1E1E"/>
<path d="M1836.95 31.8202L1839.96 44.0538L1837.55 44.6485L1835.1 34.7218L1830.79 35.7861L1833.23 45.7128L1830.82 46.3075L1827.81 34.0738L1836.95 31.8202Z" fill="#1E1E1E"/>
<path d="M1821.84 48.8288L1819.11 49.6769L1813.06 45.3714L1814.81 51.0103L1812.44 51.7463L1808.71 39.7121L1811.08 38.9761L1812.73 44.2883L1815.21 37.6961L1817.94 36.848L1815.3 44.0746L1821.84 48.8288Z" fill="#1E1E1E"/>
<path d="M1807.03 53.6127L1805.56 51.7272L1800.83 53.4038L1800.87 55.7941L1798.34 56.6895L1798.3 43.3401L1801.2 42.3125L1809.58 52.7113L1807.03 53.6127ZM1800.8 50.9506L1804.06 49.7968L1800.71 45.5211L1800.8 50.9506Z" fill="#1E1E1E"/>
<path d="M1790.86 46.1102L1795.53 57.8113L1793.22 58.7327L1789.43 49.2381L1785.3 50.8874L1789.1 60.3819L1786.79 61.3034L1782.11 49.6023L1790.86 46.1102Z" fill="#1E1E1E"/>
<path d="M1769.16 63.0487C1769.01 63.4424 1768.73 63.7218 1768.35 63.8867C1767.96 64.0517 1767.57 64.0552 1767.18 63.8971C1766.78 63.7391 1766.5 63.4669 1766.34 63.0807C1766.17 62.6944 1766.17 62.3044 1766.33 61.9107C1766.49 61.517 1766.76 61.2376 1767.15 61.0727C1767.53 60.9077 1767.92 60.9042 1768.32 61.0623C1768.71 61.2203 1768.99 61.4925 1769.15 61.8787C1769.32 62.265 1769.32 62.655 1769.16 63.0487Z" fill="#1E1E1E"/>
<path d="M1751.48 76.4877L1748.31 69.4878L1746.56 78.7179L1744.84 79.4984L1739.64 68.0231L1741.9 66.9973L1745.08 74.0136L1746.82 64.7671L1748.54 63.9866L1753.74 75.4618L1751.48 76.4877Z" fill="#1E1E1E"/>
<path d="M1738.84 82.2931L1735.58 75.3325L1733.95 84.5832L1732.24 85.3848L1726.89 73.974L1729.14 72.9205L1732.41 79.8974L1734.03 70.6304L1735.75 69.8289L1741.09 81.2396L1738.84 82.2931Z" fill="#1E1E1E"/>
<path d="M1726.86 85.3244L1728.08 84.7377L1730.16 89.0501L1727.92 90.1295L1726.88 87.9571L1719.42 91.5551L1713.94 80.2068L1716.18 79.1274L1720.62 88.3357L1724.63 86.4038L1720.18 77.1955L1722.42 76.1161L1726.86 85.3244Z" fill="#1E1E1E"/>
<path d="M1716.7 92.888L1714.13 94.1577L1707.48 90.8629L1710.1 96.1541L1707.87 97.2561L1702.28 85.9639L1704.51 84.8619L1706.98 89.8466L1708.38 82.9454L1710.95 81.6757L1709.48 89.2287L1716.7 92.888Z" fill="#1E1E1E"/>
<path d="M1697.16 88.5432L1699.38 87.422L1700.13 97.2716C1700.33 99.9111 1699.38 101.692 1697.26 102.614L1696.21 100.542C1696.85 100.287 1697.3 99.9601 1697.55 99.5618C1697.8 99.1527 1697.93 98.6397 1697.92 98.0225L1690.27 92.0288L1692.49 90.9076L1697.69 95.0934L1697.16 88.5432Z" fill="#1E1E1E"/>
<path d="M1691.72 102.784L1692.92 102.164L1695.12 106.418L1692.91 107.558L1691.8 105.415L1685.61 108.612L1686.72 110.755L1684.51 111.895L1682.32 107.641L1683.4 107.079C1683.58 105.907 1683.24 104.484 1682.37 102.81L1679.64 97.5167L1687.03 93.7001L1691.72 102.784ZM1689.51 103.924L1685.89 96.9031L1682.91 98.4397L1684.6 101.702C1685.44 103.333 1685.83 104.718 1685.77 105.857L1689.51 103.924Z" fill="#1E1E1E"/>
<path d="M1679.11 110.161C1678.56 111.874 1677.49 113.153 1675.88 113.998C1674.27 114.848 1672.61 115.012 1670.89 114.491C1669.19 113.953 1667.91 112.871 1667.05 111.247C1666.19 109.623 1666.03 107.96 1666.56 106.257C1667.09 104.539 1668.16 103.255 1669.78 102.405C1671.39 101.554 1673.06 101.396 1674.77 101.928C1676.49 102.45 1677.77 103.523 1678.63 105.147C1679.48 106.772 1679.64 108.443 1679.11 110.161ZM1671.65 112.18C1672.69 112.501 1673.72 112.391 1674.75 111.848C1675.78 111.306 1676.46 110.516 1676.78 109.478C1677.11 108.424 1676.99 107.367 1676.43 106.305C1675.87 105.243 1675.06 104.549 1674.01 104.223C1672.96 103.896 1671.92 104.002 1670.9 104.539C1669.88 105.076 1669.21 105.871 1668.88 106.925C1668.56 107.978 1668.67 109.036 1669.23 110.098C1669.79 111.159 1670.6 111.853 1671.65 112.18Z" fill="#1E1E1E"/>
<path d="M1657.82 109.035C1658.88 108.469 1659.97 108.348 1661.1 108.671C1662.21 109 1663.05 109.688 1663.61 110.736C1664.17 111.794 1664.28 112.873 1663.93 113.972C1663.58 115.088 1662.87 115.929 1661.81 116.495L1659.86 117.539L1661.81 121.19L1659.62 122.361L1653.68 111.251L1657.82 109.035ZM1660.71 114.447C1660.95 114.323 1661.14 114.164 1661.3 113.972C1661.45 113.78 1661.56 113.573 1661.62 113.351C1661.68 113.113 1661.7 112.874 1661.66 112.633C1661.64 112.387 1661.56 112.142 1661.43 111.899C1661.17 111.412 1660.81 111.092 1660.33 110.939C1659.86 110.78 1659.39 110.828 1658.92 111.082L1656.96 112.127L1658.76 115.492L1660.71 114.447Z" fill="#1E1E1E"/>
<path d="M1649.96 113.258L1655.97 124.332L1653.79 125.517L1648.91 116.531L1645.01 118.652L1649.88 127.638L1647.7 128.823L1641.69 117.748L1649.96 113.258Z" fill="#1E1E1E"/>
<path d="M1625.35 125.341L1624.38 123.572L1628.96 121.068L1629.93 122.837L1625.35 125.341ZM1636.35 135L1632.66 128.255L1631.61 137.589L1629.95 138.496L1623.91 127.439L1626.09 126.248L1629.78 133.008L1630.83 123.658L1632.49 122.752L1638.53 133.809L1636.35 135Z" fill="#1E1E1E"/>
<path d="M1624.38 139.684C1623.86 141.406 1622.81 142.704 1621.22 143.577C1619.62 144.455 1617.96 144.648 1616.24 144.156C1614.53 143.648 1613.23 142.589 1612.34 140.98C1611.46 139.371 1611.26 137.711 1611.76 136C1612.26 134.273 1613.31 132.97 1614.91 132.092C1616.51 131.213 1618.18 131.025 1619.9 131.528C1621.62 132.02 1622.93 133.07 1623.81 134.679C1624.69 136.288 1624.89 137.957 1624.38 139.684ZM1616.96 141.832C1618 142.136 1619.03 142.007 1620.05 141.447C1621.07 140.886 1621.74 140.085 1622.04 139.042C1622.35 137.982 1622.21 136.927 1621.63 135.875C1621.06 134.824 1620.24 134.144 1619.18 133.836C1618.12 133.528 1617.08 133.651 1616.07 134.206C1615.07 134.76 1614.41 135.567 1614.1 136.626C1613.79 137.686 1613.93 138.741 1614.5 139.793C1615.08 140.845 1615.9 141.524 1616.96 141.832Z" fill="#1E1E1E"/>
<path d="M1604.02 138.363L1606.18 137.175L1612.25 148.218L1610.09 149.406L1607.58 144.831L1603.47 147.084L1605.99 151.659L1603.81 152.855L1597.74 141.812L1599.92 140.616L1602.33 145.002L1606.43 142.748L1604.02 138.363Z" fill="#1E1E1E"/>
<path d="M1591.94 145L1594.12 143.804L1600.19 154.847L1598.01 156.043L1595.79 152.004C1595.26 152.664 1594.62 153.202 1593.86 153.618C1592.76 154.224 1591.67 154.42 1590.59 154.204C1589.53 153.965 1588.7 153.31 1588.11 152.237L1585.95 148.293L1588.12 147.097L1590.13 150.757C1590.43 151.294 1590.81 151.625 1591.28 151.752C1591.75 151.873 1592.25 151.792 1592.77 151.509C1593.51 151.099 1594.13 150.559 1594.63 149.89L1591.94 145Z" fill="#1E1E1E"/>
<path d="M1586.85 160.284C1586.32 162.005 1585.26 163.297 1583.67 164.163C1582.07 165.034 1580.41 165.22 1578.69 164.721C1576.97 164.205 1575.68 163.141 1574.8 161.528C1573.92 159.915 1573.74 158.254 1574.24 156.545C1574.75 154.82 1575.81 153.522 1577.41 152.65C1579.01 151.779 1580.68 151.599 1582.4 152.108C1584.12 152.608 1585.42 153.664 1586.3 155.277C1587.18 156.89 1587.36 158.559 1586.85 160.284ZM1579.41 162.4C1580.46 162.708 1581.49 162.584 1582.51 162.028C1583.53 161.472 1584.2 160.673 1584.51 159.632C1584.82 158.574 1584.69 157.518 1584.12 156.464C1583.54 155.409 1582.73 154.726 1581.67 154.413C1580.61 154.1 1579.58 154.219 1578.56 154.769C1577.55 155.32 1576.89 156.124 1576.58 157.182C1576.26 158.239 1576.39 159.295 1576.97 160.35C1577.54 161.404 1578.36 162.087 1579.41 162.4Z" fill="#1E1E1E"/>
<path d="M1570.74 163.464C1572.01 163.498 1572.95 164.079 1573.56 165.208C1574.07 166.148 1574.16 167.098 1573.82 168.059C1573.48 169.021 1572.82 169.764 1571.85 170.29L1567.15 172.836L1561.15 161.756L1565.52 159.39C1566.46 158.882 1567.42 158.746 1568.39 158.982C1569.36 159.219 1570.09 159.786 1570.58 160.683C1571.08 161.611 1571.13 162.539 1570.74 163.464ZM1564.44 162.615L1565.76 165.052L1567.95 163.87C1568.28 163.687 1568.5 163.419 1568.6 163.067C1568.7 162.709 1568.66 162.356 1568.47 162.008C1568.28 161.66 1568.02 161.43 1567.67 161.317C1567.32 161.205 1566.97 161.243 1566.63 161.432L1564.44 162.615ZM1570.75 168.248C1571.12 168.048 1571.36 167.761 1571.47 167.387C1571.57 167.002 1571.52 166.62 1571.32 166.24C1571.12 165.871 1570.83 165.631 1570.46 165.519C1570.08 165.397 1569.7 165.437 1569.33 165.637L1566.82 166.999L1568.23 169.611L1570.75 168.248Z" fill="#1E1E1E"/>
<path d="M1561.57 173.963C1561.03 175.679 1559.96 176.964 1558.36 177.816C1556.75 178.675 1555.09 178.847 1553.38 178.334C1551.67 177.804 1550.38 176.73 1549.51 175.11C1548.65 173.49 1548.48 171.827 1549 170.123C1549.52 168.402 1550.59 167.112 1552.2 166.254C1553.81 165.395 1555.47 165.228 1557.19 165.752C1558.91 166.265 1560.2 167.332 1561.06 168.952C1561.92 170.572 1562.09 172.242 1561.57 173.963ZM1554.12 176.019C1555.16 176.336 1556.19 176.22 1557.22 175.672C1558.25 175.124 1558.92 174.331 1559.23 173.292C1559.56 172.237 1559.43 171.18 1558.87 170.121C1558.3 169.062 1557.49 168.372 1556.44 168.051C1555.38 167.729 1554.35 167.84 1553.33 168.382C1552.32 168.924 1551.65 169.723 1551.33 170.778C1551 171.833 1551.13 172.89 1551.69 173.949C1552.25 175.008 1553.06 175.698 1554.12 176.019Z" fill="#1E1E1E"/>
<path d="M1551.26 181.312L1548.72 182.638L1542 179.49L1544.73 184.723L1542.53 185.873L1536.7 174.707L1538.9 173.556L1541.47 178.485L1542.73 171.555L1545.26 170.229L1543.97 177.812L1551.26 181.312Z" fill="#1E1E1E"/>
<path d="M1537.44 188.494L1535.74 186.821L1531.27 189.115L1531.63 191.478L1529.25 192.702L1527.42 179.479L1530.15 178.073L1539.85 187.261L1537.44 188.494ZM1530.91 186.687L1533.99 185.109L1530.1 181.318L1530.91 186.687Z" fill="#1E1E1E"/>
<path d="M1520.89 182.794L1526.54 194.06L1524.32 195.172L1519.74 186.031L1515.76 188.023L1520.34 197.164L1518.12 198.276L1512.48 187.011L1520.89 182.794Z" fill="#1E1E1E"/>
<path d="M1507.55 189.428L1509.78 188.34L1510.38 198.199C1510.55 200.842 1509.57 202.608 1507.44 203.499L1506.42 201.412C1507.06 201.166 1507.51 200.846 1507.77 200.452C1508.03 200.046 1508.16 199.535 1508.17 198.918L1500.6 192.813L1502.84 191.724L1507.98 195.986L1507.55 189.428Z" fill="#1E1E1E"/>
<path d="M1495.5 207.358C1494.86 209.042 1493.72 210.265 1492.08 211.027C1490.43 211.795 1488.76 211.875 1487.07 211.267C1485.39 210.644 1484.17 209.499 1483.4 207.834C1482.62 206.168 1482.54 204.499 1483.16 202.826C1483.77 201.137 1484.91 199.908 1486.57 199.14C1488.22 198.373 1489.89 198.298 1491.58 198.917C1493.27 199.524 1494.49 200.661 1495.27 202.326C1496.04 203.992 1496.12 205.669 1495.5 207.358ZM1487.94 208.998C1488.96 209.371 1490 209.313 1491.06 208.823C1492.11 208.333 1492.83 207.578 1493.2 206.558C1493.58 205.522 1493.52 204.46 1493.01 203.372C1492.51 202.283 1491.74 201.549 1490.7 201.17C1489.67 200.791 1488.63 200.844 1487.58 201.328C1486.54 201.813 1485.82 202.574 1485.44 203.609C1485.06 204.645 1485.13 205.707 1485.63 206.796C1486.14 207.885 1486.91 208.618 1487.94 208.998Z" fill="#1E1E1E"/>
<path d="M1479.27 209.431C1480.54 209.561 1481.43 210.212 1481.96 211.384C1482.39 212.359 1482.4 213.313 1481.99 214.246C1481.58 215.179 1480.87 215.871 1479.87 216.321L1474.98 218.503L1469.84 207L1474.38 204.973C1475.35 204.537 1476.32 204.474 1477.27 204.784C1478.22 205.094 1478.91 205.714 1479.33 206.645C1479.76 207.609 1479.74 208.538 1479.27 209.431ZM1473.06 208.106L1474.19 210.637L1476.46 209.623C1476.81 209.467 1477.04 209.216 1477.17 208.872C1477.3 208.524 1477.29 208.169 1477.12 207.807C1476.96 207.446 1476.71 207.196 1476.37 207.058C1476.04 206.919 1475.69 206.931 1475.33 207.093L1473.06 208.106ZM1478.92 214.202C1479.3 214.03 1479.56 213.762 1479.7 213.398C1479.84 213.022 1479.82 212.637 1479.64 212.243C1479.47 211.859 1479.2 211.598 1478.83 211.459C1478.47 211.308 1478.09 211.319 1477.71 211.49L1475.09 212.658L1476.3 215.37L1478.92 214.202Z" fill="#1E1E1E"/>
<path d="M1467.07 208.214L1468.01 210.395L1464.89 211.745L1468.94 221.13L1466.66 222.115L1462.61 212.73L1459.5 214.072L1458.56 211.891L1467.07 208.214Z" fill="#1E1E1E"/>
<path d="M1456.48 226.648C1454.73 227.371 1453.04 227.385 1451.42 226.691C1449.8 226.008 1448.64 224.806 1447.93 223.086C1447.22 221.355 1447.2 219.683 1447.87 218.07C1448.53 216.434 1449.74 215.255 1451.49 214.532C1452.02 214.313 1452.56 214.169 1453.1 214.101C1453.65 214.018 1454.2 214.009 1454.73 214.075C1455.26 214.129 1455.76 214.258 1456.25 214.46C1456.74 214.647 1457.2 214.898 1457.63 215.215L1456.12 217.179C1455.62 216.765 1455.04 216.524 1454.39 216.455C1453.73 216.386 1453.08 216.488 1452.41 216.763C1451.28 217.229 1450.51 217.961 1450.1 218.959C1449.71 219.964 1449.75 221.026 1450.21 222.147C1450.67 223.256 1451.39 224.03 1452.37 224.468C1453.36 224.89 1454.43 224.868 1455.56 224.402C1456.22 224.127 1456.76 223.736 1457.18 223.228C1457.6 222.705 1457.84 222.131 1457.91 221.506L1460.36 221.838C1460.28 222.365 1460.13 222.874 1459.92 223.364C1459.71 223.839 1459.44 224.287 1459.11 224.709C1458.77 225.121 1458.38 225.49 1457.93 225.818C1457.5 226.152 1457.02 226.429 1456.48 226.648Z" fill="#1E1E1E"/>
<path d="M1445.71 228.179L1446.96 227.688L1448.71 232.147L1446.39 233.051L1445.52 230.805L1439.03 233.343L1439.91 235.589L1437.59 236.494L1435.85 232.035L1436.99 231.589C1437.29 230.441 1437.09 228.99 1436.41 227.236L1434.24 221.687L1441.98 218.658L1445.71 228.179ZM1443.39 229.084L1440.52 221.725L1437.4 222.945L1438.73 226.364C1439.4 228.074 1439.65 229.492 1439.47 230.618L1443.39 229.084Z" fill="#1E1E1E"/>
<path d="M1432.41 234.094C1431.64 235.72 1430.4 236.846 1428.7 237.471C1426.99 238.101 1425.32 238.045 1423.69 237.302C1422.07 236.543 1420.94 235.302 1420.31 233.579C1419.67 231.856 1419.73 230.186 1420.48 228.568C1421.23 226.935 1422.46 225.804 1424.17 225.174C1425.89 224.544 1427.56 224.606 1429.19 225.36C1430.82 226.104 1431.95 227.337 1432.59 229.06C1433.22 230.783 1433.16 232.461 1432.41 234.094ZM1424.74 235.111C1425.73 235.566 1426.77 235.593 1427.86 235.191C1428.95 234.789 1429.73 234.095 1430.18 233.109C1430.65 232.107 1430.67 231.044 1430.26 229.918C1429.84 228.791 1429.13 227.997 1428.13 227.534C1427.13 227.072 1426.09 227.039 1425.01 227.437C1423.93 227.835 1423.15 228.535 1422.69 229.536C1422.23 230.538 1422.21 231.601 1422.62 232.728C1423.03 233.854 1423.74 234.648 1424.74 235.111Z" fill="#1E1E1E"/>
<path d="M1416.08 234.814C1417.33 235.052 1418.17 235.777 1418.59 236.989C1418.94 237.998 1418.87 238.949 1418.38 239.844C1417.89 240.739 1417.13 241.367 1416.09 241.731L1411.04 243.489L1406.89 231.591L1411.58 229.956C1412.59 229.605 1413.56 229.624 1414.48 230.014C1415.41 230.404 1416.04 231.08 1416.37 232.044C1416.72 233.041 1416.62 233.964 1416.08 234.814ZM1410 232.966L1410.91 235.584L1413.26 234.767C1413.62 234.64 1413.88 234.411 1414.03 234.079C1414.19 233.743 1414.21 233.388 1414.08 233.014C1413.95 232.64 1413.72 232.37 1413.4 232.203C1413.07 232.037 1412.72 232.019 1412.35 232.149L1410 232.966ZM1415.32 239.538C1415.72 239.4 1416 239.155 1416.17 238.803C1416.34 238.441 1416.35 238.055 1416.21 237.647C1416.07 237.251 1415.82 236.967 1415.47 236.798C1415.12 236.616 1414.74 236.595 1414.35 236.733L1411.64 237.675L1412.62 240.479L1415.32 239.538Z" fill="#1E1E1E"/>
<path d="M1404.07 238.938C1405.4 239.158 1406.28 239.918 1406.71 241.218C1407.05 242.279 1406.93 243.278 1406.34 244.216C1405.76 245.139 1404.82 245.811 1403.54 246.233C1401.31 246.961 1399.52 246.507 1398.15 244.872L1399.81 243.059C1400.54 244.107 1401.54 244.423 1402.81 244.009C1403.46 243.796 1403.91 243.503 1404.17 243.128C1404.42 242.743 1404.47 242.31 1404.31 241.831C1404.15 241.352 1403.86 241.038 1403.43 240.887C1403.01 240.722 1402.49 240.742 1401.86 240.947L1400.37 241.434L1399.69 239.33L1400.82 238.961C1401.41 238.766 1401.83 238.49 1402.08 238.131C1402.32 237.76 1402.37 237.352 1402.23 236.908C1402.08 236.463 1401.82 236.162 1401.46 236.004C1401.09 235.835 1400.62 235.842 1400.06 236.025C1399.04 236.361 1398.48 237.098 1398.4 238.236L1396.02 237.728C1396.27 235.763 1397.38 234.46 1399.34 233.818C1400.52 233.434 1401.59 233.436 1402.56 233.824C1403.52 234.217 1404.18 234.937 1404.52 235.987C1404.87 237.059 1404.72 238.043 1404.07 238.938Z" fill="#1E1E1E"/>
<path d="M1393.56 249.128L1391.3 241.779L1388.39 250.71L1386.59 251.264L1382.89 239.217L1385.27 238.489L1387.53 245.855L1390.43 236.907L1392.24 236.353L1395.93 248.4L1393.56 249.128Z" fill="#1E1E1E"/>
<path d="M1380.9 251.196C1380.01 252.757 1378.69 253.785 1376.95 254.278C1375.19 254.774 1373.53 254.589 1371.96 253.722C1370.4 252.841 1369.37 251.517 1368.88 249.75C1368.38 247.983 1368.56 246.322 1369.43 244.767C1370.31 243.197 1371.63 242.164 1373.38 241.668C1375.14 241.172 1376.8 241.363 1378.37 242.241C1379.93 243.107 1380.97 244.424 1381.47 246.19C1381.97 247.957 1381.78 249.625 1380.9 251.196ZM1373.18 251.619C1374.13 252.149 1375.16 252.256 1376.28 251.939C1377.4 251.623 1378.23 250.99 1378.76 250.042C1379.3 249.08 1379.4 248.021 1379.08 246.866C1378.75 245.711 1378.11 244.865 1377.14 244.326C1376.18 243.788 1375.15 243.675 1374.04 243.989C1372.93 244.302 1372.1 244.94 1371.57 245.903C1371.03 246.866 1370.92 247.925 1371.25 249.079C1371.57 250.234 1372.22 251.081 1373.18 251.619Z" fill="#1E1E1E"/>
<path d="M1360.61 245.394C1361.77 245.094 1362.86 245.233 1363.88 245.813C1364.88 246.395 1365.53 247.262 1365.83 248.412C1366.13 249.574 1365.98 250.647 1365.38 251.633C1364.77 252.633 1363.89 253.284 1362.73 253.585L1360.58 254.139L1361.62 258.147L1359.21 258.769L1356.06 246.571L1360.61 245.394ZM1362.14 251.337C1362.4 251.27 1362.63 251.162 1362.82 251.012C1363.02 250.862 1363.17 250.686 1363.28 250.485C1363.4 250.268 1363.47 250.039 1363.49 249.797C1363.53 249.553 1363.51 249.297 1363.44 249.029C1363.3 248.495 1363.02 248.097 1362.6 247.836C1362.18 247.571 1361.71 247.507 1361.19 247.642L1359.04 248.197L1360 251.891L1362.14 251.337Z" fill="#1E1E1E"/>
<path d="M1352.27 247.495L1355.19 259.752L1352.77 260.328L1350.4 250.383L1346.08 251.414L1348.45 261.359L1346.03 261.935L1343.11 249.678L1352.27 247.495Z" fill="#1E1E1E"/>
<path d="M1328.5 260.44C1328.26 260.793 1327.94 261.011 1327.53 261.094C1327.12 261.177 1326.74 261.101 1326.38 260.866C1326.03 260.631 1325.81 260.307 1325.73 259.895C1325.65 259.484 1325.72 259.101 1325.96 258.748C1326.19 258.395 1326.52 258.177 1326.93 258.094C1327.34 258.011 1327.72 258.088 1328.07 258.323C1328.43 258.558 1328.65 258.881 1328.73 259.293C1328.81 259.705 1328.73 260.087 1328.5 260.44Z" fill="#1E1E1E"/>
<path d="M1306.26 256.966L1308.71 256.557L1310.78 268.986L1308.33 269.394L1307.57 264.849C1306.86 265.297 1306.07 265.592 1305.22 265.734C1303.98 265.942 1302.88 265.765 1301.94 265.205C1301.02 264.629 1300.45 263.738 1300.25 262.53L1299.51 258.092L1301.96 257.683L1302.65 261.802C1302.75 262.406 1303 262.845 1303.4 263.119C1303.81 263.391 1304.3 263.479 1304.88 263.382C1305.72 263.242 1306.49 262.938 1307.18 262.47L1306.26 256.966Z" fill="#1E1E1E"/>
<path d="M1285.26 272.876L1283.48 260.403L1285.94 260.051L1286.53 264.149L1288.72 263.836C1289.91 263.666 1290.97 263.925 1291.92 264.614C1292.86 265.304 1293.41 266.238 1293.58 267.414C1293.75 268.602 1293.48 269.652 1292.77 270.565C1292.06 271.492 1291.1 272.04 1289.92 272.21L1285.26 272.876ZM1295.31 271.438L1293.53 258.965L1295.97 258.616L1297.76 271.089L1295.31 271.438ZM1287.39 270.225L1289.59 269.912C1290.12 269.835 1290.53 269.595 1290.81 269.191C1291.1 268.785 1291.21 268.309 1291.13 267.763C1291.06 267.217 1290.82 266.79 1290.42 266.483C1290.04 266.174 1289.58 266.058 1289.05 266.134L1286.85 266.448L1287.39 270.225Z" fill="#1E1E1E"/>
<path d="M1282.26 273.264L1279.42 273.607L1274.25 268.286L1274.95 274.147L1272.49 274.445L1270.98 261.936L1273.44 261.638L1274.11 267.16L1277.73 261.12L1280.57 260.777L1276.68 267.411L1282.26 273.264Z" fill="#1E1E1E"/>
<path d="M1266.8 275.042L1265.82 272.862L1260.82 273.366L1260.29 275.699L1257.63 275.968L1260.75 262.989L1263.81 262.68L1269.48 274.771L1266.8 275.042ZM1261.37 270.976L1264.81 270.629L1262.58 265.681L1261.37 270.976Z" fill="#1E1E1E"/>
<path d="M1253.57 263.66L1254.61 276.218L1252.13 276.422L1251.29 266.232L1246.86 266.597L1247.7 276.787L1245.22 276.99L1244.19 264.433L1253.57 263.66Z" fill="#1E1E1E"/>
<path d="M1235.92 277.604L1233.06 277.759L1228.25 272.108L1228.57 278.003L1226.09 278.138L1225.4 265.557L1227.88 265.422L1228.18 270.976L1232.2 265.187L1235.05 265.032L1230.73 271.396L1235.92 277.604Z" fill="#1E1E1E"/>
<path d="M1220.37 278.368L1219.53 276.129L1214.51 276.312L1213.84 278.606L1211.16 278.703L1215.11 265.951L1218.18 265.839L1223.07 278.269L1220.37 278.368ZM1215.22 273.962L1218.67 273.836L1216.76 268.755L1215.22 273.962Z" fill="#1E1E1E"/>
<path d="M1207.9 266.162L1208.13 278.76L1205.64 278.805L1205.46 268.583L1201.01 268.665L1201.2 278.887L1198.72 278.932L1198.48 266.335L1207.9 266.162Z" fill="#1E1E1E"/>
<path d="M1181.87 273.78C1181.57 274.077 1181.21 274.224 1180.79 274.219C1180.37 274.215 1180.01 274.062 1179.71 273.759C1179.42 273.456 1179.27 273.094 1179.28 272.674C1179.28 272.254 1179.43 271.896 1179.74 271.599C1180.04 271.302 1180.4 271.155 1180.82 271.16C1181.24 271.164 1181.6 271.317 1181.9 271.62C1182.19 271.923 1182.34 272.285 1182.34 272.705C1182.33 273.125 1182.18 273.483 1181.87 273.78Z" fill="#1E1E1E"/>
<path d="M1160.29 278.441L1160.57 270.76L1154.89 278.242L1153 278.172L1153.47 265.581L1155.95 265.672L1155.66 273.371L1161.34 265.871L1163.23 265.941L1162.77 278.532L1160.29 278.441Z" fill="#1E1E1E"/>
<path d="M1146.39 277.839L1146.8 270.164L1141 277.552L1139.11 277.451L1139.78 264.869L1142.26 265.001L1141.85 272.694L1147.65 265.288L1149.54 265.389L1148.87 277.971L1146.39 277.839Z" fill="#1E1E1E"/>
<path d="M1134.47 274.773L1135.81 274.864L1135.49 279.641L1133.01 279.473L1133.17 277.067L1124.91 276.509L1125.76 263.938L1128.24 264.105L1127.55 274.306L1131.99 274.605L1132.68 264.405L1135.15 264.572L1134.47 274.773Z" fill="#1E1E1E"/>
<path d="M1121.89 276.275L1119.04 276.037L1115.05 269.779L1114.56 275.663L1112.08 275.456L1113.13 262.9L1115.61 263.107L1115.14 268.649L1119.91 263.466L1122.76 263.704L1117.61 269.415L1121.89 276.275Z" fill="#1E1E1E"/>
<path d="M1107.68 262.39L1110.16 262.628L1105.52 271.351C1104.28 273.691 1102.52 274.686 1100.24 274.334L1100.47 272.023C1101.14 272.148 1101.69 272.11 1102.12 271.911C1102.55 271.699 1102.93 271.331 1103.26 270.808L1100 261.652L1102.47 261.89L1104.63 268.209L1107.68 262.39Z" fill="#1E1E1E"/>
<path d="M1095.53 271.456L1096.87 271.601L1096.35 276.361L1093.88 276.093L1094.14 273.695L1087.22 272.943L1086.96 275.341L1084.49 275.073L1085.01 270.313L1086.22 270.445C1087.02 269.566 1087.52 268.19 1087.72 266.317L1088.36 260.394L1096.63 261.291L1095.53 271.456ZM1093.06 271.187L1093.91 263.332L1090.58 262.97L1090.19 266.621C1089.99 268.446 1089.55 269.817 1088.87 270.733L1093.06 271.187Z" fill="#1E1E1E"/>
<path d="M1080.99 270.565C1079.56 271.658 1077.95 272.094 1076.15 271.872C1074.34 271.648 1072.88 270.833 1071.77 269.427C1070.68 268.01 1070.24 266.391 1070.47 264.568C1070.69 262.746 1071.51 261.287 1072.91 260.191C1074.33 259.084 1075.94 258.643 1077.75 258.866C1079.56 259.09 1081.02 259.911 1082.13 261.329C1083.24 262.735 1083.68 264.349 1083.45 266.172C1083.23 267.994 1082.41 269.458 1080.99 270.565ZM1073.71 267.962C1074.38 268.818 1075.29 269.317 1076.45 269.46C1077.6 269.602 1078.61 269.34 1079.46 268.672C1080.33 267.993 1080.84 267.058 1080.99 265.867C1081.14 264.676 1080.87 263.646 1080.19 262.776C1079.51 261.907 1078.6 261.401 1077.46 261.26C1076.31 261.119 1075.31 261.388 1074.44 262.066C1073.57 262.745 1073.06 263.68 1072.91 264.871C1072.77 266.062 1073.03 267.092 1073.71 267.962Z" fill="#1E1E1E"/>
<path d="M1064.4 257.391C1065.59 257.553 1066.55 258.095 1067.27 259.017C1067.98 259.938 1068.26 260.986 1068.09 262.163C1067.93 263.352 1067.39 264.289 1066.46 264.974C1065.52 265.669 1064.45 265.936 1063.26 265.774L1061.07 265.475L1060.51 269.577L1058.05 269.242L1059.75 256.757L1064.4 257.391ZM1063.57 263.473C1063.84 263.509 1064.09 263.495 1064.33 263.43C1064.56 263.366 1064.77 263.261 1064.95 263.116C1065.14 262.96 1065.29 262.775 1065.41 262.56C1065.53 262.347 1065.61 262.104 1065.65 261.831C1065.73 261.284 1065.61 260.808 1065.32 260.405C1065.03 260.003 1064.62 259.765 1064.09 259.692L1061.9 259.393L1061.38 263.174L1063.57 263.473Z" fill="#1E1E1E"/>
<path d="M1055.78 256.185L1053.94 268.65L1051.49 268.287L1052.98 258.172L1048.58 257.523L1047.09 267.638L1044.63 267.275L1046.47 254.81L1055.78 256.185Z" fill="#1E1E1E"/>
<path d="M1029.16 250.86L1029.49 248.871L1034.64 249.721L1034.31 251.71L1029.16 250.86ZM1031.87 265.246L1033.12 257.663L1026.54 264.366L1024.68 264.058L1026.73 251.627L1029.18 252.031L1027.93 259.632L1034.51 252.912L1036.38 253.22L1034.32 265.651L1031.87 265.246Z" fill="#1E1E1E"/>
<path d="M1019.59 261.508C1018.11 262.525 1016.47 262.876 1014.69 262.56C1012.89 262.243 1011.48 261.353 1010.45 259.89C1009.43 258.418 1009.08 256.778 1009.4 254.971C1009.72 253.163 1010.61 251.748 1012.07 250.727C1013.54 249.696 1015.18 249.339 1016.97 249.657C1018.77 249.975 1020.18 250.87 1021.21 252.345C1022.25 253.807 1022.6 255.442 1022.28 257.25C1021.96 259.058 1021.07 260.477 1019.59 261.508ZM1012.46 258.528C1013.08 259.418 1013.97 259.965 1015.11 260.168C1016.26 260.37 1017.28 260.161 1018.17 259.538C1019.07 258.906 1019.63 257.999 1019.84 256.817C1020.05 255.636 1019.83 254.593 1019.2 253.689C1018.57 252.785 1017.69 252.233 1016.55 252.032C1015.42 251.831 1014.4 252.047 1013.49 252.679C1012.59 253.311 1012.03 254.218 1011.82 255.4C1011.62 256.582 1011.83 257.625 1012.46 258.528Z" fill="#1E1E1E"/>
<path d="M1004.71 247.682L1007.13 248.138L1004.79 260.52L1002.37 260.063L1003.34 254.934L998.739 254.067L997.772 259.196L995.331 258.736L997.665 246.354L1000.11 246.815L999.179 251.732L1003.78 252.599L1004.71 247.682Z" fill="#1E1E1E"/>
<path d="M991.302 245.097L993.738 245.583L991.272 257.939L988.837 257.453L989.738 252.934C988.91 253.099 988.072 253.097 987.225 252.928C985.989 252.681 985.029 252.129 984.344 251.27C983.684 250.404 983.474 249.371 983.714 248.171L984.595 243.758L987.031 244.244L986.213 248.339C986.094 248.939 986.171 249.438 986.447 249.836C986.734 250.236 987.166 250.493 987.743 250.609C988.578 250.775 989.401 250.762 990.21 250.569L991.302 245.097Z" fill="#1E1E1E"/>
<path d="M977.581 253.492C976.065 254.46 974.42 254.757 972.647 254.384C970.862 254.008 969.477 253.072 968.492 251.577C967.522 250.073 967.226 248.422 967.604 246.626C967.983 244.829 968.918 243.444 970.411 242.471C971.918 241.489 973.564 241.185 975.349 241.561C977.133 241.937 978.517 242.879 979.5 244.386C980.484 245.881 980.788 247.527 980.409 249.323C980.031 251.12 979.088 252.51 977.581 253.492ZM970.55 250.281C971.143 251.191 972.009 251.766 973.148 252.006C974.287 252.246 975.311 252.069 976.221 251.476C977.145 250.874 977.731 249.986 977.978 248.811C978.226 247.637 978.048 246.588 977.446 245.664C976.843 244.74 975.979 244.159 974.851 243.922C973.724 243.684 972.698 243.867 971.774 244.469C970.85 245.071 970.265 245.96 970.017 247.134C969.77 248.308 969.947 249.357 970.55 250.281Z" fill="#1E1E1E"/>
<path d="M963.308 245.444C964.249 246.303 964.582 247.359 964.305 248.613C964.075 249.656 963.518 250.43 962.632 250.936C961.747 251.441 960.765 251.575 959.687 251.337L954.466 250.187L957.178 237.882L962.029 238.951C963.072 239.181 963.885 239.704 964.467 240.52C965.048 241.337 965.23 242.243 965.01 243.239C964.783 244.27 964.215 245.006 963.308 245.444ZM959.104 240.684L958.507 243.391L960.933 243.926C961.308 244.008 961.647 243.948 961.95 243.744C962.264 243.543 962.464 243.25 962.55 242.863C962.635 242.476 962.583 242.127 962.394 241.815C962.204 241.503 961.916 241.304 961.53 241.219L959.104 240.684ZM960.186 249.07C960.597 249.16 960.966 249.1 961.295 248.89C961.627 248.668 961.839 248.346 961.932 247.924C962.022 247.514 961.962 247.145 961.752 246.816C961.545 246.475 961.236 246.26 960.826 246.169L958.031 245.553L957.391 248.454L960.186 249.07Z" fill="#1E1E1E"/>
<path d="M949.516 247.377C947.983 248.317 946.333 248.584 944.567 248.177C942.789 247.768 941.422 246.807 940.465 245.293C939.523 243.771 939.258 242.115 939.67 240.326C940.082 238.537 941.043 237.17 942.553 236.225C944.078 235.271 945.73 234.998 947.507 235.407C949.285 235.817 950.65 236.784 951.605 238.309C952.561 239.822 952.834 241.473 952.422 243.262C952.01 245.052 951.041 246.423 949.516 247.377ZM942.546 244.036C943.123 244.957 943.978 245.548 945.112 245.809C946.246 246.07 947.274 245.913 948.195 245.337C949.13 244.752 949.732 243.875 950.001 242.705C950.27 241.536 950.113 240.483 949.527 239.548C948.942 238.613 948.088 238.016 946.966 237.758C945.843 237.499 944.814 237.663 943.879 238.248C942.944 238.833 942.342 239.71 942.073 240.88C941.803 242.049 941.961 243.101 942.546 244.036Z" fill="#1E1E1E"/>
<path d="M936.913 246.149L934.13 245.482L931.13 238.692L929.754 244.433L927.338 243.854L930.275 231.601L932.691 232.18L931.394 237.589L936.892 233.187L939.675 233.854L933.715 238.719L936.913 246.149Z" fill="#1E1E1E"/>
<path d="M921.781 242.486L921.593 240.102L916.718 238.894L915.439 240.914L912.835 240.268L920.147 229.099L923.135 229.84L924.401 243.135L921.781 242.486ZM918.045 236.831L921.4 237.662L920.961 232.25L918.045 236.831Z" fill="#1E1E1E"/>
<path d="M913.031 227.311L909.9 239.516L907.494 238.899L910.035 228.995L905.728 227.891L903.188 237.794L900.781 237.177L903.912 224.972L913.031 227.311Z" fill="#1E1E1E"/>
<path d="M898.562 223.565L900.964 224.201L894.975 232.056C893.375 234.165 891.478 234.861 889.284 234.144L889.878 231.899C890.524 232.132 891.075 232.185 891.531 232.057C891.989 231.918 892.423 231.617 892.831 231.154L891.097 221.59L893.499 222.225L894.605 228.811L898.562 223.565Z" fill="#1E1E1E"/>
<path d="M877.699 229.309C876.125 230.18 874.465 230.374 872.719 229.89C870.961 229.403 869.637 228.383 868.748 226.829C867.873 225.267 867.681 223.601 868.171 221.832C868.661 220.062 869.682 218.739 871.232 217.861C872.798 216.974 874.46 216.775 876.217 217.262C877.975 217.749 879.297 218.775 880.183 220.34C881.073 221.894 881.272 223.556 880.782 225.325C880.292 227.095 879.264 228.422 877.699 229.309ZM870.882 225.664C871.417 226.61 872.246 227.238 873.368 227.548C874.489 227.859 875.523 227.747 876.468 227.212C877.428 226.669 878.068 225.819 878.388 224.662C878.709 223.506 878.597 222.447 878.054 221.488C877.51 220.528 876.684 219.894 875.573 219.586C874.463 219.279 873.428 219.397 872.468 219.94C871.508 220.484 870.868 221.333 870.548 222.49C870.227 223.646 870.339 224.705 870.882 225.664Z" fill="#1E1E1E"/>
<path d="M863.94 220.389C864.828 221.302 865.096 222.377 864.745 223.612C864.452 224.639 863.849 225.378 862.935 225.829C862.021 226.28 861.032 226.355 859.971 226.053L854.829 224.59L858.277 212.471L863.055 213.83C864.082 214.122 864.862 214.693 865.394 215.543C865.925 216.393 866.051 217.309 865.772 218.29C865.483 219.306 864.873 220.005 863.94 220.389ZM860.031 215.384L859.272 218.05L861.661 218.73C862.03 218.835 862.372 218.795 862.687 218.61C863.013 218.428 863.231 218.147 863.339 217.766C863.447 217.385 863.416 217.033 863.246 216.71C863.076 216.387 862.801 216.172 862.42 216.063L860.031 215.384ZM860.606 223.819C861.01 223.934 861.383 223.897 861.724 223.707C862.068 223.505 862.299 223.197 862.417 222.781C862.532 222.377 862.495 222.005 862.305 221.664C862.118 221.311 861.823 221.078 861.419 220.963L858.666 220.179L857.853 223.036L860.606 223.819Z" fill="#1E1E1E"/>
<path d="M855.289 211.608L854.625 213.889L851.358 212.938L848.5 222.755L846.115 222.06L848.973 212.244L845.724 211.298L846.388 209.017L855.289 211.608Z" fill="#1E1E1E"/>
<path d="M835.363 219.141C833.546 218.599 832.225 217.547 831.401 215.986C830.573 214.437 830.425 212.771 830.957 210.989C831.492 209.195 832.529 207.883 834.066 207.052C835.611 206.197 837.292 206.041 839.109 206.583C839.661 206.748 840.169 206.975 840.634 207.264C841.113 207.545 841.54 207.879 841.913 208.265C842.289 208.641 842.603 209.06 842.853 209.522C843.118 209.977 843.317 210.463 843.452 210.978L841.044 211.556C840.909 210.915 840.611 210.363 840.148 209.899C839.685 209.435 839.109 209.101 838.419 208.895C837.246 208.545 836.188 208.63 835.244 209.15C834.308 209.684 833.667 210.533 833.32 211.694C832.977 212.844 833.051 213.899 833.541 214.859C834.045 215.811 834.884 216.462 836.057 216.812C836.747 217.018 837.413 217.054 838.054 216.919C838.71 216.777 839.261 216.484 839.706 216.041L841.403 217.843C841.009 218.202 840.574 218.504 840.1 218.751C839.64 218.989 839.149 219.168 838.625 219.287C838.104 219.395 837.566 219.435 837.011 219.407C836.464 219.394 835.914 219.305 835.363 219.141Z" fill="#1E1E1E"/>
<path d="M825.989 213.577L827.28 213.972L825.879 218.55L823.503 217.823L824.209 215.517L817.548 213.479L816.842 215.785L814.467 215.058L815.868 210.48L817.038 210.838C817.985 210.124 818.734 208.866 819.285 207.064L821.028 201.367L828.98 203.8L825.989 213.577ZM823.613 212.85L825.926 205.294L822.724 204.314L821.65 207.825C821.112 209.581 820.425 210.845 819.586 211.617L823.613 212.85Z" fill="#1E1E1E"/>
<path d="M811.853 209.997C810.251 210.816 808.586 210.954 806.856 210.413C805.116 209.867 803.827 208.803 802.99 207.221C802.168 205.63 802.031 203.959 802.58 202.207C803.129 200.455 804.192 199.166 805.771 198.34C807.366 197.507 809.033 197.363 810.774 197.908C812.514 198.453 813.801 199.523 814.635 201.117C815.472 202.699 815.616 204.367 815.067 206.119C814.519 207.871 813.447 209.164 811.853 209.997ZM805.162 206.128C805.665 207.091 806.472 207.746 807.583 208.094C808.694 208.442 809.73 208.364 810.693 207.861C811.67 207.349 812.338 206.521 812.697 205.376C813.056 204.231 812.979 203.17 812.468 202.192C811.957 201.215 811.152 200.554 810.053 200.209C808.953 199.865 807.915 199.949 806.937 200.46C805.96 200.971 805.292 201.799 804.933 202.944C804.574 204.089 804.65 205.151 805.162 206.128Z" fill="#1E1E1E"/>
<path d="M798.398 200.624C799.255 201.567 799.488 202.649 799.095 203.872C798.769 204.889 798.142 205.608 797.213 206.028C796.284 206.448 795.294 206.49 794.243 206.153L789.152 204.52L793.001 192.522L797.732 194.04C798.749 194.366 799.509 194.963 800.012 195.83C800.515 196.697 800.611 197.616 800.299 198.587C799.977 199.593 799.343 200.272 798.398 200.624ZM794.657 195.492L793.811 198.131L796.176 198.89C796.541 199.007 796.885 198.979 797.205 198.804C797.537 198.634 797.764 198.36 797.885 197.983C798.006 197.606 797.986 197.253 797.827 196.925C797.668 196.596 797.4 196.372 797.023 196.251L794.657 195.492ZM794.952 203.942C795.352 204.07 795.726 204.045 796.073 203.866C796.423 203.676 796.665 203.376 796.797 202.965C796.925 202.565 796.9 202.191 796.721 201.844C796.547 201.485 796.259 201.242 795.859 201.114L793.134 200.239L792.227 203.067L794.952 203.942Z" fill="#1E1E1E"/>
<path d="M786.219 196.713C787.166 197.679 787.427 198.812 787.003 200.113C786.656 201.173 785.968 201.908 784.938 202.317C783.924 202.718 782.772 202.707 781.483 202.286C779.259 201.56 778.077 200.133 777.939 198.005L780.35 197.523C780.323 198.802 780.943 199.649 782.209 200.062C782.86 200.274 783.399 200.305 783.827 200.155C784.258 199.993 784.552 199.672 784.709 199.193C784.865 198.714 784.815 198.287 784.559 197.913C784.317 197.531 783.883 197.238 783.255 197.033L781.767 196.547L782.454 194.442L783.583 194.811C784.177 195.005 784.68 195.03 785.092 194.887C785.509 194.733 785.79 194.433 785.935 193.989C786.08 193.544 786.051 193.149 785.848 192.805C785.649 192.45 785.269 192.181 784.71 191.998C783.684 191.663 782.801 191.93 782.063 192.8L780.441 190.982C781.806 189.547 783.469 189.15 785.431 189.791C786.606 190.175 787.471 190.811 788.027 191.699C788.571 192.584 788.672 193.551 788.329 194.6C787.979 195.672 787.276 196.377 786.219 196.713Z" fill="#1E1E1E"/>
<path d="M771.696 198.797L774.118 191.503L766.571 197.095L764.777 196.5L768.749 184.542L771.106 185.325L768.678 192.636L776.231 187.027L778.025 187.622L774.053 199.58L771.696 198.797Z" fill="#1E1E1E"/>
<path d="M760.135 193.205C758.515 193.986 756.847 194.087 755.13 193.505C753.403 192.92 752.139 191.827 751.338 190.225C750.553 188.616 750.455 186.942 751.044 185.203C751.633 183.464 752.726 182.2 754.324 181.411C755.937 180.614 757.607 180.509 759.335 181.094C761.062 181.679 762.324 182.778 763.121 184.391C763.921 185.992 764.027 187.663 763.438 189.402C762.849 191.141 761.748 192.408 760.135 193.205ZM753.535 189.183C754.016 190.157 754.808 190.83 755.91 191.204C757.013 191.577 758.051 191.523 759.024 191.042C760.013 190.554 760.7 189.741 761.085 188.605C761.47 187.468 761.419 186.405 760.93 185.416C760.442 184.427 759.652 183.748 758.561 183.378C757.47 183.009 756.43 183.068 755.441 183.557C754.452 184.045 753.765 184.858 753.38 185.994C752.995 187.131 753.046 188.194 753.535 189.183Z" fill="#1E1E1E"/>
<path d="M746.459 176.962C747.594 177.353 748.425 178.071 748.953 179.116C749.47 180.158 749.535 181.24 749.147 182.363C748.756 183.497 748.038 184.31 746.993 184.8C745.933 185.297 744.836 185.351 743.701 184.959L741.608 184.238L740.259 188.152L737.91 187.342L742.018 175.43L746.459 176.962ZM744.458 182.764C744.708 182.85 744.956 182.885 745.203 182.869C745.45 182.852 745.674 182.79 745.877 182.682C746.094 182.567 746.28 182.415 746.433 182.227C746.599 182.043 746.726 181.82 746.816 181.559C746.996 181.037 746.98 180.549 746.769 180.096C746.568 179.646 746.213 179.333 745.702 179.157L743.609 178.435L742.365 182.043L744.458 182.764Z" fill="#1E1E1E"/>
<path d="M738.16 174.085L733.996 185.977L731.652 185.156L735.031 175.507L730.834 174.037L727.455 183.687L725.111 182.866L729.275 170.974L738.16 174.085Z" fill="#1E1E1E"/>
<path d="M710.915 172.346C710.532 172.528 710.143 172.55 709.747 172.409C709.351 172.269 709.062 172.007 708.879 171.624C708.696 171.241 708.675 170.852 708.816 170.456C708.956 170.06 709.218 169.771 709.601 169.588C709.984 169.406 710.373 169.385 710.769 169.525C711.165 169.665 711.454 169.927 711.636 170.31C711.819 170.693 711.84 171.082 711.7 171.478C711.56 171.874 711.298 172.163 710.915 172.346Z" fill="#1E1E1E"/>
<path d="M692.984 158.152L695.332 158.964L691.218 170.873L688.87 170.062L690.374 165.706C689.531 165.758 688.701 165.643 687.885 165.36C686.694 164.949 685.817 164.271 685.254 163.328C684.718 162.381 684.65 161.329 685.05 160.172L686.519 155.919L688.867 156.73L687.503 160.677C687.303 161.255 687.313 161.76 687.532 162.192C687.763 162.627 688.156 162.94 688.712 163.132C689.517 163.41 690.334 163.509 691.162 163.426L692.984 158.152Z" fill="#1E1E1E"/>
<path d="M666.791 162.527L670.838 150.595L673.19 151.393L671.86 155.313L673.957 156.025C675.094 156.41 675.928 157.124 676.462 158.166C676.984 159.205 677.054 160.287 676.673 161.412C676.287 162.549 675.573 163.364 674.531 163.86C673.473 164.363 672.376 164.422 671.24 164.036L666.791 162.527ZM676.405 165.788L680.452 153.856L682.787 154.648L678.74 166.58L676.405 165.788ZM669.889 161.126L671.986 161.837C672.497 162.011 672.97 161.981 673.404 161.748C673.849 161.519 674.16 161.143 674.337 160.62C674.515 160.097 674.496 159.61 674.282 159.157C674.08 158.708 673.723 158.397 673.211 158.223L671.115 157.512L669.889 161.126Z" fill="#1E1E1E"/>
<path d="M663.919 161.566L661.203 160.665L658.793 153.643L656.932 159.247L654.575 158.464L658.545 146.506L660.902 147.288L659.15 152.567L665.002 148.65L667.718 149.551L661.366 153.891L663.919 161.566Z" fill="#1E1E1E"/>
<path d="M649.135 156.685L649.118 154.295L644.343 152.74L642.922 154.662L640.372 153.832L648.467 143.217L651.393 144.17L651.702 157.522L649.135 156.685ZM645.815 150.777L649.101 151.847L649.052 146.417L645.815 150.777Z" fill="#1E1E1E"/>
<path d="M641.287 140.904L637.484 152.917L635.116 152.167L638.202 142.42L633.963 141.078L630.877 150.825L628.509 150.075L632.312 138.063L641.287 140.904Z" fill="#1E1E1E"/>
<path d="M619.603 147.3L616.867 146.46L614.297 139.496L612.565 145.14L610.19 144.412L613.886 132.366L616.261 133.095L614.629 138.412L620.391 134.362L623.127 135.201L616.875 139.685L619.603 147.3Z" fill="#1E1E1E"/>
<path d="M604.708 142.768L604.632 140.378L599.819 138.943L598.446 140.901L595.876 140.135L603.702 129.32L606.652 130.199L607.296 143.539L604.708 142.768ZM601.241 136.944L604.553 137.932L604.368 132.505L601.241 136.944Z" fill="#1E1E1E"/>
<path d="M596.482 127.189L592.967 139.289L590.581 138.596L593.434 128.778L589.165 127.537L586.312 137.355L583.927 136.662L587.442 124.563L596.482 127.189Z" fill="#1E1E1E"/>
<path d="M569.047 127.089C568.677 127.298 568.29 127.347 567.886 127.235C567.481 127.123 567.174 126.882 566.965 126.513C566.756 126.144 566.707 125.757 566.819 125.352C566.931 124.947 567.171 124.64 567.54 124.431C567.91 124.222 568.297 124.173 568.701 124.285C569.106 124.397 569.413 124.638 569.622 125.007C569.832 125.376 569.88 125.763 569.768 126.168C569.656 126.573 569.416 126.88 569.047 127.089Z" fill="#1E1E1E"/>
<path d="M546.87 126.457L548.823 119.023L541.647 125.085L539.819 124.605L543.021 112.418L545.424 113.049L543.466 120.501L550.647 114.422L552.474 114.902L549.272 127.088L546.87 126.457Z" fill="#1E1E1E"/>
<path d="M533.404 122.966L535.295 115.517L528.17 121.638L526.338 121.173L529.437 108.96L531.845 109.571L529.95 117.039L537.079 110.9L538.911 111.365L535.812 123.577L533.404 122.966Z" fill="#1E1E1E"/>
<path d="M522.228 117.713L523.539 118.033L522.403 122.684L519.99 122.095L520.562 119.752L512.519 117.787L515.508 105.547L517.921 106.137L515.496 116.069L519.815 117.123L522.24 107.191L524.653 107.781L522.228 117.713Z" fill="#1E1E1E"/>
<path d="M509.573 117.086L506.786 116.434L503.75 109.66L502.405 115.409L499.986 114.843L502.858 102.574L505.276 103.14L504.009 108.556L509.482 104.125L512.269 104.777L506.335 109.673L509.573 117.086Z" fill="#1E1E1E"/>
<path d="M497.258 101.306L499.682 101.85L493.995 109.926C492.475 112.094 490.605 112.861 488.386 112.228L488.895 109.962C489.549 110.171 490.102 110.202 490.552 110.057C491.006 109.901 491.427 109.584 491.818 109.105L489.724 99.6144L492.147 100.158L493.502 106.698L497.258 101.306Z" fill="#1E1E1E"/>
<path d="M484.002 108.837L485.322 109.121L484.315 113.802L481.886 113.279L482.394 110.921L475.584 109.455L475.076 111.813L472.648 111.291L473.655 106.61L474.852 106.867C475.734 106.075 476.374 104.758 476.77 102.917L478.024 97.0919L486.154 98.8417L484.002 108.837ZM481.574 108.314L483.237 100.589L479.964 99.8846L479.191 103.474C478.805 105.269 478.227 106.587 477.456 107.428L481.574 108.314Z" fill="#1E1E1E"/>
<path d="M469.573 106.526C468.063 107.504 466.42 107.811 464.645 107.448C462.858 107.083 461.467 106.156 460.473 104.667C459.493 103.169 459.187 101.52 459.555 99.7213C459.922 97.9224 460.849 96.5319 462.336 95.5495C463.837 94.5579 465.481 94.2446 467.268 94.6096C469.055 94.9747 470.444 95.9077 471.436 97.4085C472.43 98.8976 472.743 100.542 472.376 102.34C472.008 104.139 471.074 105.535 469.573 106.526ZM462.523 103.359C463.121 104.265 463.991 104.835 465.131 105.068C466.272 105.301 467.295 105.118 468.201 104.519C469.122 103.911 469.702 103.019 469.942 101.843C470.182 100.668 469.998 99.6195 469.39 98.6992C468.782 97.7788 467.914 97.2034 466.785 96.9728C465.656 96.7423 464.632 96.931 463.712 97.5391C462.791 98.1472 462.211 99.0391 461.971 100.215C461.731 101.391 461.915 102.439 462.523 103.359Z" fill="#1E1E1E"/>
<path d="M453.756 92.1787C454.934 92.4061 455.858 93.0001 456.529 93.9605C457.187 94.9186 457.403 95.981 457.178 97.1474C456.951 98.3257 456.354 99.231 455.389 99.8635C454.41 100.506 453.331 100.713 452.152 100.485L449.979 100.066L449.194 104.131L446.755 103.66L449.143 91.2882L453.756 92.1787ZM452.593 98.2054C452.852 98.2555 453.102 98.255 453.344 98.2039C453.587 98.1529 453.8 98.0596 453.985 97.9243C454.184 97.7794 454.347 97.603 454.472 97.395C454.61 97.1893 454.705 96.951 454.757 96.68C454.862 96.138 454.777 95.6573 454.504 95.2379C454.242 94.8207 453.846 94.5609 453.316 94.4586L451.142 94.0389L450.419 97.7858L452.593 98.2054Z" fill="#1E1E1E"/>
<path d="M444.945 90.5083L442.679 102.903L440.236 102.456L442.074 92.3987L437.701 91.5991L435.862 101.656L433.419 101.21L435.685 88.8151L444.945 90.5083Z" fill="#1E1E1E"/>
<path d="M417.986 84.6175L418.316 82.6288L423.466 83.484L423.135 85.4728L417.986 84.6175ZM420.687 99.0065L421.946 91.4244L415.36 98.1218L413.495 97.8121L415.56 85.3824L418.01 85.7894L416.748 93.3893L423.337 86.6741L425.202 86.9837L423.137 99.4135L420.687 99.0065Z" fill="#1E1E1E"/>
<path d="M408.354 95.3541C406.894 96.4056 405.269 96.7945 403.478 96.5207C401.675 96.2451 400.24 95.3884 399.173 93.9507C398.119 92.5029 397.731 90.8716 398.009 89.0567C398.286 87.2417 399.143 85.8067 400.579 84.7516C402.028 83.6864 403.655 83.2916 405.458 83.5672C407.261 83.8428 408.695 84.7054 409.76 86.1549C410.827 87.5927 411.222 89.219 410.945 91.0339C410.667 92.8488 409.804 94.2889 408.354 95.3541ZM401.154 92.5419C401.797 93.4172 402.694 93.9427 403.845 94.1186C404.996 94.2945 406.009 94.0609 406.884 93.4177C407.773 92.7645 408.308 91.8448 408.489 90.6586C408.67 89.4724 408.435 88.4348 407.781 87.5459C407.128 86.657 406.232 86.1255 405.093 85.9515C403.955 85.7774 402.941 86.017 402.052 86.6701C401.163 87.3233 400.628 88.243 400.447 89.4293C400.265 90.6155 400.501 91.653 401.154 92.5419Z" fill="#1E1E1E"/>
<path d="M392.827 81.9641L395.269 82.3049L393.528 94.784L391.085 94.4431L391.807 89.2732L387.172 88.6264L386.45 93.7963L383.99 93.4529L385.732 80.9739L388.192 81.3172L387.5 86.2732L392.135 86.92L392.827 81.9641Z" fill="#1E1E1E"/>
<path d="M379.014 80.1043L381.478 80.4176L379.888 92.917L377.424 92.6036L378.006 88.0325C377.191 88.2555 376.355 88.3125 375.498 88.2035C374.248 88.0445 373.251 87.5609 372.507 86.7526C371.788 85.9354 371.506 84.9197 371.661 83.7055L372.228 79.2415L374.693 79.5548L374.166 83.6974C374.089 84.3046 374.201 84.7967 374.504 85.1739C374.819 85.5527 375.268 85.7791 375.851 85.8533C376.696 85.9608 377.516 85.8896 378.31 85.6397L379.014 80.1043Z" fill="#1E1E1E"/>
<path d="M365.865 89.5418C364.448 90.6501 362.839 91.1029 361.039 90.9001C359.226 90.696 357.758 89.8967 356.635 88.5022C355.526 87.0972 355.074 85.4824 355.279 83.658C355.485 81.8335 356.284 80.3658 357.677 79.2547C359.083 78.1331 360.693 77.6743 362.505 77.8785C364.318 78.0826 365.785 78.8879 366.907 80.2942C368.03 81.6887 368.488 83.2981 368.283 85.1226C368.077 86.9471 367.271 88.4201 365.865 89.5418ZM358.56 87.0163C359.237 87.8654 360.154 88.3551 361.311 88.4854C362.467 88.6157 363.47 88.3422 364.319 87.665C365.182 86.9772 365.68 86.037 365.814 84.8446C365.949 83.6521 365.672 82.6247 364.984 81.7623C364.296 80.8999 363.38 80.4042 362.235 80.2753C361.091 80.1464 360.087 80.4258 359.225 81.1136C358.362 81.8014 357.864 82.7415 357.73 83.934C357.595 85.1264 357.872 86.1539 358.56 87.0163Z" fill="#1E1E1E"/>
<path d="M350.733 82.9638C351.769 83.7055 352.223 84.7153 352.097 85.993C351.991 87.0558 351.529 87.8903 350.709 88.4964C349.889 89.1025 348.93 89.3511 347.832 89.2423L342.512 88.7151L343.754 76.1765L348.698 76.6664C349.761 76.7717 350.629 77.1954 351.303 77.9375C351.977 78.6796 352.264 79.5582 352.164 80.5732C352.059 81.624 351.583 82.4209 350.733 82.9638ZM345.997 78.7321L345.724 81.4906L348.196 81.7356C348.578 81.7734 348.907 81.6734 349.184 81.4356C349.473 81.1989 349.637 80.8835 349.676 80.4895C349.715 80.0954 349.622 79.7546 349.397 79.467C349.172 79.1794 348.863 79.0161 348.469 78.9771L345.997 78.7321ZM348.061 86.9316C348.478 86.973 348.838 86.87 349.14 86.6226C349.443 86.3632 349.616 86.0185 349.659 85.5886C349.7 85.1707 349.597 84.8108 349.35 84.5089C349.103 84.1951 348.771 84.0175 348.353 83.9761L345.505 83.6938L345.213 86.6494L348.061 86.9316Z" fill="#1E1E1E"/>
<path d="M337.217 86.6076C335.831 87.7552 334.236 88.2529 332.43 88.1006C330.613 87.9473 329.123 87.1894 327.962 85.827C326.813 84.4536 326.316 82.8521 326.47 81.0226C326.624 79.1931 327.382 77.7036 328.744 76.5539C330.118 75.3933 331.714 74.8896 333.532 75.0429C335.349 75.1962 336.838 75.9601 337.999 77.3345C339.16 78.6969 339.664 80.2929 339.51 82.1224C339.356 83.9519 338.591 85.447 337.217 86.6076ZM329.844 84.2877C330.544 85.1175 331.475 85.5814 332.635 85.6792C333.794 85.777 334.789 85.4755 335.619 84.7748C336.462 84.0631 336.934 83.1094 337.035 81.9136C337.135 80.7179 336.83 79.6986 336.118 78.8558C335.407 78.013 334.477 77.5432 333.329 77.4464C332.181 77.3496 331.186 77.657 330.343 78.3687C329.5 79.0804 329.028 80.0341 328.927 81.2299C328.827 82.4256 329.132 83.4449 329.844 84.2877Z" fill="#1E1E1E"/>
<path d="M324.565 87.1959L321.71 86.9972L317.63 80.7951L317.221 86.6849L314.743 86.5125L315.617 73.9429L318.095 74.1153L317.709 79.6639L322.405 74.4151L325.26 74.6138L320.184 80.3954L324.565 87.1959Z" fill="#1E1E1E"/>
<path d="M309.029 86.177L308.401 83.8703L303.387 83.5898L302.506 85.8121L299.828 85.6623L304.935 73.3282L308.008 73.5002L311.725 86.3278L309.029 86.177ZM304.308 81.3157L307.758 81.5087L306.32 76.2722L304.308 81.3157Z" fill="#1E1E1E"/>
<path d="M297.314 72.9484L296.801 85.5379L294.319 85.4367L294.735 75.2212L290.293 75.04L289.876 85.2555L287.394 85.1542L287.908 72.5647L297.314 72.9484Z" fill="#1E1E1E"/>
<path d="M282.092 72.3969L284.575 72.4603L280.563 81.4868C279.493 83.9083 277.808 85.0237 275.508 84.8329L275.568 82.5117C276.25 82.5891 276.798 82.5131 277.212 82.2836C277.626 82.0421 277.978 81.6489 278.268 81.1042L274.372 72.1998L276.856 72.2632L279.453 78.4155L282.092 72.3969Z" fill="#1E1E1E"/>
<path d="M263.056 83.0723C261.77 84.3308 260.221 84.9591 258.409 84.957C256.585 84.955 255.038 84.3232 253.768 83.0618C252.509 81.7884 251.881 80.2337 251.883 78.3977C251.885 76.5617 252.517 75.0144 253.778 73.7558C255.052 72.4852 256.6 71.851 258.424 71.853C260.248 71.8551 261.796 72.4928 263.066 73.7663C264.337 75.0277 264.971 76.5764 264.969 78.4124C264.967 80.2484 264.329 81.8017 263.056 83.0723ZM255.516 81.3718C256.283 82.1406 257.248 82.5257 258.412 82.527C259.576 82.5283 260.543 82.1454 261.312 81.3783C262.092 80.5992 262.484 79.6096 262.485 78.4096C262.486 77.2096 262.097 76.2192 261.318 75.4383C260.539 74.6574 259.574 74.2663 258.422 74.265C257.27 74.2637 256.303 74.6526 255.522 75.4318C254.741 76.2109 254.35 77.2004 254.349 78.4004C254.348 79.6004 254.736 80.5909 255.516 81.3718Z" fill="#1E1E1E"/>
<path d="M247.252 78.2339C248.367 78.8501 248.936 79.8001 248.959 81.0839C248.978 82.1517 248.615 83.0343 247.872 83.7317C247.128 84.4291 246.204 84.7876 245.1 84.8073L239.755 84.9026L239.531 72.3046L244.498 72.216C245.566 72.197 246.477 72.5168 247.233 73.1754C247.989 73.834 248.376 74.6733 248.394 75.6931C248.413 76.7489 248.032 77.5959 247.252 78.2339ZM242.056 74.5819L242.105 77.3535L244.589 77.3092C244.973 77.3024 245.288 77.1647 245.535 76.8963C245.795 76.6276 245.921 76.2953 245.914 75.8994C245.907 75.5034 245.775 75.1757 245.518 74.9163C245.261 74.6568 244.935 74.5306 244.539 74.5376L242.056 74.5819ZM245.059 82.4856C245.479 82.4782 245.824 82.334 246.095 82.0531C246.366 81.7602 246.498 81.3978 246.49 80.9659C246.483 80.5459 246.338 80.2005 246.058 79.9294C245.776 79.6464 245.426 79.5086 245.006 79.5161L242.144 79.5671L242.197 82.5367L245.059 82.4856Z" fill="#1E1E1E"/>
<path d="M236.145 72.3987L236.225 74.7733L232.825 74.8881L233.17 85.1063L230.687 85.1901L230.342 74.9719L226.96 75.0861L226.88 72.7114L236.145 72.3987Z" fill="#1E1E1E"/>
<path d="M219.574 85.9515C217.68 86.0492 216.084 85.5008 214.784 84.3061C213.486 83.1235 212.788 81.6034 212.693 79.7459C212.596 77.8764 213.133 76.2926 214.304 74.9945C215.473 73.6725 217.005 72.9626 218.898 72.8649C219.473 72.8352 220.028 72.8786 220.563 72.9952C221.109 73.0992 221.623 73.271 222.104 73.5105C222.584 73.738 223.019 74.028 223.41 74.3803C223.812 74.72 224.163 75.1105 224.462 75.5516L222.387 76.9024C222.046 76.3433 221.579 75.9227 220.988 75.6408C220.397 75.3589 219.741 75.2366 219.022 75.2737C217.8 75.3368 216.831 75.7713 216.116 76.5772C215.413 77.3946 215.093 78.4084 215.155 79.6188C215.217 80.8172 215.64 81.7867 216.423 82.5273C217.217 83.2553 218.226 83.5878 219.448 83.5247C220.167 83.4876 220.806 83.2984 221.366 82.9571C221.936 82.6032 222.357 82.1429 222.628 81.5762L224.831 82.7061C224.579 83.1757 224.271 83.6062 223.907 83.9975C223.554 84.3762 223.15 84.7094 222.697 84.9972C222.242 85.273 221.749 85.4907 221.216 85.6504C220.696 85.8214 220.149 85.9218 219.574 85.9515Z" fill="#1E1E1E"/>
<path d="M208.823 83.9386L210.169 83.8443L210.504 88.6206L208.026 88.7942L207.858 86.3881L200.909 86.8749L201.077 89.281L198.599 89.4546L198.265 84.6783L199.486 84.5928C200.113 83.5865 200.361 82.1437 200.229 80.2643L199.813 74.3208L208.108 73.7396L208.823 83.9386ZM206.345 84.1122L205.793 76.2296L202.453 76.4635L202.709 80.1266C202.838 81.9581 202.649 83.3848 202.143 84.4066L206.345 84.1122Z" fill="#1E1E1E"/>
<path d="M194.306 85.7782C193.143 87.1508 191.659 87.9203 189.855 88.0868C188.039 88.2543 186.439 87.7692 185.057 86.6314C183.686 85.4805 182.916 83.9909 182.747 82.1627C182.578 80.3344 183.063 78.7351 184.202 77.3647C185.352 75.9812 186.835 75.2057 188.651 75.0382C190.468 74.8706 192.068 75.3618 193.451 76.5115C194.833 77.6494 195.609 79.1324 195.778 80.9607C195.946 82.7889 195.456 84.3947 194.306 85.7782ZM186.64 84.7861C187.476 85.4803 188.473 85.774 189.632 85.6671C190.791 85.5601 191.718 85.089 192.412 84.2537C193.117 83.4054 193.414 82.3837 193.304 81.1888C193.194 79.9939 192.715 79.0439 191.866 78.3388C191.018 77.6338 190.02 77.3342 188.873 77.44C187.726 77.5458 186.8 78.0229 186.095 78.8712C185.39 79.7196 185.092 80.7412 185.202 81.9362C185.313 83.1311 185.792 84.0811 186.64 84.7861Z" fill="#1E1E1E"/>
<path d="M178.115 82.4345C179.283 82.9433 179.939 83.8356 180.082 85.1116C180.201 86.1729 179.923 87.0857 179.249 87.8498C178.574 88.6139 177.688 89.0577 176.591 89.1809L171.278 89.7779L169.871 77.2567L174.808 76.7019C175.869 76.5827 176.807 76.8154 177.621 77.4001C178.436 77.9849 178.9 78.784 179.014 79.7976C179.132 80.847 178.832 81.726 178.115 82.4345ZM172.599 79.2868L172.908 82.0415L175.377 81.7641C175.758 81.7212 176.06 81.5545 176.281 81.264C176.513 80.9722 176.608 80.6295 176.564 80.236C176.519 79.8425 176.357 79.5286 176.077 79.2944C175.797 79.0602 175.461 78.9652 175.067 79.0094L172.599 79.2868ZM176.331 86.8735C176.749 86.8266 177.079 86.6506 177.322 86.3455C177.565 86.0284 177.662 85.6553 177.613 85.226C177.566 84.8086 177.39 84.4782 177.085 84.2347C176.779 83.9794 176.417 83.8751 176 83.922L173.155 84.2416L173.487 87.193L176.331 86.8735Z" fill="#1E1E1E"/>
<path d="M165.266 83.9688C166.537 84.4327 167.26 85.3429 167.437 86.6994C167.581 87.8061 167.276 88.7654 166.523 89.5775C165.78 90.3761 164.736 90.863 163.391 91.038C161.071 91.3401 159.39 90.5606 158.349 88.6994L160.318 87.227C160.845 88.3927 161.768 88.8896 163.089 88.7176C163.768 88.6293 164.267 88.4251 164.589 88.1049C164.909 87.7728 165.036 87.3569 164.971 86.8571C164.906 86.3574 164.677 85.9939 164.284 85.7666C163.902 85.526 163.384 85.4483 162.729 85.5335L161.176 85.7356L160.89 83.5402L162.069 83.3868C162.687 83.3062 163.152 83.1126 163.463 82.8059C163.773 82.4873 163.897 82.0959 163.837 81.6318C163.776 81.1677 163.58 80.8242 163.249 80.6011C162.916 80.3661 162.457 80.2866 161.874 80.3625C160.803 80.502 160.122 81.1232 159.83 82.2261L157.584 81.2842C158.198 79.4012 159.528 78.3264 161.575 78.06C162.8 77.9004 163.855 78.1019 164.739 78.6645C165.611 79.2286 166.119 80.0581 166.261 81.1528C166.407 82.2714 166.075 83.21 165.266 83.9688Z" fill="#1E1E1E"/>
<path d="M153.074 92.2324L151.932 84.6317L147.734 93.0348L145.865 93.3156L143.993 80.8554L146.449 80.4864L147.594 88.1048L151.789 79.684L153.658 79.4032L155.53 91.8633L153.074 92.2324Z" fill="#1E1E1E"/>
<path d="M140.207 92.6083C139.158 94.0693 137.74 94.9548 135.955 95.2647C134.158 95.5767 132.525 95.2207 131.056 94.1969C129.597 93.1591 128.711 91.7358 128.397 89.9268C128.083 88.1179 128.439 86.4849 129.465 85.028C130.5 83.5572 131.917 82.6658 133.714 82.3538C135.511 82.0418 137.145 82.4037 138.616 83.4394C140.085 84.4633 140.976 85.8797 141.29 87.6886C141.604 89.4976 141.243 91.1375 140.207 92.6083ZM132.487 92.2312C133.375 92.8565 134.393 93.0696 135.54 92.8705C136.686 92.6714 137.572 92.1279 138.198 91.2398C138.833 90.3379 139.048 89.2958 138.843 88.1135C138.637 86.9312 138.084 86.0225 137.182 85.3874C136.28 84.7523 135.261 84.5332 134.126 84.7303C132.991 84.9273 132.106 85.4768 131.471 86.3787C130.836 87.2806 130.621 88.3227 130.826 89.505C131.032 90.6874 131.585 91.5961 132.487 92.2312Z" fill="#1E1E1E"/>
<path d="M120.118 85.119C121.296 84.8875 122.375 85.091 123.357 85.7296C124.327 86.3705 124.926 87.2738 125.156 88.4395C125.387 89.6169 125.174 90.68 124.517 91.6286C123.85 92.5914 122.928 93.1885 121.751 93.4201L119.578 93.8473L120.377 97.9095L117.94 98.3888L115.509 86.0255L120.118 85.119ZM121.303 91.1417C121.562 91.0907 121.794 90.9962 121.999 90.858C122.204 90.7198 122.367 90.5532 122.488 90.3583C122.618 90.1493 122.702 89.9248 122.741 89.6849C122.791 89.4426 122.789 89.1861 122.736 88.9153C122.629 88.3737 122.371 87.9598 121.96 87.6737C121.561 87.3853 121.096 87.2932 120.566 87.3974L118.394 87.8246L119.13 91.5689L121.303 91.1417Z" fill="#1E1E1E"/>
<path d="M111.196 86.9396L113.885 99.2494L111.458 99.7794L109.276 89.7909L104.933 90.7396L107.114 100.728L104.688 101.258L101.999 88.9483L111.196 86.9396Z" fill="#1E1E1E"/>
<path d="M86.9724 100.21C86.7569 100.575 86.4458 100.81 86.0391 100.915C85.6325 101.02 85.2464 100.965 84.8809 100.75C84.5155 100.534 84.2802 100.223 84.1753 99.8164C84.0703 99.4098 84.1256 99.0237 84.3411 98.6582C84.5566 98.2928 84.8676 98.0576 85.2743 97.9526C85.681 97.8476 86.067 97.9029 86.4325 98.1184C86.798 98.3339 87.0332 98.6449 87.1382 99.0516C87.2431 99.4583 87.1879 99.8443 86.9724 100.21Z" fill="#1E1E1E"/>
<path d="M63.9252 98.8549L66.3072 98.1505L69.88 110.233L67.498 110.938L66.1913 106.519C65.5352 107.051 64.7929 107.439 63.9644 107.684C62.7561 108.041 61.6488 108 60.6425 107.559C59.6559 107.1 58.989 106.283 58.6419 105.11L57.3659 100.794L59.748 100.09L60.9321 104.095C61.1056 104.682 61.4069 105.087 61.8359 105.31C62.2764 105.53 62.7785 105.557 63.3424 105.39C64.1594 105.149 64.8811 104.754 65.5074 104.206L63.9252 98.8549Z" fill="#1E1E1E"/>
<path d="M45.2349 117.901L41.3805 105.905L43.7454 105.145L45.0118 109.087L47.1197 108.409C48.2622 108.042 49.3581 108.119 50.4074 108.639C51.4454 109.162 52.146 109.99 52.5095 111.121C52.8765 112.263 52.7889 113.344 52.2465 114.362C51.6964 115.396 50.8501 116.097 49.7076 116.464L45.2349 117.901ZM54.9002 114.795L51.0458 102.799L53.3936 102.045L57.248 114.041L54.9002 114.795ZM46.8895 114.93L48.9973 114.253C49.5115 114.088 49.8734 113.783 50.0832 113.337C50.3044 112.888 50.3305 112.4 50.1617 111.875C49.9928 111.349 49.6877 110.968 49.2462 110.732C48.8162 110.492 48.3441 110.455 47.83 110.62L45.7221 111.297L46.8895 114.93Z" fill="#1E1E1E"/>
<path d="M42.3653 118.867L39.6609 119.804L33.4764 115.698L35.4088 121.276L33.0616 122.089L28.9376 110.183L31.2848 109.37L33.1053 114.626L35.3669 107.957L38.0712 107.02L35.6691 114.329L42.3653 118.867Z" fill="#1E1E1E"/>
<path d="M27.6887 124.06L26.1894 122.198L21.4825 123.949L21.5648 126.338L19.0511 127.273L18.791 113.926L21.6758 112.853L30.2193 123.119L27.6887 124.06ZM21.4152 121.497L24.6543 120.292L21.2398 116.069L21.4152 121.497Z" fill="#1E1E1E"/>
<path d="M11.6017 116.668L16.2333 128.386L13.9232 129.299L10.1649 119.791L6.03024 121.425L9.78848 130.933L7.47839 131.847L2.84674 120.129L11.6017 116.668Z" fill="#1E1E1E"/>
</svg>
