<svg width="82" height="82" viewBox="0 0 82 82" fill="none" xmlns="http://www.w3.org/2000/svg">
<path d="M41.2011 0C54.7728 0.000151469 65.8173 11.0454 65.8173 24.6172V33.1846H65.9853C69.5663 33.1848 72.4783 36.0967 72.4785 39.6777V75.5068C72.4785 79.0879 69.5663 81.9998 65.9853 82H15.998C12.4169 81.9998 9.50567 79.0879 9.5224 75.5068V39.6777C9.52252 36.0966 12.4344 33.1846 16.0156 33.1846H16.5839V24.6172C16.5839 11.0454 27.6293 0 41.2011 0ZM34.3251 45V56.0713H31.9999V61.75H34.3251V63.1787H31.9999V66.7139H34.3251V70H40.7294V66.7139H48.0634V63.1787H40.7294V61.75H44.0566C46.6321 61.7499 48.7667 61.0121 50.4599 59.5361C52.1533 58.0361 52.9999 55.9878 52.9999 53.3926C52.9999 50.9403 52.1409 48.9288 50.4238 47.3574C48.7067 45.7861 46.5845 45.0001 44.0566 45H34.3251ZM44.0566 51.0713C44.7958 51.0714 45.4039 51.2977 45.8808 51.75C46.3578 52.2024 46.5966 52.8095 46.5966 53.5713C46.5966 54.3331 46.3577 54.9402 45.8808 55.3926C45.4039 55.8449 44.7958 56.0712 44.0566 56.0713H40.7294V51.0713H44.0566ZM41.2011 10.7607C33.5534 10.7607 27.3447 16.9862 27.3447 24.6172V33.1846H55.0576V24.6172C55.0576 16.9695 48.832 10.7609 41.2011 10.7607Z" fill="#FFD600"/>
</svg>
