<svg width="84" height="82" viewBox="0 0 84 82" fill="none" xmlns="http://www.w3.org/2000/svg">
<path d="M66.8949 42.9466L35.6556 73.4421C35.2915 73.7975 34.8928 74.1359 34.4767 74.4405C34.9968 74.5759 35.5342 74.6436 36.089 74.6436H65.456C69.0098 74.6436 71.9049 71.8175 71.9049 68.3482V42.7097C70.5181 42.6251 69.0965 42.4558 67.623 42.1851C67.3976 42.4389 67.1549 42.6928 66.8949 42.9466Z" fill="#FFD600"/>
<path d="M80.1048 22.9773C80.0528 22.9265 80.0008 22.8757 79.9488 22.8249C77.0537 19.9988 72.8411 17.3926 68.0564 15.4465C67.1896 15.0911 66.3054 14.7695 65.4213 14.4818V14.4311C65.3693 10.6911 62.2835 7.67874 58.4523 7.62797L39.7295 7.3572C37.2505 7.32335 34.8581 8.27105 33.1072 9.98029L1.88528 40.4927C-0.628426 42.9465 -0.628426 46.9404 1.88528 49.3943L22.6537 69.6682C25.1674 72.122 29.2586 72.122 31.7723 69.6682L63.0289 39.1558C63.9304 38.2758 64.6065 37.2434 65.0746 36.1096C68.2124 36.9727 71.2635 37.4296 73.9506 37.4127C80.6075 37.3788 82.8092 34.5357 83.5373 32.8434C84.2481 31.1511 84.7682 27.6142 80.1048 22.9773ZM41.4284 40.2896C40.7003 40.6788 39.9549 41.1019 39.2094 41.4742C38.4987 41.8296 38.256 41.745 37.9959 41.0004C37.4585 39.5112 36.5917 38.2419 35.3955 37.1927C35.0835 36.9219 34.7541 36.6681 34.3554 36.5158C32.9338 35.9742 31.6857 36.8711 31.859 38.3604C31.9457 39.105 32.1884 39.8158 32.4831 40.5096C32.9859 41.7112 33.5233 42.9127 33.8873 44.165C35.0662 48.1589 32.4658 52.085 28.3572 52.4743C26.8663 52.6097 25.4447 52.305 24.1446 51.5773C23.5725 51.2558 23.1391 51.2896 22.7057 51.7635C22.2723 52.2204 21.7869 52.6435 21.3361 53.0835C20.9374 53.4727 20.504 53.4897 20.1053 53.1004C19.6026 52.6435 19.1171 52.1527 18.6317 51.6789C18.2157 51.2558 18.2504 50.8158 18.6664 50.4096C18.9958 50.0881 19.3252 49.7496 19.6546 49.4281C20.3827 48.7004 20.3827 48.6496 19.7932 47.8542C19.0305 46.8389 18.3544 45.7727 17.9383 44.5712C17.6089 43.6404 17.6956 43.4035 18.5624 42.9296C19.2038 42.5742 19.8453 42.2188 20.504 41.8804C21.2668 41.4912 21.4922 41.5758 21.7522 42.3712C22.1856 43.725 22.8964 44.9265 23.7805 46.0435C24.3526 46.7712 25.0634 47.3127 25.9302 47.6512C27.5597 48.2773 29.0506 47.1604 28.8773 45.4681C28.8252 44.8927 28.6519 44.3342 28.4265 43.7927C27.8718 42.405 27.161 41.0681 26.7969 39.5958C26.1902 37.2265 26.4676 35.0604 28.4265 33.368C30.6455 31.4557 33.1245 31.3373 35.7423 32.5219C36.8171 33.0127 36.8171 33.0296 37.6492 32.2173C37.9266 31.9465 38.204 31.6757 38.4987 31.405C39.1401 30.8127 39.3481 30.8127 39.9896 31.405C40.1802 31.5911 40.3709 31.7773 40.5616 31.9634C41.8792 33.2496 41.8792 33.2496 40.5616 34.5527C39.6255 35.4665 39.6255 35.4665 40.4056 36.5158C41.0124 37.3281 41.4804 38.1911 41.8445 39.1219C42.0352 39.6296 41.9312 40.0188 41.4284 40.2896ZM78.5099 30.8127C77.9205 32.1834 71.6275 33.385 62.0755 29.4927C59.2671 28.3588 56.6667 26.9373 54.5344 25.4142C54.465 25.4988 54.3783 25.5834 54.309 25.668C52.2287 27.6988 48.8309 27.6988 46.7505 25.668C44.6702 23.6373 44.6702 20.3203 46.7505 18.2895C48.8309 16.2588 52.2287 16.2588 54.309 18.2895C55.5572 19.508 56.0426 21.1665 55.8172 22.7403C57.8629 24.1619 60.3246 25.465 62.9423 26.5311C63.8784 26.9034 64.7625 27.2419 65.6293 27.5296L65.5253 20.1849C65.6813 20.2526 65.82 20.3034 65.9761 20.3711C70.0673 22.0296 73.7425 24.2973 76.1175 26.6157C76.1522 26.6496 76.1869 26.6834 76.2215 26.7173C78.4752 28.9342 78.7006 30.3557 78.5099 30.8127Z" fill="#FFD600"/>
<path d="M9.50001 46.5C8.30001 41.3 27.3333 27 37 20.5C41.8333 24 51.6 31.7 52 34.5C52.5 38 45.5 49 42 52C38.5 55 24 59 20.5 59C17 59 11 53 9.50001 46.5Z" fill="#FFD600"/>
</svg>
