<svg width="83" height="82" viewBox="0 0 83 82" fill="none" xmlns="http://www.w3.org/2000/svg">
<path d="M45.1311 0C40.2758 0 35.693 1.07719 31.5872 2.99593C20.7521 7.9611 13.2561 18.7835 13.2561 31.3563V35.5472V36.5571L6.79938 48.7428C5.16389 51.8229 6.7142 54.3307 10.2237 54.3307H13.2561V54.398V59.6998V65.9105C13.2561 69.5292 16.2545 72.4915 19.9174 72.4915L29.0659 71.145L29.0829 80.1833V80.2506C29.134 81.4119 30.1221 82.1693 31.3487 81.9673L64.314 76.2111C65.5577 75.9923 66.5799 74.7973 66.5799 73.5518V72.1212V70.9598V54.398C72.9004 48.6755 76.8528 40.4451 76.8528 31.3226C76.8357 14.0203 62.6445 0 45.1311 0ZM61.3157 47.5646C53.7004 55.0881 42.0816 56.2831 33.2057 51.116L33.1546 51.0823C29.6621 53.6911 25.9141 54.1456 23.3076 53.7416C22.4387 53.607 22.2513 52.4456 23.052 52.0585C25.4371 50.8972 26.9534 48.5913 27.8222 46.7231L27.5837 46.5379C19.5255 37.5501 19.8492 23.7991 28.5548 15.1985C37.6011 6.26116 52.2694 6.26116 61.3157 15.1985C70.3619 24.1358 70.3619 38.6273 61.3157 47.5646Z" fill="#FFD600"/>
<path d="M45.8807 24.7585C47.9251 24.7753 49.6117 23.0922 49.6287 21.022C49.6458 18.9349 47.9762 17.2518 45.8978 17.235C43.8023 17.2182 42.1157 18.8844 42.0987 20.9547C42.0816 23.0417 43.7853 24.7417 45.8807 24.7585Z" fill="#FFD600"/>
<path d="M50.4124 41.6738C50.0376 41.8084 49.7139 42.0609 49.3561 42.2124C48.8962 42.3807 48.4362 42.549 47.9421 42.5995C47.3629 42.6668 46.954 42.3638 46.8007 41.7916C46.6985 41.3708 46.6303 40.9332 46.6814 40.5124C46.7837 39.6204 46.9711 38.7452 47.1244 37.87C47.6184 35.2106 48.1125 32.5513 48.5895 29.892C48.7258 29.1683 48.8451 28.4445 48.828 27.7208C48.811 26.8456 48.2829 26.4417 47.397 26.4417C46.1703 26.4417 44.9437 26.4417 43.7171 26.4417C42.5586 26.4417 41.4002 26.4417 40.2417 26.4417C39.9521 26.4417 39.6625 26.4585 39.3729 26.509C38.8447 26.61 38.5721 26.8624 38.5381 27.2832C38.487 27.6703 38.7084 28.0406 39.2025 28.2089C39.5943 28.3436 40.0202 28.3772 40.4461 28.4445C41.4172 28.5792 41.7239 28.9158 41.7239 29.892C41.7239 30.0435 41.7068 30.195 41.6898 30.3465C41.2809 32.6691 40.855 35.0087 40.4632 37.3314C40.2417 38.6778 40.0202 40.0075 39.8328 41.354C39.5603 43.3232 41.4854 45.1746 42.9846 45.3766C43.8875 45.5113 44.8245 45.5281 45.7444 45.5281C47.7207 45.5113 49.3561 44.6865 50.7361 43.3064C50.9746 43.0708 51.179 42.7341 51.2642 42.4143C51.4175 41.8253 50.9576 41.455 50.4124 41.6738Z" fill="#FFD600"/>
</svg>
