<svg width="43" height="43" viewBox="0 0 43 43" fill="none" xmlns="http://www.w3.org/2000/svg">
<path d="M34.8748 0.923828H8.12519C7.34817 0.923827 6.57877 1.07687 5.8609 1.37422C5.14303 1.67157 4.49076 2.1074 3.94133 2.65684C3.39189 3.20627 2.95606 3.85854 2.65871 4.57641C2.36136 5.29427 2.20831 6.06368 2.20831 6.8407V36.1593C2.20831 36.9363 2.36136 37.7057 2.65871 38.4236C2.95606 39.1415 3.39189 39.7937 3.94133 40.3432C4.49076 40.8926 5.14303 41.3284 5.8609 41.6258C6.57877 41.9231 7.34817 42.0762 8.12519 42.0762H34.8748C35.6518 42.0762 36.4212 41.9231 37.1391 41.6258C37.857 41.3284 38.5092 40.8926 39.0587 40.3432C39.6081 39.7937 40.0439 39.1415 40.3413 38.4236C40.6386 37.7057 40.7917 36.9363 40.7917 36.1593V6.8407C40.7917 6.06368 40.6386 5.29427 40.3413 4.57641C40.0439 3.85854 39.6081 3.20627 39.0587 2.65684C38.5092 2.1074 37.857 1.67157 37.1391 1.37422C36.4212 1.07687 35.6518 0.923827 34.8748 0.923828ZM16.5861 36.2382C16.8459 36.4981 16.9919 36.8505 16.9919 37.218C16.9919 37.5855 16.8459 37.938 16.5861 38.1978L16.5101 38.2738C16.2502 38.5337 15.8978 38.6796 15.5303 38.6796C15.1628 38.6796 14.8103 38.5337 14.5505 38.2738L13.2344 36.9577L11.9183 38.2738C11.6584 38.5337 11.306 38.6796 10.9384 38.6796C10.5709 38.6796 10.2185 38.5337 9.95863 38.2738L9.88266 38.1978C9.6228 37.938 9.47681 37.5855 9.47681 37.218C9.47681 36.8505 9.6228 36.4981 9.88266 36.2382L11.1988 34.9221L9.88266 33.606C9.6228 33.3461 9.47681 32.9937 9.47681 32.6262C9.47681 32.2587 9.6228 31.9062 9.88266 31.6463L9.95863 31.5704C10.2185 31.3105 10.5709 31.1645 10.9384 31.1645C11.306 31.1645 11.6584 31.3105 11.9183 31.5704L13.2344 32.8865L14.5505 31.5704C14.8103 31.3105 15.1628 31.1645 15.5303 31.1645C15.8978 31.1645 16.2502 31.3105 16.5101 31.5704L16.5861 31.6463C16.8459 31.9062 16.9919 32.2587 16.9919 32.6262C16.9919 32.9937 16.8459 33.3461 16.5861 33.606L15.27 34.9221L16.5861 36.2382ZM17.9207 22.8215C17.9207 23.0034 17.8848 23.1836 17.8152 23.3517C17.7456 23.5199 17.6435 23.6726 17.5148 23.8013C17.3862 23.93 17.2334 24.032 17.0653 24.1017C16.8972 24.1713 16.717 24.2072 16.535 24.2072H14.6738V26.0684C14.6738 26.2504 14.6379 26.4306 14.5683 26.5987C14.4986 26.7668 14.3966 26.9196 14.2679 27.0482C14.1392 27.1769 13.9865 27.279 13.8184 27.3486C13.6502 27.4182 13.47 27.4541 13.2881 27.4541H13.1807C12.9987 27.4541 12.8185 27.4182 12.6504 27.3486C12.4823 27.279 12.3295 27.1769 12.2009 27.0482C12.0722 26.9196 11.9701 26.7668 11.9005 26.5987C11.8308 26.4306 11.795 26.2504 11.795 26.0684V24.2072H9.93375C9.75178 24.2072 9.57159 24.1713 9.40348 24.1017C9.23536 24.032 9.0826 23.93 8.95393 23.8013C8.82526 23.6726 8.72319 23.5199 8.65356 23.3517C8.58392 23.1836 8.54808 23.0034 8.54808 22.8215V22.7141C8.54808 22.5321 8.58392 22.3519 8.65356 22.1838C8.72319 22.0157 8.82526 21.8629 8.95393 21.7342C9.0826 21.6056 9.23536 21.5035 9.40348 21.4339C9.57159 21.3642 9.75178 21.3284 9.93375 21.3284H11.795V19.4671C11.795 19.2852 11.8308 19.105 11.9005 18.9368C11.9701 18.7687 12.0722 18.616 12.2009 18.4873C12.3295 18.3586 12.4823 18.2566 12.6504 18.1869C12.8185 18.1173 12.9987 18.0814 13.1807 18.0814H13.2881C13.6556 18.0815 14.0081 18.2274 14.2679 18.4873C14.5278 18.7472 14.6738 19.0996 14.6738 19.4671V21.3284H16.535C16.717 21.3284 16.8972 21.3642 17.0653 21.4338C17.2334 21.5035 17.3861 21.6056 17.5148 21.7342C17.6435 21.8629 17.7456 22.0157 17.8152 22.1838C17.8848 22.3519 17.9207 22.5321 17.9207 22.7141L17.9207 22.8215ZM29.7656 39.2137C29.3726 39.2137 28.9884 39.0972 28.6616 38.8788C28.3348 38.6605 28.0801 38.3501 27.9297 37.987C27.7792 37.6239 27.7399 37.2243 27.8166 36.8388C27.8932 36.4534 28.0825 36.0993 28.3604 35.8214C28.6383 35.5434 28.9924 35.3542 29.3779 35.2775C29.7634 35.2008 30.163 35.2402 30.5261 35.3906C30.8892 35.541 31.1996 35.7957 31.4179 36.1225C31.6363 36.4493 31.7528 36.8335 31.7528 37.2265C31.7528 37.7536 31.5434 38.259 31.1708 38.6317C30.7981 39.0044 30.2927 39.2137 29.7656 39.2137ZM29.7656 34.0001C29.3726 34.0001 28.9884 33.8836 28.6616 33.6652C28.3348 33.4469 28.0801 33.1365 27.9297 32.7734C27.7792 32.4103 27.7399 32.0107 27.8166 31.6252C27.8932 31.2398 28.0825 30.8857 28.3604 30.6078C28.6383 30.3298 28.9924 30.1406 29.3779 30.0639C29.7634 29.9872 30.163 30.0266 30.5261 30.177C30.8892 30.3274 31.1996 30.5821 31.4179 30.9089C31.6363 31.2357 31.7528 31.6199 31.7528 32.0129C31.7528 32.54 31.5434 33.0454 31.1708 33.4181C30.7981 33.7908 30.2927 34.0001 29.7656 34.0001ZM34.4519 22.8215C34.4519 23.0034 34.4161 23.1836 34.3465 23.3517C34.2768 23.5199 34.1748 23.6726 34.0461 23.8013C33.9174 23.93 33.7647 24.032 33.5965 24.1017C33.4284 24.1713 33.2482 24.2072 33.0663 24.2072H26.465C26.283 24.2072 26.1028 24.1713 25.9347 24.1017C25.7666 24.032 25.6138 23.93 25.4852 23.8013C25.3565 23.6726 25.2544 23.5199 25.1848 23.3517C25.1151 23.1836 25.0793 23.0034 25.0793 22.8215V22.7141C25.0793 22.5321 25.1151 22.3519 25.1848 22.1838C25.2544 22.0157 25.3565 21.8629 25.4852 21.7342C25.6138 21.6056 25.7666 21.5035 25.9347 21.4338C26.1028 21.3642 26.283 21.3284 26.465 21.3284H33.0663C33.2482 21.3284 33.4284 21.3642 33.5965 21.4339C33.7646 21.5035 33.9174 21.6056 34.0461 21.7342C34.1747 21.8629 34.2768 22.0157 34.3464 22.1838C34.4161 22.3519 34.4519 22.5321 34.4519 22.7141L34.4519 22.8215ZM37.3895 12.5141C37.3895 13.2216 37.1085 13.9001 36.6082 14.4004C36.1079 14.9006 35.4294 15.1817 34.7219 15.1817H8.52143C7.81393 15.1817 7.13541 14.9006 6.63513 14.4004C6.13486 13.9001 5.85381 13.2216 5.85381 12.5141V7.7432C5.85381 7.39288 5.9228 7.04599 6.05686 6.72234C6.19092 6.39869 6.38742 6.10461 6.63513 5.8569C6.88284 5.60919 7.17692 5.41269 7.50057 5.27863C7.82422 5.14457 8.17111 5.07557 8.52143 5.07557H34.7219C35.4294 5.07557 36.1079 5.35662 36.6082 5.8569C37.1084 6.35718 37.3895 7.0357 37.3895 7.7432L37.3895 12.5141Z" fill="#1E1E1E"/>
</svg>
