<svg width="43" height="43" viewBox="0 0 43 43" fill="none" xmlns="http://www.w3.org/2000/svg">
<path d="M21.5001 24.9787H21.5C20.5309 24.9787 19.7453 25.7643 19.7453 26.7334V32.5191C19.7453 33.4882 20.5309 34.2738 21.5 34.2738H21.5001C22.4692 34.2738 23.2548 33.4882 23.2548 32.5191V26.7334C23.2548 25.7643 22.4692 24.9787 21.5001 24.9787Z" fill="#1E1E1E"/>
<path d="M21.5 22.834C22.4691 22.834 23.2547 22.0484 23.2547 21.0793C23.2547 20.1102 22.4691 19.3246 21.5 19.3246C20.5309 19.3246 19.7453 20.1102 19.7453 21.0793C19.7453 22.0484 20.5309 22.834 21.5 22.834Z" fill="#1E1E1E"/>
<path d="M34.3462 8.14648C33.0112 8.14498 31.7312 7.61395 30.7871 6.6699C29.8431 5.72585 29.3121 4.44587 29.3105 3.11078V1.00781H10.1638C9.12796 1.00898 8.13489 1.42098 7.40244 2.15342C6.67 2.88586 6.258 3.87894 6.25684 4.91477V38.0852C6.258 39.1211 6.67 40.1141 7.40244 40.8466C8.13489 41.579 9.12796 41.991 10.1638 41.9922H32.8362C33.872 41.991 34.8651 41.579 35.5976 40.8466C36.33 40.1141 36.742 39.1211 36.7432 38.0852V8.14648H34.3462ZM21.5 36.7753C19.4649 36.7753 17.4755 36.1718 15.7834 35.0411C14.0912 33.9105 12.7724 32.3035 11.9936 30.4233C11.2148 28.5431 11.011 26.4742 11.408 24.4782C11.805 22.4821 12.785 20.6487 14.2241 19.2097C15.6631 17.7706 17.4966 16.7906 19.4926 16.3936C21.4886 15.9966 23.5575 16.2003 25.4377 16.9791C27.3179 17.7579 28.9249 19.0768 30.0556 20.7689C31.1862 22.4611 31.7897 24.4505 31.7897 26.4856C31.7897 29.2146 30.7056 31.8318 28.7759 33.7615C26.8462 35.6912 24.229 36.7752 21.5 36.7753Z" fill="#1E1E1E"/>
<path d="M34.3462 7.13869H35.9956L30.3184 1.65192V3.1108C30.3196 4.17869 30.7443 5.20251 31.4994 5.95762C32.2545 6.71274 33.2784 7.13749 34.3462 7.13869Z" fill="#1E1E1E"/>
</svg>
