<svg width="87" height="77" viewBox="0 0 87 77" fill="none" xmlns="http://www.w3.org/2000/svg">
<path fill-rule="evenodd" clip-rule="evenodd" d="M27.1906 13.1611C27.1906 13.4364 27.2132 13.8265 27.168 13.987C27.0552 14.0788 26.9422 14.1935 26.8068 14.2623C26.7842 14.2853 26.7616 14.2853 26.7165 14.3082C26.5584 14.2164 26.4004 14.1017 26.3552 14.1017C25.9263 14.0559 25.5198 14.2853 25.2037 14.5606C25.1586 14.6065 25.0456 14.6524 24.9102 14.6982C23.691 14.5835 22.7879 13.8723 23.0814 13.987C24.1877 13.9412 24.707 13.8952 25.8811 12.8628C26.1069 13.0234 26.7165 13.1611 27.1906 13.1611ZM37.712 35.5759C37.5765 35.9201 37.4411 36.1036 37.3056 36.3789C36.9218 37.136 36.5379 37.5948 36.267 38.1914C36.0412 38.6502 35.7928 38.9714 36.267 39.2238C36.8541 39.522 37.5314 38.2602 37.7798 37.8472L38.1861 37.0443C38.5022 36.333 38.8409 35.6218 39.1118 34.8647C39.2473 34.4747 39.8117 34.6123 39.6311 35.0482C39.2021 36.1495 38.9312 36.746 38.4345 37.7554L38.141 38.2832C37.9152 38.6731 37.9829 38.6043 37.6443 39.0402C37.4862 39.522 37.6668 40.0497 38.0958 40.0038C38.7957 39.912 39.4957 38.2601 39.8343 37.5948C40.015 37.2277 40.1504 36.8607 40.3085 36.4936L40.9858 34.8188C41.1213 34.6123 41.4374 34.6353 41.4826 34.8876C41.5051 35.0253 41.1439 35.8283 41.0762 36.0348C40.7375 36.9065 40.0601 38.4896 39.586 39.2467C39.4505 39.4532 39.4053 39.4991 39.3828 39.8202C39.3602 40.0727 39.428 40.2791 39.6086 40.3938C40.173 40.7609 40.8503 39.132 41.0309 38.6961C41.1665 38.3519 41.3471 37.9619 41.4826 37.5948C41.5502 37.4113 41.618 37.2277 41.6857 37.0212C41.8664 36.5854 42.0922 35.7824 42.2728 35.3006C42.3179 35.163 42.4082 34.8417 42.7018 34.9335C42.9275 35.0253 42.8598 35.2777 42.7921 35.4382V35.4612V35.4842V35.5071V35.53V35.5529V35.5759V35.5989V35.6218V35.6447V35.6676V35.6907V35.7136V35.7365V35.7594V35.7824V35.8054V35.8283V35.8512V35.8741V35.8971V35.9201V35.943V35.9659V35.9889V36.0118V36.0348V36.0577V36.0806V36.1036V36.1265V36.1495V36.1724V36.1953V36.2183V36.2412V36.2642V36.2871V36.3101V36.333V36.3559V36.3789V36.4019V36.4248V36.4477V36.4706V36.4936V36.5166V36.5395V36.5624V36.5854V36.6083V36.6313V36.6542V36.6771V36.7001V36.7231V36.746V36.7689V36.7918V36.8148V36.8378V36.8607V36.8836V36.9065V36.9296V36.9525V36.9754V36.9983V37.0212V37.0443V37.0672V37.0901V37.113V37.136V37.159V37.1819V37.2048V37.2277V37.2507V37.2737V37.2966V37.3195V37.3425V37.3654V37.3884V37.4113V37.4342V37.4572V37.4801V37.5031V37.526V37.549V37.5719V37.5948V37.6178V37.6407V37.6637V37.6866V37.7096V37.7325V37.7554V37.7784V37.8013V37.8243V37.8472V37.8702V37.8931V37.916V37.939V37.962V37.9849V38.0078V38.0307V38.0537V38.0767V38.0996V38.1225V38.1454V38.1684V38.1914V38.2143V38.2372V38.2601V38.2832V38.3061V38.329V38.3519V38.3749L42.3631 39.4991V39.522V39.545V39.5679V39.5908V39.6138V39.6368C42.3631 39.6368 42.3631 39.6368 42.3631 39.6597C42.3631 39.6597 42.3631 39.6597 42.3631 39.6826V39.7055C42.3631 39.7055 42.3631 39.7055 42.3631 39.7285C42.3631 39.7285 42.3631 39.7285 42.3631 39.7515C42.3631 39.7515 42.3631 39.7515 42.3631 39.7744V39.7973C42.3631 39.7973 42.3631 39.7973 42.3631 39.8202C42.3631 39.8202 42.3631 39.8202 42.3631 39.8433C42.3631 39.8433 42.3631 39.8433 42.3631 39.8662C42.3631 39.8662 42.3631 39.8662 42.3631 39.8891C42.3631 39.8891 42.3631 39.8891 42.3857 39.8891C42.3857 39.8891 42.3857 39.8891 42.4082 39.8891C42.4082 39.8891 42.4082 39.8891 42.4309 39.8891C42.4309 39.8891 42.4309 39.8891 42.4534 39.8891C42.4534 39.8891 42.4534 39.8891 42.476 39.8891C42.476 39.8891 42.476 39.8891 42.4985 39.8891C42.5212 39.8891 42.4985 39.8891 42.5212 39.8891C42.5212 39.8891 42.5212 39.8891 42.5437 39.8891C42.5437 39.8891 42.5437 39.8891 42.5663 39.8891C42.5663 39.8891 42.5663 39.8891 42.5889 39.8891C42.5889 39.8891 42.5888 39.8891 42.6115 39.8891C42.6115 39.8891 42.6115 39.8891 42.634 39.8891H42.6566H42.6792H42.7018H42.7243H42.7469H42.7695H42.7921H42.8146H42.8372H42.8598C42.8598 39.8891 42.8824 39.8891 42.8824 39.8662C42.8824 39.8662 42.9049 39.8662 42.9049 39.8433C42.9049 39.8433 42.9275 39.8433 42.9275 39.8202C42.9275 39.8202 42.9502 39.8202 42.9502 39.7973C42.9502 39.7973 42.9727 39.7973 42.9727 39.7744L42.9953 39.7515L43.0178 39.7285L43.0405 39.7055L43.063 39.6826L43.0856 39.6597L43.1082 39.6368L43.1308 39.6138L43.1533 39.5908L43.1759 39.5679L43.1985 39.545C43.1985 39.545 43.2211 39.522 43.2211 39.4991C43.2211 39.4761 43.2436 39.4761 43.2436 39.4532C43.2436 39.4303 43.2662 39.4303 43.2662 39.4073C43.2662 39.3843 43.2888 39.3843 43.2888 39.3614C43.2888 39.3385 43.3114 39.3385 43.3114 39.3155C43.3114 39.2926 43.3339 39.2926 43.3339 39.2696C43.3339 39.2467 43.3565 39.2467 43.3565 39.2238C43.3565 39.2008 43.3791 39.2008 43.3791 39.1779C43.5146 38.9025 43.6049 38.7191 43.7629 38.3749C43.8307 38.1914 43.921 38.0078 43.9887 37.8243C44.3048 37.0212 44.4854 36.2642 44.6886 35.6218C44.8467 35.2088 45.0048 34.8418 45.1627 34.5205H45.1402C45.5692 33.8094 46.224 33.3046 47.6238 33.0981L45.366 32.9146L39.8569 32.8457C39.8569 32.8687 39.8343 32.8917 39.8343 32.9146V32.8457H39.586H37.554C37.4411 32.9375 37.3281 33.0522 37.1927 33.1669C34.7994 35.5071 33.5576 38.0767 37.1701 35.0941C37.554 34.7729 37.8926 34.4517 38.141 34.1535C38.0281 34.6353 37.9152 35.0941 37.8249 35.4382C37.8023 35.53 37.7571 35.6447 37.712 35.7365V35.5759ZM44.4628 34.337L48.5495 34.2682L42.2502 41.0133L40.1504 41.0591C40.444 40.738 40.6697 40.325 40.7826 40.0727C40.9633 40.1414 41.3923 40.4856 41.9116 40.0727C42.5663 39.545 43.6049 36.1495 44.4628 34.337ZM38.6151 41.0591L26.8971 41.2656L26.3326 37.3884L30.4418 34.5435L34.7994 34.4747C33.6028 35.9889 32.8351 37.6866 34.1673 37.6407C33.8512 37.916 33.0835 39.2926 33.5125 39.7744C33.806 40.0956 34.1446 40.1185 34.7317 39.9349C34.6866 40.5315 34.8897 40.9904 35.3865 41.0821C35.9058 41.1738 36.4025 40.738 36.7637 40.4627C36.9218 40.738 37.1024 40.9215 37.4411 40.9904C37.8701 41.0821 38.0958 40.8756 38.457 40.6462C38.4797 40.8068 38.5248 40.9444 38.6151 41.0591ZM35.251 36.6771C34.5511 37.2048 33.7609 37.6178 33.964 36.6542C34.0092 36.4707 34.1672 36.2412 34.3704 35.9889C34.3704 36.1036 34.4156 36.2183 34.4833 36.333C34.6414 36.6313 34.9348 36.7001 35.251 36.6771ZM36.8314 36.1724L36.5154 36.7689C36.1767 37.3195 35.838 37.7784 35.5897 38.3979C35.4542 38.7649 35.5445 38.7191 35.4316 38.8338C35.251 39.0173 34.4156 39.6826 34.0318 39.4532C33.5802 39.2008 33.9189 38.4666 34.1221 38.329C34.6188 38.0307 34.8445 37.916 35.2735 37.526C35.7025 37.136 36.1089 36.7231 36.4928 36.3101C36.6057 36.2642 36.7185 36.2183 36.8314 36.1724ZM35.6122 39.4073C35.9283 39.912 36.4702 39.7973 36.6734 39.8202C36.5831 40.0038 35.838 40.6003 35.5219 40.5544C35.0929 40.4626 35.251 39.5908 35.6122 39.4073ZM47.5335 33.0752L50.8073 32.9834L54.8036 30.1615L57.7839 23.577L52.8619 21.2827L51.3266 24.7012L49.9268 27.7984L47.5335 33.0752ZM52.3426 33.3275L60.2675 27.7296L68.5536 28.8538H68.5989L84.4035 30.9874L77.0656 37.4342L72.9338 36.746L52.8619 33.3964H52.3652L52.3426 33.3275ZM33.2641 32.2493C33.0157 31.7216 32.6545 31.2169 32.203 30.8039C31.4804 30.1615 31.0063 29.2896 30.8031 28.349C30.5773 27.2248 30.8031 26.0548 31.3901 25.0683C31.9997 24.0588 32.948 23.3017 34.0543 22.9575C35.1832 22.6134 36.4025 22.6593 37.4637 23.164C38.999 23.8752 40.8052 23.3705 41.7986 21.971C42.476 21.0075 43.5146 20.3191 44.6661 20.0668C45.795 19.8144 46.9916 19.975 48.0076 20.5256C49.001 21.0762 49.7687 21.971 50.1299 23.0493C50.2202 23.3017 50.288 23.577 50.3106 23.8523L49.859 24.8388C49.8816 24.4258 49.8365 23.9899 49.7235 23.554C49.1591 21.4663 47.1948 20.1815 45.3208 20.6863C44.9596 20.778 43.921 21.1909 43.7178 21.2598C41.9116 21.7645 40.8729 23.8065 41.3923 25.8254C41.9341 27.8443 43.8307 29.0832 45.6369 28.6014C45.8401 28.5555 46.9239 28.3719 47.2851 28.2802C47.7818 28.1425 48.2334 27.8902 48.5946 27.569L47.6463 29.6797C47.0367 29.8862 46.0434 30.2532 45.795 30.3221C44.9821 30.5515 44.3048 31.0562 43.8081 31.7216L33.2641 32.2493ZM50.1074 34.5435L50.4686 61.9369L42.2728 61.9598L44.2822 58.8625C40.3762 55.9718 39.6537 54.2053 34.8672 54.0905C30.9611 51.1309 31.503 44.6612 27.6648 42.5045L42.9049 42.2292L50.1074 34.5435ZM25.6553 42.1145C25.6327 42.1145 25.6327 42.1145 25.6101 42.1145C25.4746 42.0916 25.2715 41.8392 25.136 41.7704C24.707 41.541 24.3006 41.3803 23.8491 41.2427C23.8039 41.2885 23.8039 41.2885 23.7813 41.3345C23.9845 41.908 24.3232 42.5045 24.8877 42.7569C25.565 43.1011 26.1746 43.5369 26.8293 43.9041C31.1644 46.1753 30.3064 51.6127 33.4447 54.2969C33.964 54.7329 34.5511 55.1 35.1381 55.4441C35.7252 55.8112 36.4025 55.7194 37.0572 55.7194C37.7571 55.7194 38.2991 55.6506 38.8635 56.1324C39.3828 56.5912 40.015 56.8665 40.602 57.2106C41.1439 57.5089 41.5502 57.9448 42.047 58.2431C42.2728 58.3808 42.476 58.5873 42.7018 58.7249C42.905 58.8625 42.9502 59.0002 42.8598 59.2296C42.634 59.7344 42.205 59.8032 41.7083 59.7344C41.1213 59.6426 40.76 59.1149 40.2859 58.8167C40.0376 58.656 39.744 58.3578 39.428 58.4495C39.2247 58.5184 39.2021 58.7478 39.2247 58.9543C39.2247 59.0002 39.7214 60.675 39.7666 60.7438C39.8795 61.0191 40.1504 61.1109 40.3988 61.2027C40.6923 61.3174 40.8278 61.2485 41.1213 61.1798C41.4374 61.4779 41.3019 61.5927 41.0536 61.8909C40.8278 62.1433 40.6246 62.4186 40.331 62.6021C40.0376 62.7628 39.744 62.7398 39.428 62.6939C39.0441 62.6481 38.8635 62.7399 38.5474 62.9463C38.3442 63.084 37.9604 63.2445 37.712 63.1987C37.5314 63.1758 37.3281 63.084 37.1475 63.0151C37.0121 62.9463 36.8766 62.8316 36.696 62.8086C36.3799 62.7628 36.1767 63.084 35.9058 63.1758C35.6349 63.2675 35.251 62.9233 34.9801 62.8316C34.6414 62.7399 34.3252 62.7628 33.964 62.8086C33.7383 62.8316 33.5125 62.7628 33.3544 62.6021C33.0835 62.3269 32.948 62.0516 32.7674 61.7074C31.8417 60.0096 32.4061 60.3768 30.9837 58.8854C30.8257 58.7249 30.6676 58.5643 30.487 58.4266C26.5359 55.3064 23.104 54.8246 20.5526 49.6626C20.3269 49.2267 20.2591 48.7449 19.7399 48.5613C19.514 48.4926 19.3786 48.3549 19.1303 48.309C18.7916 48.2401 17.8659 46.5424 17.7303 46.2671C17.4369 45.7165 17.1885 45.1429 16.6692 44.73C16.1274 44.294 15.45 44.0875 14.9533 43.6287C14.5468 43.2616 15.3145 42.2292 15.4726 41.908C16.8047 39.2238 23.7361 33.7405 25.2489 38.3061C25.407 38.8108 25.6101 40.5085 25.836 41.4033L25.6553 42.1145ZM54.8036 39.0402C55.0971 39.0861 55.3906 39.1091 55.7067 39.1549C55.7067 39.8433 55.7067 40.5315 55.7067 41.2198C55.7067 41.908 55.7067 42.5963 55.7067 43.2846C55.7067 43.9728 55.7067 44.6611 55.7067 45.3494C55.7067 46.0377 55.7067 46.726 55.7067 47.4142C56.2035 47.4601 56.7002 47.4831 57.1969 47.506C57.1969 46.5883 57.1969 45.6706 57.1969 44.7529C57.1969 43.8352 57.1969 42.9175 57.1969 41.9998C57.1969 41.128 57.1969 40.2332 57.1969 39.3614C57.1969 38.4896 57.1969 37.5948 57.1969 36.7231C56.5422 36.6313 55.9099 36.5395 55.2552 36.4477C54.6004 36.3559 53.9683 36.2642 53.3135 36.1953C53.3135 37.0901 53.3135 37.9849 53.3135 38.9026C53.3135 39.7973 53.3135 40.6921 53.3135 41.6098C53.3135 42.5505 53.3135 43.4911 53.3135 44.4317C53.3135 45.3724 53.3135 46.313 53.3135 47.2537C53.8102 47.2995 54.3069 47.3224 54.781 47.3454C54.781 46.6571 54.781 45.9688 54.781 45.2577C54.781 44.5694 54.781 43.8811 54.781 43.1699C54.781 42.4816 54.781 41.7704 54.781 41.0821C54.8036 40.4397 54.8036 39.7285 54.8036 39.0402ZM60.8997 37.3195C59.974 37.1819 59.0709 37.0443 58.1451 36.9065C58.0775 37.6866 58.0097 38.4666 57.942 39.2467C57.8742 40.0267 57.8065 40.8068 57.7614 41.5868C57.6936 42.4128 57.6259 43.2158 57.5582 44.0417C57.4904 44.8676 57.4227 45.6706 57.3549 46.4965C57.3549 46.8407 57.3549 47.1848 57.3549 47.5519C57.8968 47.5978 58.4613 47.6207 59.0031 47.6666C59.0483 46.9325 59.1161 46.2212 59.1838 45.4871C59.4095 45.51 59.6354 45.5329 59.8611 45.5559C59.9063 46.29 59.9514 47.0243 60.0191 47.7354C60.5611 47.7813 61.1029 47.8043 61.6222 47.8501C61.6222 47.5748 61.6222 47.2995 61.6222 47.0243C61.5545 46.1983 61.4867 45.3724 61.4416 44.5694C61.3739 43.7434 61.3061 42.9175 61.261 42.0916C61.1932 41.3116 61.148 40.5085 61.0803 39.7285C61.0126 38.9255 60.9449 38.1225 60.8997 37.3195ZM59.2967 42.8257C59.3192 42.298 59.3644 41.7704 59.387 41.2198C59.4095 40.6921 59.4548 40.1644 59.4773 39.6138C59.5224 39.6138 59.5676 39.6138 59.6128 39.6368C59.6354 40.1644 59.6579 40.6921 59.6805 41.2198C59.7031 41.7475 59.7257 42.2751 59.7482 42.8028C59.7482 42.8257 59.7482 42.8486 59.7482 42.8717C59.5902 42.8486 59.4321 42.8486 59.2967 42.8257ZM63.5188 37.7096C63.5188 38.2601 63.5188 38.7878 63.5188 39.3385C63.5188 39.958 63.4962 40.6003 63.4962 41.2198C63.5865 41.2198 63.6542 41.2427 63.7446 41.2427C63.8123 40.6233 63.88 40.0038 63.9703 39.3843C64.0381 38.8567 64.1058 38.329 64.1509 37.7784C64.6477 37.8472 65.1444 37.916 65.6412 37.962C65.6412 38.2143 65.6412 38.4666 65.6412 38.7191C65.5282 39.3614 65.4379 39.9809 65.325 40.6232C65.2122 41.2656 65.1218 41.908 65.0089 42.5275C65.1218 43.2846 65.2122 44.0188 65.325 44.7759C65.4379 45.51 65.5282 46.2671 65.6412 47.0012C65.6412 47.3684 65.6412 47.7354 65.6412 48.0796C65.1444 48.0566 64.6477 48.0107 64.1736 47.9878C64.1058 47.3224 64.0155 46.6342 63.9478 45.9688C63.88 45.3035 63.8123 44.6152 63.7219 43.9499C63.6316 43.9499 63.5413 43.927 63.4736 43.927C63.4736 44.5923 63.451 45.2577 63.451 45.9459C63.451 46.6113 63.451 47.2766 63.451 47.9419C62.9543 47.896 62.435 47.8731 61.9383 47.8272C61.9383 46.9325 61.9383 46.0377 61.9609 45.1659C61.9609 44.2711 61.9835 43.3763 61.9835 42.5045C61.9835 41.6557 62.006 40.8297 62.006 39.9809C62.006 39.132 62.0287 38.2832 62.0287 37.4572C62.5027 37.5719 62.9995 37.6407 63.5188 37.7096ZM54.8713 51.4292C54.8713 52.1404 54.8713 52.8286 54.8488 53.5399C54.8488 54.2511 54.8488 54.9394 54.8488 55.6506C54.8488 56.3618 54.8488 57.0501 54.8262 57.7613C54.8262 58.4725 54.8262 59.1608 54.8262 59.872C54.3295 59.872 53.8553 59.872 53.3587 59.872C53.3587 58.9314 53.3587 57.9678 53.3812 57.0272C53.3812 56.0865 53.3812 55.1229 53.4038 54.1822C53.4038 53.2645 53.4264 52.3698 53.4264 51.4521C53.4264 50.5344 53.4264 49.6397 53.449 48.722C54.7133 48.7908 55.9777 48.8825 57.2646 48.9743C57.2646 49.8691 57.2646 50.7409 57.2421 51.6357C57.2421 52.5304 57.2421 53.4022 57.2195 54.2969C57.2195 55.2147 57.2195 56.1553 57.1969 57.073C57.1969 57.9907 57.1969 58.9314 57.1743 59.8491C56.6776 59.8491 56.2035 59.872 55.7067 59.872C55.7067 59.1837 55.7067 58.4726 55.7067 57.7842C55.7067 57.0959 55.7067 56.3847 55.7067 55.6965C55.7067 55.0082 55.7067 54.2969 55.7067 53.6087C55.7067 52.9204 55.7067 52.2092 55.7293 51.521C55.4584 51.4521 55.1649 51.4521 54.8713 51.4292ZM60.8546 49.2037C60.9223 50.0067 60.9674 50.8097 61.0352 51.5897C61.1029 52.3927 61.148 53.1728 61.2158 53.9758C61.2835 54.8017 61.3513 55.6276 61.3964 56.4536C61.4642 57.2795 61.5319 58.1054 61.5997 58.9314C61.5997 59.2067 61.5997 59.5049 61.5997 59.7802C61.0577 59.7802 60.5384 59.7802 59.9966 59.8032C59.9514 59.069 59.9063 58.3348 59.8385 57.6007C59.6127 57.6007 59.387 57.6007 59.1612 57.6007C59.0934 58.3348 59.0483 59.069 58.9806 59.8261C58.4387 59.8261 57.8968 59.8262 57.3549 59.8491C57.3549 59.5049 57.3549 59.1379 57.3549 58.7937C57.4227 57.9678 57.4904 57.1189 57.5582 56.293C57.6259 55.4671 57.6936 54.6181 57.7614 53.7923C57.8291 52.9893 57.8968 52.2092 57.942 51.4063C58.0097 50.6262 58.0775 49.8232 58.1451 49.0432C59.0483 49.0661 59.9514 49.1349 60.8546 49.2037ZM59.2741 54.8935C59.4095 54.8935 59.5676 54.8935 59.7031 54.9164C59.7031 54.8935 59.7031 54.8706 59.7031 54.8476C59.6805 54.32 59.6579 53.7923 59.6354 53.2645C59.6128 52.7369 59.5902 52.2092 59.5676 51.6815C59.5224 51.6815 59.4773 51.6815 59.4321 51.6815C59.4095 52.2092 59.3644 52.7599 59.3418 53.3105C59.3192 53.8152 59.2967 54.3429 59.2741 54.8935ZM63.4285 49.3873C63.4285 49.938 63.4285 50.4885 63.4285 51.0162C63.4285 51.6586 63.4285 52.278 63.4285 52.9204C63.5188 52.9204 63.5865 52.9204 63.6768 52.9204C63.7446 52.301 63.8123 51.6586 63.88 51.0391C63.9478 50.4885 63.9929 49.9609 64.0606 49.4102C64.5348 49.4561 65.0315 49.479 65.5056 49.525C65.5056 49.7773 65.5056 50.0296 65.5056 50.2821C65.4153 50.9244 65.3025 51.5668 65.2122 52.2092C65.1218 52.8517 65.0089 53.494 64.9186 54.1593C65.0315 54.9164 65.1444 55.6506 65.2573 56.4077C65.3701 57.1419 65.4831 57.899 65.596 58.6331C65.596 59.0002 65.596 59.3673 65.596 59.7344C65.0992 59.7344 64.6251 59.7344 64.1284 59.7573C64.0606 59.092 63.9703 58.4037 63.9026 57.7383C63.8349 57.073 63.7446 56.3847 63.6768 55.7194C63.5865 55.7194 63.5188 55.7194 63.4285 55.7194C63.4285 56.3847 63.4285 57.073 63.4285 57.7383C63.4285 58.4037 63.4285 59.092 63.4285 59.7573C62.9317 59.7573 62.435 59.7573 61.9157 59.7802C61.9157 58.8855 61.9157 57.9907 61.9157 57.0959C61.9157 56.2012 61.9157 55.3064 61.9157 54.4117C61.9157 53.5628 61.9157 52.7139 61.9157 51.8651C61.9157 51.0162 61.9157 50.1674 61.9383 49.3185C62.4124 49.3185 62.9317 49.3643 63.4285 49.3873ZM67.3344 49.7085C67.3344 50.1903 67.3344 50.6491 67.3344 51.1309C67.3344 51.6586 67.3344 52.1863 67.3344 52.7139C67.8764 52.7369 67.6957 52.7369 68.2376 52.8057C68.644 52.8517 68.915 53.2875 68.9375 54.0675C68.9601 54.8246 68.9375 55.6047 68.9375 56.3618C68.9375 57.1189 68.9375 57.899 68.9375 58.656C68.9375 59.2296 68.7569 59.7114 68.3505 59.7344C67.199 59.8491 66.9958 59.7573 65.8443 59.7573C65.8443 56.3618 65.8669 52.9893 65.8669 49.5938C66.4314 49.6167 66.77 49.6626 67.3344 49.7085ZM67.7183 57.1877C67.7183 56.5453 67.7183 55.903 67.7183 55.2606C67.4925 55.2606 67.628 55.2376 67.4022 55.2376C67.4022 55.8801 67.4022 56.5224 67.4022 57.1648C67.6054 57.1877 67.4925 57.1877 67.7183 57.1877ZM70.676 59.6885C70.676 58.8625 70.676 58.0596 70.676 57.2337C70.676 56.4077 70.676 55.6047 70.676 54.7788C70.676 53.9758 70.676 53.1728 70.676 52.3927C70.676 51.5897 70.676 50.7868 70.676 49.9838C70.1793 49.9609 69.6826 49.9149 69.1859 49.892C69.1859 50.695 69.1859 51.498 69.1859 52.3239C69.1859 53.1269 69.1859 53.9299 69.1859 54.7558C69.1859 55.5818 69.1859 56.4077 69.1859 57.2337C69.1859 58.0596 69.1859 58.8855 69.1859 59.7114C69.6826 59.7114 70.1793 59.6885 70.676 59.6885ZM73.0693 55.5129C72.55 55.49 72.0533 55.5359 71.534 55.4671C71.1728 55.4211 70.9921 55.0311 70.9921 54.5034C70.9921 53.7234 70.9921 52.9664 70.9921 52.1863C70.9921 51.4521 70.9921 50.7409 70.9921 50.0067C71.4889 50.0296 71.9855 50.0756 72.4823 50.0985C72.4823 50.5573 72.4823 51.0162 72.4823 51.498C72.4823 52.0027 72.4823 52.5304 72.4823 53.0351C72.6629 53.0351 72.8662 53.058 73.0468 53.058C73.0468 52.5534 73.0468 52.0486 73.0468 51.521C73.0468 51.0621 73.0468 50.6032 73.0468 50.1444C73.5434 50.1674 74.0401 50.1903 74.5369 50.2361C74.5369 51.108 74.5369 51.9569 74.5369 52.8286C74.5369 53.2875 74.5369 53.7464 74.5369 54.1822C74.5369 54.6411 74.5369 55.1 74.5369 55.5359C74.5369 56.2242 74.5369 56.9125 74.5369 57.6007C74.5369 58.289 74.5369 58.9772 74.5369 59.6655C74.0401 59.6655 73.5434 59.6655 73.0468 59.6885C73.0468 59.0002 73.0468 58.289 73.0468 57.6007C73.0693 56.8895 73.0693 56.2012 73.0693 55.5129ZM52.2298 19.585L50.9428 22.4528C50.4686 21.2598 49.6106 20.2733 48.4592 19.6539C47.24 18.9655 45.795 18.782 44.4403 19.1032C43.0405 19.4244 41.8212 20.2503 41.0084 21.3974C40.3085 22.4069 38.9763 22.774 37.8701 22.2464C37.1927 21.9251 36.4702 21.7645 35.7252 21.7416C33.4673 19.8603 31.1869 18.5297 29.1549 18.4379C29.0646 18.4379 28.9517 18.4149 28.8162 18.369C29.6291 17.5431 29.8097 16.419 29.2452 15.1571C28.9743 14.5376 28.8388 13.9412 28.7485 13.2758C28.6356 12.2893 28.455 11.3257 28.2969 10.3162C28.5905 10.1327 28.7711 9.88034 28.8614 9.605C31.0514 8.96262 33.2416 8.84791 35.5897 8.84791C48.1883 8.84791 59.0709 16.3272 64.1736 27.156L59.8385 26.6054L56.8808 28.6931L59.4773 22.9575L57.9645 22.2464L58.6644 20.6863L54.465 18.7132L53.765 20.2733L52.2298 19.585ZM35.6348 23.3246C35.251 23.4393 34.1221 23.8752 33.9189 23.9441C31.9546 24.4718 30.8483 26.6742 31.4353 28.8538C32.0224 31.0333 34.0543 32.364 36.0186 31.8363C36.2218 31.7675 37.4185 31.6068 37.8023 31.4921C39.8343 30.9415 40.9858 28.6702 40.3762 26.3989C39.7892 24.1506 37.6668 22.774 35.6348 23.3246ZM36.7637 29.978C37.5765 29.4503 37.9604 28.3032 37.6668 27.156C37.3733 26.0089 36.4702 25.2288 35.4993 25.183C34.7994 25.7794 34.4608 26.8578 34.7542 27.959C35.0252 29.0373 35.8606 29.8173 36.7637 29.978ZM37.5991 29.932C38.7957 29.6108 39.4505 28.1885 39.0893 26.766C38.7054 25.3435 37.4411 24.4488 36.2445 24.77C36.2218 24.77 36.1993 24.77 36.1993 24.7929C37.1024 25.1141 37.8701 25.9401 38.1636 27.0183C38.457 28.0967 38.1861 29.1979 37.554 29.955C37.554 29.955 37.5765 29.932 37.5991 29.932ZM46.3594 26.8578C47.1045 26.353 47.4657 25.2977 47.1948 24.2423C46.9239 23.187 46.0659 22.4528 45.1854 22.4069C44.5306 22.9575 44.2371 23.967 44.508 24.9765C44.7564 25.9859 45.5241 26.6971 46.3594 26.8578ZM47.1497 26.8118C47.127 26.8118 47.1045 26.8118 47.1045 26.8349C47.6915 26.1465 47.9399 25.137 47.669 24.1276C47.398 23.1181 46.6981 22.3611 45.8401 22.0628C45.8627 22.0628 45.8853 22.0628 45.8853 22.0399C46.9916 21.7416 48.1656 22.5675 48.5269 23.8752C48.8656 25.2059 48.2559 26.5137 47.1497 26.8118ZM68.1473 27.6837C64.2639 17.7726 56.1357 10.018 46.0659 6.7372C46.0659 6.71426 46.0659 6.71426 46.0885 6.69131C42.7243 5.61302 39.1344 5.01651 35.4316 5.01651C35.0026 5.01651 34.5511 5.01651 34.1221 5.03946C33.5576 5.0624 33.0157 5.08534 32.4739 5.13123C32.4739 5.13123 32.4739 5.13123 32.4739 5.15417C31.1644 5.26888 29.8548 5.45241 28.5905 5.70479C28.884 5.47536 29.1098 5.20005 29.3807 4.97062C29.6742 4.71826 29.8097 4.39706 29.4936 4.07587C29.1775 3.77761 28.5678 3.50231 28.1615 3.43347C27.7325 3.36465 26.5584 3.29582 26.5584 3.29582C26.2875 2.9058 24.2554 0.152702 24.0748 0.152702C22.0202 -0.14555 16.6918 -0.673228 13.8244 5.93421C13.6212 6.39306 13.3502 6.82897 13.5986 7.31076C13.8018 7.70078 14.0953 8.11375 14.2082 8.54965C14.2308 8.66437 14.2082 8.80202 14.2534 8.91678C14.2759 9.03148 14.3437 9.10025 14.3888 9.19203C14.5017 9.39851 14.4565 9.605 14.5243 9.81148C14.5468 9.90326 14.6598 10.0639 14.7501 10.2244C14.2308 10.8897 14.4791 11.4175 14.5695 11.6698C14.592 11.7387 14.6371 11.8075 14.6598 11.8763C5.42531 18.7132 -0.467576 29.9091 0.0291421 42.4816C0.77422 61.3174 15.9467 76.5053 34.5059 76.9871C44.6886 77.2624 53.9683 73.1098 60.5836 66.3189C61.1255 65.7683 63.0898 63.4052 63.6091 62.8086L77.4269 62.5563L77.3817 39.3614C77.3817 39.1549 77.3592 38.9485 77.2914 38.7649L87 30.1156L68.1473 27.6837ZM76.4109 38.5813L71.8049 37.6407L51.575 34.3829L51.8008 61.8909L76.4109 61.3403V38.5813ZM15.9241 12.2434C15.9241 12.2434 15.8112 12.0139 15.7661 11.8992C15.7661 11.8992 15.4048 11.3945 15.4274 11.1192C15.5178 10.3851 16.0371 10.3621 16.3305 10.6603C16.1725 10.6603 15.9467 10.7292 15.8112 10.9128C15.6081 11.211 15.9918 11.6928 16.2628 12.1975C16.4434 11.8763 16.5111 11.3027 16.6467 11.3945C16.7821 11.3945 16.9853 11.6928 16.9401 11.8304C16.7821 11.9681 16.6467 12.0369 16.624 12.2434C16.6015 12.4269 16.8724 12.5416 17.0079 12.7481C17.0079 12.817 16.8724 12.9317 16.7595 12.8628C16.6467 12.7711 16.5337 12.6793 16.4434 12.5876C16.195 12.404 16.0596 12.4269 15.9241 12.2434ZM22.4041 9.00847C21.8621 9.605 22.0654 9.53614 21.2752 9.32966C21.0268 9.44445 20.8235 9.53614 20.4849 9.7197C21.3203 8.22846 22.9007 7.88432 23.8264 8.84791C23.6233 9.21495 23.6233 9.16911 23.3749 9.49029C23.0137 9.97212 22.3138 10.018 21.7267 9.88034C22.4718 9.46737 23.1265 9.49029 22.9234 9.14618C22.7653 9.12317 22.5847 9.0544 22.4041 9.00847ZM46.1788 71.3892L45.3885 63.4052L58.4613 63.1987C55.2552 66.3418 50.4461 69.8061 46.1788 71.3892ZM15.021 65.7223C16.7595 60.8356 18.3851 57.7842 17.1885 52.3469C16.6015 49.6397 4.25125 35.5759 10.3925 29.0373C10.528 28.8996 14.3888 22.0857 14.4114 22.0628C14.4791 21.8792 14.2308 21.1222 14.2985 20.9386C14.5695 20.1127 16.2854 17.7955 16.2854 17.2678C16.2628 16.7631 16.3531 16.1895 16.2628 15.6848C16.2402 15.593 16.2177 15.5013 16.1725 15.4324C15.9919 15.57 15.8338 15.7077 15.6532 15.8454C15.6532 15.8224 15.6532 15.8224 15.6532 15.7995C8.36047 21.7186 3.6868 30.8039 3.6868 41.0133C3.66421 50.9244 8.08952 59.8032 15.021 65.7223ZM15.2919 10.4309C15.2468 10.6374 15.1564 10.7981 15.0888 10.9586C15.0888 11.3257 15.2694 11.624 15.3371 11.7616C15.7435 12.404 16.1499 13.0464 16.5789 13.6658C16.8498 14.0559 17.0756 14.0788 17.5272 13.8723C17.324 13.1152 17.482 12.4728 17.2788 11.6928C17.5949 11.601 18.1593 11.9452 18.2496 12.1287C18.5206 12.7023 18.3174 12.8628 18.6561 13.3905C19.943 15.4783 22.246 12.7711 23.6684 11.8304C24.4812 11.4404 25.0456 11.6928 25.7908 12.1517C25.9939 11.7616 26.0843 11.5781 26.4907 11.5551C26.8745 11.5551 27.4615 11.7616 27.8454 11.8075C27.7776 11.4404 27.6873 11.0275 27.6196 10.6145C27.3486 10.6374 27.1003 10.6374 26.8745 10.6603C26.7616 11.211 26.4229 11.4863 25.7682 11.5322C25.8585 11.3257 25.9036 11.1422 26.0166 11.0275C26.2197 10.821 26.2649 10.5227 26.1069 10.2704C26.0391 10.1556 25.9263 10.018 25.836 9.92618C25.4521 9.53614 25.136 9.10025 24.9328 8.59554C24.8877 8.50376 24.8199 8.412 24.7522 8.32023C24.7296 8.32023 24.6844 8.34317 24.6619 8.34317C24.6619 8.43494 24.6619 8.54965 24.6393 8.64143C24.549 9.21495 24.5038 9.78856 24.3684 10.3621C24.278 10.7521 24.0297 11.0504 23.6684 11.2798C23.0814 11.624 22.4718 11.8075 21.7945 11.8534C21.0945 11.9222 20.5752 11.601 20.2592 10.9815C20.1011 10.6603 19.9656 10.3162 19.8302 9.99504C19.785 9.85742 19.7172 9.74262 19.6269 9.58207C19.4463 9.62792 19.2882 9.67385 19.1303 9.74262C18.9722 9.81148 18.8141 9.90326 18.6561 9.97212C18.7238 10.1327 18.7689 10.3162 18.7689 10.5456C18.7689 10.8668 18.7013 11.0733 18.5883 11.3486C18.5432 11.4863 18.5206 11.5781 18.498 11.6698C18.4529 11.9222 18.2723 11.6698 18.0239 11.601L17.3014 11.3945C17.3014 11.3945 17.1659 10.7063 16.8047 10.3162C16.308 9.78856 16.466 9.78856 15.7887 9.78856C15.5403 9.85742 15.3371 10.1786 15.2919 10.4309ZM18.5206 7.99903C18.7238 7.90726 19.0851 7.97609 19.3109 7.97609C19.514 7.97609 19.7172 7.97609 19.8979 7.97609C19.8302 7.99903 19.7624 7.99903 19.7172 8.02198C19.5818 8.06786 18.611 8.52671 17.9787 8.82496C17.8884 8.73319 17.7981 8.64143 17.7078 8.52671C17.5723 8.412 18.2948 8.11375 18.5206 7.99903ZM20.9139 8.48082C21.6364 8.11375 22.4041 8.06786 23.1943 8.06786C23.4201 8.06786 23.6684 8.09081 23.9845 8.11375C23.9845 8.36611 24.0297 8.5726 24.0071 8.77908C23.9394 9.28381 23.8039 9.76564 23.7361 10.2474C23.691 10.5227 23.5781 10.6833 23.3524 10.821C22.8104 11.1422 22.2235 11.2569 21.6364 11.2798C21.2525 11.3027 20.9816 11.0504 20.8235 10.7292C20.6655 10.3851 20.5075 9.99504 20.4172 9.62792C20.2591 9.16911 20.4849 8.68731 20.9139 8.48082ZM25.4746 5.10828C25.6553 5.08534 25.8133 5.24594 25.9263 5.36065C25.9714 5.40653 26.8068 6.50777 26.9196 6.64543C26.152 6.78308 25.2263 6.94368 24.5941 7.40253C24.4135 7.51724 24.1651 7.44841 23.962 7.44841C23.1265 7.44841 22.2911 7.49429 21.4783 7.60901C22.6524 6.87485 23.7361 5.31476 25.4746 5.10828ZM27.5067 8.38905C27.1455 8.29729 27.0099 7.9302 26.6939 7.88432C26.4004 7.83844 25.9036 8.11375 25.6101 8.09081C26.4229 7.44841 26.4681 7.44841 27.2583 7.70078L27.5067 8.38905ZM27.6873 9.97212C27.5744 10.018 27.4615 10.0409 27.3486 10.0868C27.01 10.1786 26.6939 10.1097 26.4456 9.74262C26.2649 9.49029 26.0391 9.26089 25.836 9.00847L25.6327 8.61848C25.9714 8.66437 25.8585 8.73319 26.1972 8.71025L26.6036 8.34317L26.7616 8.52671L26.2197 8.9397C26.4456 8.89377 27.1003 8.77908 27.3486 8.7332C27.6196 9.00847 27.4164 9.39851 27.597 9.69678C27.6196 9.69678 27.6648 9.8344 27.6873 9.97212ZM28.4098 7.81549C28.3195 7.31076 28.0937 7.12722 27.597 7.17311C27.8228 7.44841 27.8454 7.76961 27.9131 7.97609C28.0034 8.22846 28.184 9.0544 28.2066 9.69678C28.4098 9.51322 28.4775 9.23796 28.5002 8.7332C28.5002 8.43494 28.455 8.11375 28.4098 7.81549ZM17.5046 16.0289C17.482 16.8089 17.6627 17.6808 17.3691 18.4149C16.624 20.2733 23.9619 22.9805 24.6167 22.8887C24.8425 22.2234 25.2263 20.9157 25.4295 19.7915C23.1943 20.0209 20.8913 19.1032 19.356 17.199C18.8141 16.5337 18.4303 15.7307 17.9787 14.9965C17.8884 14.8589 17.8433 14.6982 17.7755 14.5606C17.64 14.5835 17.5272 14.6294 17.4143 14.6294C17.5497 15.0654 17.5272 15.7536 17.5046 16.0289Z" fill="#1E1E1E"/>
</svg>
