<svg width="43" height="43" viewBox="0 0 43 43" fill="none" xmlns="http://www.w3.org/2000/svg">
<path d="M41.4225 18.9424L33.6762 5.52541C33.2273 4.74779 32.5815 4.10205 31.8039 3.65309C31.0263 3.20413 30.1442 2.96777 29.2463 2.96777H13.7537C12.8558 2.96778 11.9737 3.20414 11.1961 3.6531C10.4185 4.10206 9.77274 4.7478 9.32378 5.52541L1.5775 18.9424C1.12855 19.72 0.892197 20.6021 0.892197 21.5C0.892197 22.3979 1.12855 23.28 1.5775 24.0576L9.32378 37.4746C9.77274 38.2522 10.4185 38.8979 11.1961 39.3469C11.9737 39.7959 12.8558 40.0322 13.7537 40.0322H29.2463C30.1442 40.0322 31.0263 39.7959 31.8039 39.3469C32.5816 38.8979 33.2273 38.2522 33.6763 37.4746L41.4225 24.0576C41.8715 23.28 42.1079 22.3979 42.1079 21.5C42.1079 20.6021 41.8715 19.72 41.4225 18.9424ZM17.9785 9.87404C18.675 9.87403 19.3558 10.0806 19.9349 10.4675C20.5141 10.8544 20.9654 11.4044 21.232 12.0479C21.4985 12.6914 21.5682 13.3994 21.4324 14.0825C21.2965 14.7657 20.9611 15.3931 20.4686 15.8856C19.9761 16.3781 19.3486 16.7135 18.6655 16.8494C17.9824 16.9853 17.2744 16.9155 16.6309 16.649C15.9874 16.3824 15.4374 15.9311 15.0505 15.352C14.6635 14.7728 14.457 14.092 14.457 13.3955C14.457 12.4616 14.828 11.5659 15.4884 10.9055C16.1488 10.2451 17.0445 9.87405 17.9785 9.87404ZM25.0215 33.126C24.325 33.126 23.6442 32.9195 23.0651 32.5326C22.4859 32.1456 22.0346 31.5956 21.768 30.9522C21.5015 30.3087 21.4318 29.6006 21.5676 28.9175C21.7035 28.2344 22.0389 27.6069 22.5314 27.1144C23.0239 26.622 23.6514 26.2866 24.3345 26.1507C25.0176 26.0148 25.7257 26.0845 26.3691 26.3511C27.0126 26.6176 27.5626 27.069 27.9495 27.6481C28.3365 28.2272 28.543 28.9081 28.543 29.6046C28.543 30.5385 28.172 31.4342 27.5116 32.0946C26.8512 32.755 25.9555 33.126 25.0215 33.126ZM31.0324 15.5902L15.5901 31.0324C15.1098 31.5128 14.4582 31.7826 13.7789 31.7826C13.0995 31.7826 12.448 31.5128 11.9676 31.0324C11.4872 30.552 11.2174 29.9005 11.2174 29.2211C11.2174 28.5418 11.4872 27.8903 11.9676 27.4099L27.4099 11.9676C27.6477 11.7297 27.9301 11.541 28.2409 11.4123C28.5517 11.2836 28.8848 11.2173 29.2212 11.2173C29.5575 11.2173 29.8906 11.2836 30.2014 11.4123C30.5122 11.541 30.7946 11.7297 31.0324 11.9676C31.5128 12.448 31.7827 13.0995 31.7827 13.7788C31.7827 14.4582 31.5128 15.1098 31.0324 15.5902Z" fill="#1E1E1E"/>
</svg>
