<svg width="76" height="30" viewBox="0 0 76 30" fill="none" xmlns="http://www.w3.org/2000/svg">
<path d="M43.36 9.9V19H42.45V11.278L39.265 16.608H39.135L35.95 11.278V19H35.04V9.9H36.171L39.2 14.97L42.229 9.9H43.36ZM48.3105 12.344C49.2811 12.344 50.0568 12.6863 50.6375 13.371C51.2355 14.047 51.5345 14.8487 51.5345 15.776C51.5345 15.8193 51.5301 15.8757 51.5215 15.945C51.5215 16.0143 51.5171 16.0923 51.5085 16.179H45.8015C45.8881 16.8377 46.1655 17.362 46.6335 17.752C47.1015 18.1333 47.6865 18.324 48.3885 18.324C48.8825 18.324 49.3071 18.2243 49.6625 18.025C50.0265 17.817 50.2995 17.5483 50.4815 17.219L51.2355 17.661C50.9495 18.129 50.5595 18.4973 50.0655 18.766C49.5715 19.026 49.0081 19.156 48.3755 19.156C47.3528 19.156 46.5208 18.8353 45.8795 18.194C45.2381 17.5527 44.9175 16.738 44.9175 15.75C44.9175 14.7707 45.2338 13.9603 45.8665 13.319C46.4991 12.669 47.3138 12.344 48.3105 12.344ZM48.3105 13.176C47.9725 13.176 47.6605 13.228 47.3745 13.332C47.0885 13.436 46.8328 13.5833 46.6075 13.774C46.3908 13.9647 46.2131 14.1943 46.0745 14.463C45.9358 14.7317 45.8448 15.0263 45.8015 15.347H50.6505C50.5551 14.6537 50.2908 14.1207 49.8575 13.748C49.4068 13.3667 48.8911 13.176 48.3105 13.176ZM57.5013 12.5H58.3593V19H57.5013V16.166H53.7573V19H52.8993V12.5H53.7573V15.334H57.5013V12.5ZM65.7247 12.344C66.678 12.344 67.484 12.6733 68.1427 13.332C68.81 13.982 69.1437 14.788 69.1437 15.75C69.1437 16.7033 68.81 17.5137 68.1427 18.181C67.4753 18.831 66.6693 19.156 65.7247 19.156C64.858 19.156 64.104 18.8743 63.4627 18.311C62.83 17.7303 62.4703 17.0153 62.3837 16.166H61.0317V19H60.1737V12.5H61.0317V15.334H62.3837C62.479 14.476 62.8387 13.7653 63.4627 13.202C64.0953 12.63 64.8493 12.344 65.7247 12.344ZM63.9047 17.583C64.3987 18.077 65.0053 18.324 65.7247 18.324C66.444 18.324 67.0507 18.077 67.5447 17.583C68.0387 17.0803 68.2857 16.4693 68.2857 15.75C68.2857 15.0307 68.0387 14.424 67.5447 13.93C67.0507 13.4273 66.444 13.176 65.7247 13.176C65.0053 13.176 64.3987 13.4273 63.9047 13.93C63.4107 14.424 63.1637 15.0307 63.1637 15.75C63.1637 16.4693 63.4107 17.0803 63.9047 17.583Z" fill="black"/>
<path d="M3.75 7.5H26.25V10H3.75V7.5ZM3.75 13.75H26.25V16.25H3.75V13.75ZM3.75 20H26.25V22.5H3.75V20Z" fill="black"/>
</svg>
