<svg width="110" height="97" viewBox="0 0 110 97" fill="none" xmlns="http://www.w3.org/2000/svg">
<path d="M89.3468 53.1914V74.4452L54.4474 84.9487V12.1875L63.9858 15.0603C65.31 11.8733 67.2401 9.00058 69.5967 6.53181L50.9912 0.943432C50.9014 0.920988 50.8116 0.898545 50.7218 0.876102C50.6321 0.853659 50.5423 0.831215 50.4525 0.808772C49.869 0.696555 49.2855 0.696555 48.7019 0.808772C48.6122 0.831215 48.5224 0.853659 48.4326 0.876102C48.3428 0.898545 48.2531 0.898545 48.1633 0.943432L38.1536 3.95083L28.2337 6.93579V31.9376L17.1916 34.0249V10.235L7.54093 13.1301L3.4787 14.3421C1.41391 14.9705 -1.52588e-05 16.8557 -1.52588e-05 19.0103V78.0362C-1.52588e-05 80.1907 1.41391 82.0984 3.4787 82.7044L48.1409 96.1479C48.5897 96.2826 49.0835 96.3499 49.5548 96.3499C50.0261 96.3499 50.4974 96.2826 50.9687 96.1479L95.6309 82.7044C97.6957 82.076 99.1096 80.1907 99.1096 78.0362V51.396C96.1022 52.5406 92.8479 53.1914 89.4365 53.1914C89.3916 53.1914 89.3692 53.1914 89.3468 53.1914Z" fill="#FFD600"/>
<path d="M89.4365 5.97119C78.574 5.97119 69.7986 14.769 69.7986 25.6091C69.7986 36.4716 78.5964 45.247 89.4365 45.247C100.277 45.247 109.074 36.4492 109.074 25.6091C109.074 14.769 100.277 5.97119 89.4365 5.97119ZM90.6709 29.9182L86.9004 33.6662L83.1524 29.8958L79.539 26.2599L83.3095 22.5119L86.9229 26.1477L95.586 17.5295L99.334 21.3L90.6709 29.9182Z" fill="#FFD600"/>
</svg>
