<svg width="110" height="110" viewBox="0 0 110 110" fill="none" xmlns="http://www.w3.org/2000/svg">
<g clip-path="url(#clip0_66_64)">
<path d="M106.291 62.7768V53.1486C106.291 49.6026 103.374 46.5727 99.7156 46.5727L90.9851 45.8096L83.2646 34.1616C83.13 34.0269 83.13 33.9147 83.0178 33.78C81.8732 32.1417 79.8533 30.9971 77.6987 30.9971H61.2478H29.9843C26.6851 30.9971 23.9021 33.5332 23.5206 36.6977H2.64831C1.25682 36.6977 0 37.8423 0 39.346C0 40.7375 1.14461 41.9943 2.64831 41.9943H26.5729C26.7075 41.9943 26.8197 41.9943 26.9544 41.9943C28.2112 42.1289 29.2212 43.2511 29.2212 44.5304C29.2212 45.9219 28.0766 47.1787 26.5729 47.1787H23.4084H8.97732C7.58584 47.1787 6.32901 48.3233 6.32901 49.827C6.32901 51.2185 7.47362 52.4753 8.97732 52.4753H23.4084H35.1687C36.5601 52.4753 37.817 53.6199 37.817 55.1236C37.817 56.5151 36.6724 57.7719 35.1687 57.7719H23.4084H16.5632C15.1717 57.7719 13.9148 58.9165 13.9148 60.4202C13.9148 61.8117 15.0595 63.0685 16.5632 63.0685H23.3859C21.7476 63.4501 20.603 64.9762 20.603 66.7492V71.5521C20.603 73.572 22.2413 75.345 24.3959 75.345H29.7149C30.8595 79.5195 34.7871 82.684 39.3431 82.684C43.8991 82.684 47.8267 79.7215 48.9488 75.4348H61.0907H81.8507C82.9953 79.6093 86.9229 82.7738 91.4789 82.7738C96.0349 82.7738 99.9625 79.7439 101.107 75.4348H105.798C107.818 75.4348 109.591 73.7964 109.591 71.6419V66.839C109.703 64.5498 108.177 62.889 106.291 62.7768ZM39.3431 77.2078C36.5601 77.2078 34.2709 74.9411 34.2709 72.1356C34.2709 69.3302 36.5377 67.0634 39.3431 67.0634C42.1261 67.0634 44.4153 69.3302 44.4153 72.1356C44.4153 74.9411 42.1261 77.2078 39.3431 77.2078ZM91.6136 77.2078C88.8306 77.2078 86.5414 74.9411 86.5414 72.1356C86.5414 69.3302 88.8081 67.0634 91.6136 67.0634C94.3965 67.0634 96.6857 69.3302 96.6857 72.1356C96.6857 74.9411 94.3965 77.2078 91.6136 77.2078Z" fill="#FFD600"/>
<path d="M47.1309 94.7134L35.3033 87.8906C34.6973 87.5316 33.9118 87.9804 33.9118 88.6986V92.4466H16.4509C11.7154 92.4466 7.8776 88.6088 7.8776 83.8733V74.8735H1.70569V83.8733C1.70569 91.9978 8.32646 98.6185 16.4509 98.6185H33.9343V102.367C33.9343 103.085 34.6973 103.534 35.3257 103.175L47.1534 96.3518C47.7593 95.9702 47.7593 95.0725 47.1309 94.7134Z" fill="#FFD600"/>
<path d="M56.3551 14.8605L68.1827 21.6832C68.7887 22.0423 69.5742 21.5935 69.5742 20.8753V17.1497H87.0575C91.7931 17.1497 95.6309 20.9875 95.6309 25.723V34.7228H101.803V25.723C101.803 17.5986 95.182 10.9778 87.0575 10.9778H69.5742V7.22975C69.5742 6.51157 68.8111 6.0627 68.1827 6.42179L56.3551 13.2446C55.7491 13.6036 55.7491 14.5014 56.3551 14.8605Z" fill="#FFD600"/>
</g>
<defs>
<clipPath id="clip0_66_64">
<rect width="109.596" height="109.596" fill="white"/>
</clipPath>
</defs>
</svg>
