<svg width="110" height="110" viewBox="0 0 110 110" fill="none" xmlns="http://www.w3.org/2000/svg">
<g clip-path="url(#clip0_66_41)">
<path d="M89.9078 28.2835C92.6459 31.8744 94.778 35.7796 96.4388 40.1111C99.8727 38.8543 103.239 37.6424 106.785 36.3407C102.701 25.4781 96.0349 16.815 86.5862 10.0371C84.4766 13.0445 82.4118 15.9846 80.2797 19.0369C83.9379 21.7076 87.1698 24.7375 89.9078 28.2835Z" fill="#FFD600"/>
<path d="M73.6589 15.1316C75.1851 11.8773 76.6888 8.62301 78.3047 5.16674C60.5969 -2.28443 43.338 -1.92534 26.8422 7.88238C10.885 17.3759 2.22189 31.8069 0 50.39C3.79292 50.7266 7.38385 51.0408 10.9523 51.3551C12.9049 23.2785 43.9215 1.75536 73.6589 15.1316Z" fill="#FFD600"/>
<path d="M10.7728 59.0532C7.36139 59.345 3.81535 59.6592 0.291748 59.951C1.12215 82.3943 20.6927 107.621 50.1832 110C50.4974 106.364 50.8116 102.818 51.1034 99.3614C28.0541 95.546 14.6779 82.1698 10.7728 59.0532Z" fill="#FFD600"/>
<path d="M90.2894 55.2833C90.2894 35.825 74.4669 20.0024 55.0085 20.0024C35.5502 20.0024 19.7277 35.825 19.7277 55.2833C19.7277 74.7416 35.5502 90.5642 55.0085 90.5642C74.4669 90.5642 90.2894 74.7416 90.2894 55.2833ZM57.1631 62.6672L50.6994 69.1084L44.2582 62.6447L38.0638 56.4055L44.5275 49.9642L50.7219 56.2035L65.5344 41.4582L71.9757 47.9219L57.1631 62.6672Z" fill="#FFD600"/>
<path d="M109.209 45.6548C105.685 46.2608 102.117 46.8892 98.4363 47.5176C100.344 60.3776 97.6956 71.9359 89.8405 82.1027C82.0302 92.2022 71.5941 97.7457 58.8014 99.1596C59.1156 102.795 59.4298 106.319 59.7216 109.865C86.474 108.922 115.157 82.0578 109.209 45.6548Z" fill="#FFD600"/>
</g>
<defs>
<clipPath id="clip0_66_41">
<rect width="110" height="110" fill="white"/>
</clipPath>
</defs>
</svg>
