<svg width="110" height="110" viewBox="0 0 110 110" fill="none" xmlns="http://www.w3.org/2000/svg">
<g clip-path="url(#clip0_66_51)">
<path d="M100.546 17.3486H8.79777C3.95002 17.3486 0 21.2987 0 26.1464V83.1973C0 88.045 3.95002 91.995 8.79777 91.995H100.546C105.394 91.995 109.344 88.045 109.344 83.1973V26.1464C109.344 21.2987 105.394 17.3486 100.546 17.3486ZM101.085 83.1973C101.085 83.4891 100.838 83.7359 100.546 83.7359H8.79777C8.50601 83.7359 8.25913 83.4891 8.25913 83.1973V33.2385H101.062V83.1973H101.085ZM42.1036 46.6596V43.1809C42.1036 42.5749 42.5974 42.1036 43.1809 42.1036H88.4042C89.0101 42.1036 89.4814 42.5973 89.4814 43.1809V46.6596C89.4814 47.2656 88.9877 47.7369 88.4042 47.7369H43.1809C42.5749 47.7593 42.1036 47.2656 42.1036 46.6596ZM42.1036 56.0633V52.5846C42.1036 51.9786 42.5974 51.5073 43.1809 51.5073H75.0953C75.7012 51.5073 76.1726 52.0011 76.1726 52.5846V56.0633C76.1726 56.6693 75.6788 57.1406 75.0953 57.1406H43.1809C42.5749 57.1406 42.1036 56.6469 42.1036 56.0633ZM42.1036 65.4446V61.9659C42.1036 61.3599 42.5974 60.8886 43.1809 60.8886H88.4042C89.0101 60.8886 89.4814 61.3824 89.4814 61.9659V65.4446C89.4814 66.0506 88.9877 66.5219 88.4042 66.5219H43.1809C42.5749 66.5219 42.1036 66.0506 42.1036 65.4446ZM42.1036 74.8259V71.3472C42.1036 70.7412 42.5974 70.2699 43.1809 70.2699H49.8241H54.4474H67.3523C67.9583 70.2699 68.4296 70.7637 68.4296 71.3472V74.8259C68.4296 75.4319 67.9359 75.9032 67.3523 75.9032H54.4474H49.8241H43.1809C42.5749 75.9032 42.1036 75.4319 42.1036 74.8259Z" fill="#FFD600"/>
<path d="M22.9992 63.5369V65.2041H31.3858V69.3305H22.9992V73.1651H15.6763V69.3305H13.0171V65.2041H15.6763V63.5369H13.0171V56.9097H15.6763V43.9888H26.8039C29.6948 43.9888 32.1222 44.9057 34.0859 46.7397C36.0496 48.5736 37.0314 50.9216 37.0314 53.7837C37.0314 56.8124 36.0632 59.2021 34.1268 60.9527C32.1904 62.6755 29.7494 63.5369 26.8039 63.5369H22.9992ZM22.9992 51.0744V56.9097H26.8039C27.6493 56.9097 28.3448 56.6457 28.8903 56.1178C29.4357 55.5898 29.7085 54.8813 29.7085 53.9921C29.7085 53.1029 29.4357 52.3943 28.8903 51.8664C28.3448 51.3384 27.6493 51.0744 26.8039 51.0744H22.9992Z" fill="#FFD600"/>
</g>
<defs>
<clipPath id="clip0_66_51">
<rect width="109.344" height="109.344" fill="white"/>
</clipPath>
</defs>
</svg>
