<svg width="231" height="231" viewBox="0 0 231 231" fill="none" xmlns="http://www.w3.org/2000/svg">
<g clip-path="url(#clip0_74_20)">
<path d="M228.73 139.645L195.858 88.8477C193.304 84.922 189 82.5571 184.318 82.5571H169.797C167.669 82.5571 166.392 84.922 167.574 86.672L203.047 141.537C203.52 142.246 203 143.192 202.149 143.192H186.588H173.912H161.757C160.291 143.192 159.155 144.375 159.061 145.794C157.689 168.686 138.723 186.848 115.453 186.848C92.1824 186.848 73.2162 168.686 71.8446 145.794C71.75 144.327 70.6149 143.192 69.1487 143.192H56.9932H46.1149H28.8041C27.9527 143.192 27.4797 142.246 27.9054 141.537L63.3784 86.672C64.5135 84.8747 63.2365 82.5571 61.1554 82.5571H46.6351C41.9527 82.5571 37.6486 84.922 35.0946 88.8477L2.27027 139.645C0.804054 141.915 0 144.611 0 147.354V218.111C0 225.017 5.62838 230.645 12.5338 230.645H115.5H218.466C225.372 230.645 231 225.017 231 218.111V147.354C231 144.611 230.243 141.963 228.73 139.645Z" fill="#1E1E1E"/>
<path d="M111.716 141.632C113.655 144.091 117.392 144.091 119.331 141.632L150.5 101.996C153.007 98.8275 150.737 94.145 146.716 94.145H134.419V19.2734C134.419 8.82071 125.953 0.354492 115.5 0.354492C105.047 0.354492 96.5811 8.82071 96.5811 19.2734V94.145H84.2838C80.2636 94.145 77.9933 98.8275 80.5 101.996L111.716 141.632Z" fill="#1E1E1E"/>
</g>
<defs>
<clipPath id="clip0_74_20">
<rect width="231" height="231" fill="white"/>
</clipPath>
</defs>
</svg>
