<svg width="109" height="109" viewBox="0 0 109 109" fill="none" xmlns="http://www.w3.org/2000/svg">
<g clip-path="url(#clip0_66_55)">
<path d="M32.1276 38.7147H35.8756V7.63072C35.8756 5.94747 37.2447 4.57843 38.9279 4.57843H56.5683V38.7147H60.2939H63.6604H68.3511V4.57843H69.4957C71.1789 4.57843 72.548 5.94747 72.548 7.63072V38.7147H76.296C77.1488 38.7147 77.8221 38.0189 77.8221 37.1885V8.46112C77.8221 3.81536 74.0292 0 69.361 0H39.0626C34.4168 0 30.6014 3.79292 30.6014 8.46112V37.1661C30.6014 38.019 31.2972 38.7147 32.1276 38.7147Z" fill="#FFD600"/>
<path d="M82.3781 29.1763V30.8595V39.0513C82.3781 41.3181 80.5378 43.1584 78.271 43.1584H30.1974C27.9307 43.1584 26.0903 41.3181 26.0903 39.0513V30.882V29.1987C21.7139 29.9393 18.3698 33.7323 18.3698 38.3331V99.1994C18.3698 104.316 22.5218 108.446 27.6165 108.446H80.8295C85.9466 108.446 90.0762 104.294 90.0762 99.1994V38.3107C90.0986 33.7098 86.7546 29.9169 82.3781 29.1763ZM38.075 99.2667C35.7409 99.2667 33.8557 97.3815 33.8557 95.0474C33.8557 92.7133 35.7409 90.828 38.075 90.828C40.4091 90.828 42.2944 92.7133 42.2944 95.0474C42.2719 97.3815 40.3867 99.2667 38.075 99.2667ZM38.075 86.5189C35.7409 86.5189 33.8557 84.6337 33.8557 82.2996C33.8557 79.9655 35.7409 78.0802 38.075 78.0802C40.4091 78.0802 42.2944 79.9655 42.2944 82.2996C42.2719 84.6337 40.3867 86.5189 38.075 86.5189ZM38.075 73.7936C35.7409 73.7936 33.8557 71.9083 33.8557 69.5742C33.8557 67.2401 35.7409 65.3549 38.075 65.3549C40.4091 65.3549 42.2944 67.2401 42.2944 69.5742C42.2719 71.9083 40.3867 73.7936 38.075 73.7936ZM54.2342 99.2667C51.9001 99.2667 50.0149 97.3815 50.0149 95.0474C50.0149 92.7133 51.9001 90.828 54.2342 90.828C56.5683 90.828 58.4536 92.7133 58.4536 95.0474C58.4536 97.3815 56.5683 99.2667 54.2342 99.2667ZM54.2342 86.5189C51.9001 86.5189 50.0149 84.6337 50.0149 82.2996C50.0149 79.9655 51.9001 78.0802 54.2342 78.0802C56.5683 78.0802 58.4536 79.9655 58.4536 82.2996C58.4536 84.6337 56.5683 86.5189 54.2342 86.5189ZM54.2342 73.7936C51.9001 73.7936 50.0149 71.9083 50.0149 69.5742C50.0149 67.2401 51.9001 65.3549 54.2342 65.3549C56.5683 65.3549 58.4536 67.2401 58.4536 69.5742C58.4536 71.9083 56.5683 73.7936 54.2342 73.7936ZM70.3934 99.2667C68.0593 99.2667 66.1741 97.3815 66.1741 95.0474C66.1741 92.7133 68.0593 90.828 70.3934 90.828C72.7275 90.828 74.6127 92.7133 74.6127 95.0474C74.6127 97.3815 72.7275 99.2667 70.3934 99.2667ZM70.3934 86.5189C68.0593 86.5189 66.1741 84.6337 66.1741 82.2996C66.1741 79.9655 68.0593 78.0802 70.3934 78.0802C72.7275 78.0802 74.6127 79.9655 74.6127 82.2996C74.6127 84.6337 72.7275 86.5189 70.3934 86.5189ZM70.3934 73.7936C68.0593 73.7936 66.1741 71.9083 66.1741 69.5742C66.1741 67.2401 68.0593 65.3549 70.3934 65.3549C72.7275 65.3549 74.6127 67.2401 74.6127 69.5742C74.6127 71.9083 72.7275 73.7936 70.3934 73.7936ZM75.084 58.8239C75.084 60.1256 74.0292 61.158 72.7499 61.158H35.7409C34.4392 61.158 33.4068 60.1031 33.4068 58.8239V52.4724C33.4068 51.1707 34.4617 50.1383 35.7409 50.1383H72.7499C74.0517 50.1383 75.084 51.1931 75.084 52.4724V58.8239Z" fill="#FFD600"/>
</g>
<defs>
<clipPath id="clip0_66_55">
<rect width="108.446" height="108.446" fill="white"/>
</clipPath>
</defs>
</svg>
