<svg width="624" height="230" viewBox="0 0 624 230" fill="none" xmlns="http://www.w3.org/2000/svg">
<mask id="mask0_44_514" style="mask-type:alpha" maskUnits="userSpaceOnUse" x="0" y="0" width="624" height="230">
<rect width="624" height="230" rx="20" fill="#F8D000"/>
</mask>
<g mask="url(#mask0_44_514)">
<mask id="mask1_44_514" style="mask-type:alpha" maskUnits="userSpaceOnUse" x="146" y="-11" width="483" height="511">
<path d="M323.876 198.021L293.575 207.023L203.112 224.589C184.376 248.229 146.727 303.81 146.024 337.009C145.146 378.508 168.64 383.119 178.081 396.073C187.523 409.028 413.021 497.954 468.572 499.271C524.124 500.589 617.441 443.5 626.443 438.889C633.645 435.201 618.319 388.461 609.756 365.553L626.443 302.317C626.516 272.163 626.619 210.537 626.443 205.267C626.224 198.68 613.928 162.451 602.949 152.131C591.971 141.811 560.133 103.167 559.474 98.3363C558.947 94.4719 562.768 82.82 564.744 77.4772C569.575 68.7676 579.455 48.7135 580.333 38.1741C581.431 24.9999 569.135 9.63004 548.935 -4.20287C528.734 -18.0358 521.05 -6.61814 515.78 -5.73986C510.51 -4.86158 469.89 41.0286 468.572 45.6395C467.255 50.2505 476.477 53.7636 482.844 55.5202C489.212 57.2767 486.138 55.7397 485.26 64.0834C484.557 70.7583 486.87 76.3793 488.114 78.3555L482.844 86.0404C440.321 103.533 352.508 141.24 341.441 152.131C330.375 163.022 325.12 187.262 323.876 198.021Z" fill="#FFE34E"/>
</mask>
<g mask="url(#mask1_44_514)">
<path fill-rule="evenodd" clip-rule="evenodd" d="M499.406 94.7835C499.64 96.2471 499.852 98.3395 500.228 99.1545C500.906 99.5465 501.603 100.06 502.381 100.311C502.52 100.414 502.64 100.395 502.899 100.478C503.66 99.856 504.402 99.1121 504.642 99.0737C506.881 98.4656 509.234 99.3397 511.147 100.535C511.425 100.74 512.064 100.888 512.823 101.017C519.199 99.3713 523.39 94.8236 521.929 95.6826C516.015 96.3789 513.218 96.5759 506.106 92.0855C505.044 93.1312 501.924 94.3807 499.406 94.7835ZM462.598 222.868C463.61 224.582 464.485 225.443 465.439 226.791C468.121 230.489 470.549 232.602 472.495 235.543C474.084 237.79 475.676 239.286 473.373 241.031C470.509 243.114 465.84 236.982 464.17 234.998L461.329 231.076C459.045 227.564 456.642 224.071 454.56 220.277C453.509 218.319 450.628 219.53 451.958 221.693C455.173 227.183 457.119 230.123 460.615 235.067L462.622 237.623C464.153 239.504 463.735 239.196 465.903 241.225C467.153 243.651 466.642 246.61 464.325 246.73C460.53 246.837 455.409 238.651 453.045 235.403C451.773 233.605 450.742 231.769 449.59 229.952L444.57 221.625C443.674 220.642 442.015 221.033 441.99 222.413C441.988 223.163 444.589 227.125 445.124 228.165C447.663 232.511 452.607 240.351 455.768 243.972C456.663 244.955 456.942 245.16 457.335 246.848C457.67 248.171 457.485 249.326 456.624 250.089C453.939 252.519 448.957 244.437 447.627 242.273C446.615 240.559 445.324 238.639 444.292 236.803C443.777 235.885 443.261 234.967 442.726 233.927C441.396 231.763 439.514 227.687 438.145 225.279C437.788 224.586 437.036 222.955 435.555 223.692C434.434 224.372 435.009 225.656 435.505 226.452L435.524 226.574L435.544 226.696L435.563 226.818L435.583 226.94L435.602 227.062L435.622 227.184L435.641 227.306L435.661 227.428L435.68 227.55L435.7 227.671L435.719 227.794L435.739 227.916L435.758 228.037L435.778 228.159L435.797 228.282L435.817 228.403L435.836 228.525L435.856 228.647L435.875 228.769L435.895 228.891L435.914 229.013L435.934 229.135L435.953 229.257L435.973 229.379L435.992 229.501L436.012 229.623L436.031 229.745L436.051 229.867L436.07 229.989L436.09 230.111L436.109 230.233L436.129 230.354L436.148 230.476L436.168 230.599L436.187 230.72L436.207 230.842L436.226 230.964L436.246 231.086L436.266 231.208L436.285 231.33L436.305 231.452L436.324 231.574L436.344 231.696L436.363 231.818L436.383 231.94L436.402 232.062L436.422 232.184L436.441 232.306L436.461 232.428L436.48 232.549L436.5 232.671L436.519 232.794L436.539 232.916L436.558 233.037L436.578 233.159L436.597 233.282L436.617 233.403L436.636 233.525L436.656 233.647L436.675 233.769L436.695 233.891L436.714 234.013L436.734 234.135L436.753 234.257L436.773 234.379L436.792 234.501L436.812 234.623L436.831 234.745L436.851 234.866L436.87 234.989L436.89 235.111L436.909 235.232L436.929 235.354L436.948 235.477L436.968 235.598L436.987 235.72L437.007 235.842L437.026 235.964L437.046 236.086L437.065 236.208L437.085 236.33L437.104 236.452L437.124 236.574L437.144 236.696L437.163 236.818L437.183 236.94L437.202 237.062L437.222 237.184L437.241 237.306L437.261 237.428L437.28 237.549L437.3 237.672L437.319 237.794L437.339 237.915L437.358 238.037L437.378 238.159L437.397 238.281L437.417 238.403L437.436 238.525L437.456 238.647L437.475 238.769L437.495 238.891L437.514 239.013L437.534 239.135L437.553 239.257L437.573 239.379L437.592 239.501L437.612 239.623L437.631 239.745L437.651 239.867L437.67 239.989L437.69 240.111L437.709 240.232L437.729 240.354L437.748 240.477L437.768 240.598L437.787 240.72L437.807 240.842L437.826 240.964L437.846 241.086L437.865 241.208L437.885 241.33L437.904 241.452L437.924 241.574L437.943 241.696L437.963 241.818L437.982 241.94L438.002 242.062L441.236 247.673L441.256 247.795L441.275 247.917L441.295 248.039L441.314 248.161L441.334 248.282L441.353 248.405C441.353 248.405 441.353 248.405 441.373 248.527C441.373 248.527 441.373 248.527 441.392 248.648L441.412 248.77C441.412 248.77 441.412 248.77 441.431 248.892C441.431 248.892 441.431 248.892 441.451 249.014C441.451 249.014 441.451 249.014 441.47 249.136L441.49 249.258C441.49 249.258 441.49 249.258 441.509 249.38C441.509 249.38 441.509 249.38 441.529 249.502C441.529 249.502 441.529 249.502 441.548 249.624C441.548 249.624 441.548 249.624 441.568 249.746C441.568 249.746 441.568 249.746 441.448 249.765C441.448 249.765 441.448 249.765 441.328 249.784C441.328 249.784 441.328 249.784 441.208 249.804C441.208 249.804 441.208 249.804 441.088 249.823C441.088 249.823 441.088 249.823 440.968 249.842C440.968 249.842 440.968 249.842 440.848 249.861C440.728 249.88 440.848 249.861 440.728 249.88C440.728 249.88 440.728 249.88 440.609 249.899C440.609 249.899 440.609 249.899 440.489 249.919C440.489 249.919 440.489 249.919 440.369 249.938C440.369 249.938 440.369 249.938 440.249 249.957C440.249 249.957 440.249 249.957 440.129 249.976L440.009 249.995L439.889 250.015L439.769 250.034L439.65 250.053L439.529 250.072L439.41 250.091L439.29 250.11L439.17 250.13L439.05 250.149L438.93 250.168C438.93 250.168 438.81 250.187 438.791 250.065C438.791 250.065 438.671 250.084 438.652 249.963C438.652 249.963 438.531 249.982 438.512 249.86C438.512 249.86 438.392 249.879 438.372 249.757C438.372 249.757 438.253 249.776 438.233 249.654L438.093 249.552L437.954 249.448L437.815 249.346L437.675 249.243L437.536 249.14L437.397 249.038L437.257 248.935L437.118 248.832L436.978 248.729L436.839 248.627C436.839 248.627 436.699 248.524 436.68 248.402C436.66 248.28 436.541 248.299 436.521 248.177C436.502 248.055 436.382 248.075 436.362 247.952C436.343 247.83 436.223 247.849 436.204 247.728C436.184 247.606 436.064 247.625 436.044 247.503C436.025 247.381 435.905 247.4 435.886 247.278C435.866 247.156 435.746 247.176 435.727 247.054C435.707 246.931 435.587 246.95 435.568 246.829C434.614 245.48 433.978 244.582 432.847 242.886C432.331 241.969 431.695 241.07 431.18 240.151C428.818 236.152 427.215 232.281 425.59 229.039C424.399 226.978 423.248 225.161 422.136 223.588L422.255 223.569C419.372 220.153 415.466 218.026 407.857 218.118L419.691 215.224L448.886 210.178C448.906 210.3 449.045 210.403 449.064 210.525L449.006 210.159L450.325 209.948L461.115 208.221C461.793 208.613 462.49 209.127 463.307 209.622C478.006 220.028 486.785 232.631 465.065 219.847C462.754 218.465 460.683 217.046 459.11 215.671C460.119 218.137 461.109 220.48 461.881 222.232C462.079 222.701 462.417 223.272 462.734 223.721L462.598 222.868ZM425.696 222.018L403.937 225.124L443.123 255.626L454.312 254.086C452.481 252.628 450.93 250.624 450.116 249.379C449.216 249.898 447.23 252.092 444.122 250.338C440.196 248.09 431.793 230.923 425.696 222.018ZM462.465 252.781L524.865 243.923L524.565 222.834L500.326 211.204L477.128 214.54C484.77 221.572 490.29 229.944 483.177 230.832C485.089 232.027 490.337 238.691 488.468 241.617C487.183 243.574 485.404 243.983 482.131 243.506C482.878 246.639 482.189 249.251 479.629 250.16C476.95 251.089 473.942 249.194 471.789 248.038C471.184 249.635 470.381 250.764 468.641 251.418C466.441 252.27 465.067 251.364 462.953 250.452C462.97 251.325 462.847 252.095 462.465 252.781ZM476.602 226.631C480.768 228.841 485.315 230.365 483.417 225.415C483.021 224.478 481.987 223.393 480.693 222.224C480.791 222.834 480.648 223.482 480.386 224.149C479.801 225.869 478.301 226.484 476.602 226.631ZM467.781 225.29L469.967 228.193C472.233 230.832 474.422 232.983 476.267 236.065C477.299 237.901 476.78 237.734 477.477 238.248C478.593 239.07 483.594 241.897 485.438 240.351C487.621 238.626 485.198 235.011 484.002 234.452C481.111 233.289 479.814 232.871 477.205 231.162C474.595 229.454 472.086 227.604 469.696 225.735C469.058 225.586 468.42 225.439 467.781 225.29ZM477.006 241.45C475.757 244.401 472.782 244.252 471.722 244.546C472.358 245.445 476.822 247.983 478.461 247.47C480.661 246.618 479.08 242.118 477.006 241.45ZM408.317 217.92L390.855 220.213L367.234 208.608L345.808 176.14L369.994 159.764L381.054 176.63L391.121 191.904L408.317 217.92ZM382.995 223.347L336.152 200.323L293.107 213.339L292.867 213.377L210.756 238.145L255.204 266.179L276.559 259.011L380.296 224.154L382.933 223.732L382.995 223.347ZM483.388 201.406C484.258 198.391 485.747 195.401 487.793 192.822C491.084 188.794 492.86 183.756 493.139 178.584C493.382 172.416 491.188 166.389 487.232 161.644C483.136 156.796 477.457 153.577 471.29 152.687C465.002 151.817 458.567 153.097 453.361 156.682C445.813 161.766 435.793 160.618 429.327 154.023C424.911 149.477 418.81 146.701 412.481 146.338C406.272 145.955 400.054 147.825 395.127 151.615C390.32 155.386 387.005 160.794 386.004 166.833C385.739 168.251 385.613 169.772 385.727 171.255L388.964 176.115C388.493 173.939 388.362 171.583 388.591 169.17C389.813 157.593 399.151 149.096 409.531 150.186C411.527 150.367 417.394 151.68 418.531 151.873C428.552 153.022 435.804 162.993 434.763 174.166C433.603 185.357 424.585 193.554 414.584 192.528C413.466 192.456 407.555 192.401 405.558 192.22C402.804 191.911 400.191 190.953 398 189.553L404.831 199.967C408.243 200.546 413.83 201.653 415.208 201.808C419.719 202.337 423.745 204.445 426.949 207.559L483.388 201.406ZM395.898 227.911L417.276 373.827L460.817 366.986L447.512 352.229C465.796 333.546 468.13 323.542 493.449 318.865C511.674 299.815 503.295 265.885 521.842 251.161L440.681 262.645L395.898 227.911ZM532.182 247.381C532.301 247.361 532.301 247.361 532.421 247.342C533.121 247.105 533.985 245.591 534.646 245.11C536.729 243.526 538.751 242.327 541.031 241.212C541.31 241.417 541.31 241.417 541.469 241.642C540.878 244.864 539.587 248.322 536.804 250.143C533.5 252.548 530.634 255.383 527.469 257.891C506.381 273.646 515.561 301.82 501.179 318.754C498.792 321.513 495.986 323.962 493.162 326.29C490.357 328.74 486.682 328.828 483.205 329.384C479.489 329.979 476.552 330.073 473.965 333.114C471.597 335.994 468.475 337.994 465.65 340.322C463.026 342.368 461.239 345.03 458.855 347.038C457.773 347.962 456.869 349.232 455.788 350.155C454.826 351.059 454.703 351.83 455.378 352.972C457.006 355.464 459.343 355.465 461.922 354.677C464.961 353.691 466.43 350.579 468.695 348.591C469.876 347.526 471.182 345.691 472.938 345.91C474.076 346.104 474.391 347.304 474.446 348.421C474.485 348.665 473.272 357.989 473.091 358.393C472.726 359.952 471.365 360.67 470.124 361.369C468.663 362.228 467.885 361.977 466.268 361.861C464.843 363.715 465.66 364.21 467.232 365.584C468.646 366.734 469.959 368.024 471.674 368.751C473.369 369.355 474.908 368.983 476.548 368.471C478.547 367.901 479.584 368.236 481.438 369.064C482.634 369.624 484.809 370.151 486.089 369.696C487.029 369.421 488.03 368.76 488.93 368.241C489.591 367.76 490.213 367.035 491.152 366.76C492.792 366.248 494.144 367.782 495.661 368.04C497.177 368.298 498.923 366.142 500.283 365.424C502.004 364.649 503.702 364.502 505.659 364.439C506.878 364.369 508.018 363.812 508.721 362.823C509.926 361.13 510.411 359.551 511.077 357.569C514.549 347.758 511.864 350.189 518.149 341.053C518.852 340.066 519.555 339.077 520.397 338.192C538.724 318.25 556.538 312.774 565.696 283.167C566.525 280.659 566.475 278.04 569.076 276.623C570.217 276.066 570.819 275.219 572.098 274.764C573.838 274.11 577.31 264.3 577.796 262.721C578.886 259.545 579.717 256.285 582.123 253.649C584.63 250.871 588.051 249.198 590.298 246.337C592.145 244.041 587.19 239.205 586.077 237.632C576.721 224.496 535.251 201.238 531.101 226.792C530.691 229.609 531.056 238.806 530.617 243.754L532.182 247.381ZM374.784 255.803C373.265 256.296 371.726 256.668 370.087 257.18C370.672 260.839 371.257 264.497 371.843 268.156C372.428 271.814 373.013 275.473 373.599 279.131C374.184 282.789 374.769 286.448 375.355 290.106C375.94 293.765 376.525 297.424 377.11 301.082C374.512 301.748 371.894 302.292 369.275 302.836C368.495 297.958 367.714 293.08 366.934 288.202C366.154 283.324 365.373 278.446 364.593 273.568C363.851 268.934 363.09 264.178 362.349 259.544C361.608 254.91 360.847 250.153 360.105 245.519C363.504 244.475 366.783 243.45 370.182 242.406C373.581 241.362 376.86 240.337 380.278 239.415C381.039 244.171 381.8 248.927 382.58 253.806C383.341 258.561 384.102 263.318 384.883 268.196C385.683 273.196 386.482 278.196 387.282 283.196C388.082 288.196 388.882 293.195 389.682 298.195C387.084 298.861 384.466 299.405 381.968 299.93C381.382 296.271 380.797 292.613 380.192 288.833C379.607 285.174 379.021 281.515 378.417 277.735C377.831 274.076 377.226 270.296 376.641 266.637C375.975 263.242 375.37 259.461 374.784 255.803ZM340.95 251.836C345.749 250.318 350.427 248.819 355.226 247.3C356.249 251.389 357.272 255.478 358.295 259.567C359.318 263.655 360.341 267.744 361.244 271.852C362.306 276.185 363.349 280.396 364.411 284.728C365.473 289.061 366.516 293.272 367.578 297.604C367.87 299.434 368.163 301.263 368.475 303.214C365.637 303.918 362.659 304.52 359.821 305.224C358.956 301.36 357.992 297.637 357.008 293.792C355.829 294.106 354.649 294.42 353.469 294.733C353.854 298.674 354.239 302.615 354.484 306.453C351.645 307.158 348.788 307.74 346.069 308.425C345.835 306.962 345.601 305.498 345.367 304.035C345.024 299.587 344.681 295.139 344.238 290.833C343.895 286.385 343.553 281.937 343.09 277.508C342.787 273.305 342.343 268.998 342.039 264.794C341.717 260.468 341.393 256.142 340.95 251.836ZM354.145 279.742C353.577 276.956 352.888 274.19 352.3 271.282C351.731 268.497 351.042 265.73 350.454 262.822C350.215 262.861 349.975 262.899 349.755 263.06C350.083 265.884 350.412 268.708 350.741 271.532C351.07 274.356 351.399 277.18 351.728 280.004C351.747 280.126 351.767 280.247 351.786 280.37C352.606 280.113 353.445 279.979 354.145 279.742ZM327.374 256.134C327.842 259.061 328.291 261.866 328.759 264.793C329.286 268.085 329.953 271.481 330.479 274.773C330 274.85 329.659 275.029 329.18 275.106C328.293 271.871 327.407 268.636 326.401 265.42C325.592 262.673 324.784 259.925 324.076 257.037C321.496 257.825 318.917 258.613 316.319 259.279C316.533 260.62 316.748 261.961 316.962 263.303C318.108 266.622 319.115 269.838 320.261 273.156C321.406 276.475 322.432 279.813 323.558 283.009C323.603 287.13 323.748 291.109 323.792 295.229C323.817 299.228 323.981 303.329 324.006 307.327C324.318 309.278 324.63 311.229 324.923 313.059C327.541 312.515 330.14 311.849 332.638 311.324C332.432 307.73 332.326 303.995 332.12 300.4C331.914 296.807 331.688 293.09 331.602 289.477C332.082 289.4 332.542 289.202 332.901 289.144C333.467 292.681 334.153 296.198 334.738 299.857C335.304 303.393 335.87 306.93 336.436 310.466C339.034 309.801 341.772 309.238 344.371 308.571C343.61 303.816 342.849 299.059 341.988 294.445C341.227 289.688 340.346 284.951 339.604 280.317C338.883 275.805 338.06 271.434 337.339 266.922C336.617 262.41 335.775 257.917 335.072 253.527C332.653 254.539 330.073 255.327 327.374 256.134ZM384.961 321.714C385.566 325.494 386.151 329.153 386.876 332.914C387.48 336.695 388.066 340.353 388.671 344.133C389.275 347.914 389.861 351.573 390.586 355.334C391.19 359.114 391.776 362.773 392.381 366.553C395.018 366.131 397.536 365.728 400.173 365.306C399.373 360.306 398.554 355.185 397.634 350.204C396.834 345.204 396.015 340.082 395.095 335.101C394.314 330.223 393.434 325.486 392.653 320.608C391.873 315.73 391.112 310.974 390.212 306.115C383.556 307.555 376.92 309.117 370.164 310.698C370.925 315.454 371.667 320.088 372.547 324.826C373.308 329.581 374.05 334.216 374.931 338.952C375.711 343.83 376.511 348.83 377.411 353.689C378.192 358.567 378.992 363.567 379.892 368.426C382.53 368.004 385.067 367.723 387.705 367.301C387.12 363.643 386.515 359.863 385.929 356.204C385.344 352.545 384.739 348.765 384.154 345.106C383.569 341.448 382.964 337.667 382.378 334.009C381.793 330.35 381.188 326.57 380.483 322.931C381.863 322.334 383.422 322.085 384.961 321.714ZM351.296 314.968C351.62 319.293 352.063 323.6 352.366 327.804C352.69 332.13 353.113 336.315 353.436 340.64C353.779 345.088 354.122 349.536 354.584 353.964C354.927 358.412 355.27 362.86 355.612 367.308C355.847 368.771 356.1 370.356 356.334 371.82C359.212 371.36 361.97 370.918 364.866 370.58C364.482 366.639 364.097 362.698 363.833 358.738C365.032 358.547 366.23 358.355 367.429 358.163C368.414 362.008 369.278 365.872 370.281 369.839C373.159 369.378 376.036 368.918 378.933 368.58C378.64 366.75 378.328 364.799 378.036 362.97C376.973 358.637 375.892 354.182 374.83 349.85C373.768 345.517 372.686 341.062 371.624 336.73C370.582 332.519 369.558 328.43 368.636 324.201C367.613 320.112 366.57 315.901 365.547 311.812C360.771 312.701 356.034 313.835 351.296 314.968ZM364.528 343.869C363.809 343.984 362.969 344.118 362.269 344.355C362.25 344.233 362.23 344.111 362.211 343.989C361.882 341.166 361.553 338.341 361.224 335.517C360.895 332.693 360.566 329.869 360.238 327.045C360.477 327.007 360.717 326.968 360.957 326.93C361.526 329.715 362.234 332.604 362.822 335.512C363.371 338.176 363.939 340.961 364.528 343.869ZM337.785 318.13C338.253 321.057 338.721 323.984 339.17 326.789C339.716 330.203 340.243 333.496 340.789 336.91C340.31 336.987 339.95 337.045 339.471 337.121C338.584 333.886 337.678 330.529 336.792 327.294C335.964 324.425 335.275 321.659 334.447 318.789C331.969 319.436 329.35 319.98 326.872 320.627C327.086 321.968 327.301 323.309 327.516 324.651C328.542 327.989 329.687 331.307 330.713 334.645C331.739 337.984 332.885 341.302 333.93 344.762C333.974 348.882 333.999 352.88 334.044 357.001C334.069 360.999 334.113 365.119 334.138 369.118C334.45 371.069 334.762 373.02 335.074 374.971C337.712 374.549 340.23 374.147 342.887 373.846C342.681 370.252 342.575 366.517 342.369 362.923C342.163 359.329 342.057 355.593 341.851 351.999C342.331 351.923 342.69 351.865 343.17 351.788C343.735 355.325 344.321 358.984 344.887 362.52C345.452 366.057 346.038 369.715 346.604 373.252C349.241 372.83 351.879 372.408 354.656 372.088C353.895 367.333 353.134 362.576 352.373 357.82C351.612 353.064 350.851 348.308 350.09 343.552C349.369 339.04 348.647 334.528 347.925 330.016C347.203 325.503 346.481 320.991 345.639 316.498C343.122 316.901 340.403 317.586 337.785 318.13ZM317.317 323.156C317.726 325.717 318.116 328.156 318.526 330.717C318.975 333.522 319.424 336.326 319.872 339.131C317.014 339.713 317.973 339.56 315.155 340.386C313.035 340.976 311.967 343.523 312.511 347.688C313.035 351.732 313.818 355.859 314.462 359.883C315.106 363.908 315.769 368.054 316.413 372.078C316.901 375.127 318.27 377.535 320.447 377.312C326.66 376.943 327.66 376.283 333.775 375.304C330.888 357.255 327.899 339.348 325.012 321.299C322.034 321.901 320.275 322.432 317.317 323.156ZM321.639 363.238C321.092 359.823 320.546 356.409 320 352.994C321.199 352.802 320.46 352.795 321.659 352.603C322.205 356.018 322.751 359.433 323.298 362.847C322.238 363.142 322.838 363.046 321.639 363.238ZM308.059 379.043C307.357 374.653 306.674 370.385 305.972 365.995C305.269 361.604 304.586 357.336 303.884 352.946C303.201 348.677 302.518 344.409 301.855 340.263C301.172 335.994 300.489 331.727 299.806 327.458C302.424 326.914 305.023 326.248 307.641 325.704C308.324 329.973 309.007 334.241 309.709 338.631C310.392 342.899 311.075 347.168 311.777 351.558C312.48 355.948 313.182 360.338 313.885 364.729C314.587 369.119 315.289 373.509 315.992 377.899C313.354 378.321 310.697 378.621 308.059 379.043ZM291.8 358.881C294.538 358.318 297.214 358.14 299.913 357.333C301.792 356.782 302.42 354.556 301.972 351.751C301.308 347.605 300.664 343.58 300.001 339.434C299.377 335.531 298.772 331.751 298.147 327.849C295.529 328.392 292.931 329.059 290.312 329.602C290.702 332.041 291.093 334.481 291.502 337.042C291.932 339.724 292.38 342.529 292.81 345.212C291.85 345.365 290.791 345.66 289.832 345.813C289.403 343.131 288.973 340.448 288.525 337.643C288.134 335.204 287.744 332.765 287.354 330.326C284.736 330.87 282.118 331.414 279.519 332.08C280.26 336.714 280.982 341.226 281.724 345.86C282.114 348.299 282.504 350.738 282.875 353.055C283.265 355.494 283.655 357.933 284.026 360.25C284.611 363.909 285.197 367.568 285.782 371.226C286.367 374.884 286.953 378.543 287.538 382.201C290.176 381.779 292.813 381.357 295.47 381.057C294.885 377.399 294.28 373.618 293.695 369.96C292.97 366.198 292.385 362.54 291.8 358.881ZM371.907 150.202L381.18 164.353C382.683 157.608 386.4 151.636 391.988 147.365C397.877 142.67 405.394 140.467 412.861 141.023C420.567 141.541 427.744 144.896 433.036 150.303C437.611 155.074 444.997 155.894 450.423 152.149C453.746 149.866 457.446 148.399 461.383 147.644C471.773 135.726 482.751 126.715 493.463 124.501C493.942 124.424 494.522 124.207 495.203 123.847C490.184 120.148 488.269 114.326 490.193 107.139C491.105 103.616 491.317 100.33 491.231 96.7167C490.991 91.3772 491.131 86.1019 491.112 80.6017C489.397 79.8753 488.223 78.6875 487.51 77.3007C475.334 75.7467 463.606 76.9977 451.137 78.9926C384.237 89.696 332.809 138.698 314.922 200.593L337.474 193.983L354.955 202.568L336.29 174.286L343.718 169.221L338.674 161.523L359.296 147.467L364.34 155.165L371.907 150.202ZM463.209 155.982C465.345 156.265 471.71 157.623 472.848 157.817C483.727 158.953 491.475 169.72 490.211 181.804C488.948 193.888 479.289 202.688 468.41 201.551C467.272 201.358 460.781 201.521 458.645 201.237C447.387 200.037 439.341 188.942 440.646 176.351C441.851 163.901 451.951 154.781 463.209 155.982ZM462.873 192.306C458.108 190.192 455.094 184.421 455.677 178.074C456.26 171.727 460.392 166.813 465.509 165.745C469.733 168.32 472.448 173.765 471.826 179.867C471.304 185.83 467.532 190.685 462.873 192.306ZM458.397 192.772C451.77 192.081 447.084 185.077 447.792 177.209C448.621 169.322 454.574 163.492 461.201 164.183C461.321 164.163 461.441 164.144 461.46 164.266C456.938 166.741 453.564 171.783 452.922 177.764C452.281 183.745 454.656 189.368 458.657 192.856C458.657 192.856 458.517 192.753 458.397 192.772ZM409.264 183.873C404.879 181.823 402.063 176.521 402.604 170.681C403.145 164.841 407.077 160.21 411.714 159.217C415.659 161.588 418.076 166.704 417.496 172.301C417.035 177.877 413.564 182.31 409.264 183.873ZM405.029 184.301C405.149 184.281 405.269 184.262 405.288 184.385C401.586 181.225 399.409 176.07 399.989 170.474C400.569 164.878 403.642 160.259 407.944 157.945C407.825 157.964 407.704 157.983 407.685 157.861C401.557 157.216 396.025 162.603 395.218 169.861C394.552 177.222 398.901 183.656 405.029 184.301ZM294.27 206.774C306.463 150.792 343.03 102.667 393.712 76.6734C393.693 76.5515 393.693 76.5515 393.553 76.4487C410.5 67.8589 429.056 61.6383 448.718 58.4925C450.996 58.128 453.394 57.7444 455.692 57.5019C458.709 57.1443 461.606 56.8059 464.522 56.5895C464.522 56.5895 464.522 56.5895 464.542 56.7114C471.593 56.2086 478.703 56.0717 485.631 56.339C483.878 55.3689 482.445 54.0972 480.811 53.1079C479.037 52.0158 478.045 50.4236 479.45 48.4478C480.875 46.5938 483.878 44.6125 485.978 43.9014C488.197 43.1711 494.373 41.8078 494.373 41.8078C495.48 39.5045 503.93 23.144 504.889 22.9906C515.545 19.6597 543.391 12.328 564.237 45.0136C565.706 47.28 567.515 49.3669 566.606 52.1388C565.859 54.3846 564.652 56.8291 564.423 59.2421C564.401 59.871 564.637 60.5835 564.495 61.2319C564.473 61.8607 564.172 62.2838 564.01 62.8101C563.586 64.0035 564.002 65.0627 563.817 66.2178C563.776 66.7248 563.313 67.6746 562.97 68.6048C566.293 71.7 565.423 74.7163 565.158 76.1342C565.097 76.5194 564.916 76.9233 564.854 77.3085C619.705 105.805 660.518 160.31 668.573 227.561C680.634 328.315 612.983 421.936 514.839 440.265C461.002 450.379 408.194 436.19 367.291 405.713C363.945 403.246 351.504 392.354 348.239 389.625L274.65 400.022L255.164 276.692C254.989 275.595 254.933 274.478 255.137 273.445L196.227 235.717L294.27 206.774ZM259.656 271.721L283.315 262.808L387.968 228.304L410.163 374.714L279.011 392.696L259.656 271.721ZM558.452 80.3337C558.452 80.3337 558.857 79.0183 558.999 78.3702C558.999 78.3702 560.488 75.3804 560.134 73.9365C559.03 70.1108 556.253 70.4297 554.948 72.2644C555.787 72.1302 557.045 72.3043 557.92 73.165C559.253 74.5778 557.625 77.4645 556.615 80.3777C555.382 78.8239 554.535 75.8324 553.894 76.4354C553.174 76.5505 552.349 78.3085 552.706 79.0017C553.662 79.5995 554.44 79.85 554.736 80.9283C555.011 81.8849 553.67 82.7247 553.127 83.9374C553.185 84.3034 554.002 84.798 554.543 84.3361C555.064 83.7528 555.586 83.169 555.987 82.6044C557.15 81.4177 557.889 81.4245 558.452 80.3337ZM521.292 68.6439C524.677 71.3543 523.539 71.1609 527.56 69.392C528.976 69.7912 530.133 70.1059 532.087 70.794C526.383 63.577 517.698 63.0904 513.602 68.9988C514.993 70.7772 514.954 70.5335 516.546 72.0298C518.874 74.284 522.63 73.9331 525.63 72.7028C521.323 71.1406 517.865 71.8188 518.651 69.8171C519.471 69.5604 520.372 69.0415 521.292 68.6439ZM448.094 420.426L445.501 377.316L375.907 387.324C395.605 401.308 424.088 415.636 448.094 420.426ZM608.728 363.833C595.34 339.335 584.113 324.496 585.843 294.578C586.658 279.689 640.28 194.441 602.108 164.902C601.272 164.285 574.975 131.346 574.836 131.244C574.32 130.325 574.995 126.09 574.479 125.172C572.338 121.012 561.256 110.153 560.807 107.348C560.497 104.646 559.53 101.674 559.58 98.9144C559.622 98.4073 559.664 97.9003 559.845 97.496C560.921 98.0741 561.878 98.6718 562.954 99.2499C562.935 99.1281 562.935 99.1281 562.915 99.0062C606.674 124.273 639.219 168.595 647.901 222.863C656.45 275.527 640.501 326.481 608.728 363.833ZM560.268 70.1626C560.683 71.2218 561.3 71.999 561.796 72.7949C562.108 74.7463 561.402 76.4852 561.16 77.2742C559.548 81.0341 557.936 84.7939 556.185 88.451C555.078 90.7545 553.899 91.0681 551.325 90.3542C551.76 86.1573 550.375 82.8771 550.79 78.5579C549.034 78.3386 546.329 80.6477 546.006 81.6996C545.055 84.9789 546.27 85.6596 544.921 88.7522C539.862 100.943 525.331 88.5098 516.978 84.7179C512.33 83.3356 509.547 85.1564 505.981 88.2287C504.57 86.328 503.935 85.4291 501.757 85.6525C499.719 85.9786 496.777 87.5749 494.778 88.1447C494.825 86.1361 494.954 83.8643 494.962 81.6117C496.421 81.5033 497.739 81.2923 498.958 81.2223C500.025 84.0536 502.058 85.2289 505.574 84.9168C504.919 83.896 504.523 82.9586 503.826 82.4449C502.571 81.5199 502.078 79.9728 502.702 78.4974C502.965 77.8296 503.447 77.0022 503.848 76.4376C505.555 74.0382 506.863 71.4527 507.513 68.5973C507.674 68.0711 507.956 67.5258 508.237 66.9804C508.358 66.9612 508.617 67.0448 508.736 67.0257C508.815 67.5135 508.912 68.1232 509.11 68.5918C510.078 71.5637 510.805 74.5743 512.012 77.5077C512.823 79.5043 514.396 80.8787 516.509 81.7912C519.919 83.122 523.313 83.5794 526.948 83.2481C530.723 83.019 533.208 80.8706 534.359 77.3094C534.926 75.4678 535.352 73.5236 535.798 71.7013C535.921 70.9314 536.183 70.2636 536.526 69.3335C537.525 69.4237 538.403 69.5336 539.3 69.7649C540.198 69.9966 541.116 70.3502 542.013 70.582C541.791 71.4929 541.707 72.5069 541.902 73.7263C542.175 75.4336 542.71 76.4737 543.544 77.8413C543.901 78.5345 544.099 79.0032 544.297 79.4719C544.751 80.7747 545.496 79.28 546.756 78.703L550.417 76.9917C550.417 76.9917 550.551 73.2183 552.138 70.8381C554.326 67.6113 553.487 67.7456 557.084 67.1702C558.461 67.3251 559.814 68.8597 560.268 70.1626ZM541.055 59.979C539.898 59.6638 538.038 60.3366 536.839 60.5284C535.76 60.701 534.681 60.8736 533.722 61.0271C534.101 61.0915 534.461 61.0339 534.72 61.1175C535.479 61.2463 541.024 62.8606 544.635 63.9088C545.036 63.3442 545.438 62.7798 545.82 62.0933C546.442 61.3684 542.352 60.3969 541.055 59.979ZM528.756 64.5732C524.607 63.2358 520.492 63.6441 516.296 64.3154C515.097 64.5072 513.797 64.8402 512.138 65.2307C512.353 66.5721 512.289 67.708 512.584 68.7865C513.373 71.4118 514.502 73.8578 515.272 76.3609C515.746 77.7861 516.482 78.5437 517.797 79.0839C520.948 80.3307 524.163 80.4418 527.3 80.0648C529.358 79.8606 530.582 78.2892 531.148 76.4476C531.694 74.4843 532.202 72.2767 532.369 70.2485C532.819 67.6754 531.209 65.3063 528.756 64.5732ZM501.67 50.5211C500.691 50.5526 499.988 51.5406 499.486 52.2463C499.285 52.5285 495.786 59.0919 495.304 59.9194C499.497 59.999 504.549 60.0662 508.296 61.9681C509.353 62.4244 510.614 61.8476 511.692 61.675C516.129 60.9652 520.604 60.4993 525.018 60.4185C518.159 57.5136 511.077 50.1417 501.67 50.5211ZM493.669 69.6864C495.509 68.8918 495.917 66.8254 497.556 66.313C499.075 65.8198 501.947 66.8611 503.487 66.4898C498.624 63.7657 498.384 63.8041 494.403 65.8169L493.669 69.6864ZM494.056 78.2546C494.695 78.4024 495.314 78.4284 495.952 78.5766C497.828 78.7768 499.449 78.1422 500.455 75.9798C501.2 74.485 502.204 73.0738 503.068 71.5595L503.815 69.3138C502.056 69.8455 502.714 70.1154 500.896 70.2812L498.426 68.6753L497.743 69.7852L500.972 71.52C499.733 71.4677 496.159 71.4144 494.801 71.3814C493.596 73.0749 495.007 74.9755 494.302 76.7143C494.182 76.7336 494.059 77.5035 494.056 78.2546ZM488.385 67.405C488.436 64.6453 489.479 63.4778 492.155 63.2998C491.191 64.955 491.344 66.6815 491.16 67.8366C490.895 69.2548 490.638 73.7985 491.065 77.2322C489.829 76.4292 489.236 75.0236 488.686 72.3597C488.433 70.7744 488.399 69.0287 488.385 67.405ZM553.279 101.798C554.062 105.925 553.845 110.713 556.028 114.366C561.564 123.611 524.902 144.236 521.346 144.304C519.581 140.959 516.431 134.334 514.396 128.531C526.461 127.852 537.909 121.017 544.443 109.591C546.755 105.594 548.11 101 549.883 96.7135C550.246 95.9052 550.349 95.013 550.592 94.2239C551.331 94.2306 551.969 94.3785 552.568 94.2825C552.22 96.7151 552.925 100.354 553.279 101.798Z" fill="#1E1E1E"/>
</g>
</g>
</svg>
