<svg width="694" height="247" viewBox="0 0 694 247" fill="none" xmlns="http://www.w3.org/2000/svg">
<g clip-path="url(#clip0_201_47)">
<path d="M674 36H20C9.50659 36 1 44.5066 1 55V227C1 237.493 9.50659 246 20 246H674C684.493 246 693 237.493 693 227V55C693 44.5066 684.493 36 674 36Z" stroke="#1E1E1E" stroke-width="2"/>
<path d="M35.3 86V103.5H33V89.825L27.275 99.35H26.975L21.25 89.85V103.5H18.925V86H21.55L27.125 95.25L32.675 86H35.3ZM44.0922 95.5C45.3255 95.5 46.3589 95.875 47.1922 96.625C48.0255 97.3583 48.4422 98.3167 48.4422 99.5C48.4422 100.683 48.0255 101.65 47.1922 102.4C46.3589 103.133 45.3255 103.5 44.0922 103.5H38.8172V91H40.9922V95.5H44.0922ZM50.0672 91H52.2422V103.5H50.0672V91ZM44.0922 101.475C44.7089 101.475 45.2255 101.3 45.6422 100.95C46.0755 100.583 46.2922 100.1 46.2922 99.5C46.2922 98.9 46.0755 98.4167 45.6422 98.05C45.2255 97.6833 44.7089 97.5 44.0922 97.5H40.9922V101.475H44.0922ZM71.1152 91V93.1H66.8652V103.5H64.6902V93.1H60.4152V91H71.1152ZM83.083 101.925C81.8163 103.192 80.258 103.825 78.408 103.825C76.558 103.825 74.9997 103.192 73.733 101.925C72.4663 100.658 71.833 99.1 71.833 97.25C71.833 95.4 72.4663 93.8417 73.733 92.575C74.9997 91.3083 76.558 90.675 78.408 90.675C80.258 90.675 81.8163 91.3083 83.083 92.575C84.3663 93.8583 85.008 95.4167 85.008 97.25C85.008 99.0833 84.3663 100.642 83.083 101.925ZM78.408 101.7C79.658 101.7 80.708 101.275 81.558 100.425C82.408 99.575 82.833 98.5167 82.833 97.25C82.833 95.9833 82.408 94.925 81.558 94.075C80.708 93.225 79.658 92.8 78.408 92.8C77.1747 92.8 76.133 93.225 75.283 94.075C74.433 94.925 74.008 95.9833 74.008 97.25C74.008 98.5167 74.433 99.575 75.283 100.425C76.133 101.275 77.1747 101.7 78.408 101.7ZM95.1785 91H97.3535V103.5H95.1785V99C94.1618 99.4333 93.0368 99.65 91.8035 99.65C90.1868 99.65 88.9452 99.275 88.0785 98.525C87.2118 97.775 86.7785 96.65 86.7785 95.15V91H88.9535V95.025C88.9535 95.975 89.2035 96.65 89.7035 97.05C90.2035 97.4333 90.9535 97.625 91.9535 97.625C93.1035 97.625 94.1785 97.4083 95.1785 96.975V91ZM109.308 91H111.483V103.5H109.308V98.275H102.833V103.5H100.658V91H102.833V96.2H109.308V91ZM125.344 101.925C124.077 103.192 122.519 103.825 120.669 103.825C118.819 103.825 117.26 103.192 115.994 101.925C114.727 100.658 114.094 99.1 114.094 97.25C114.094 95.4 114.727 93.8417 115.994 92.575C117.26 91.3083 118.819 90.675 120.669 90.675C122.519 90.675 124.077 91.3083 125.344 92.575C126.627 93.8583 127.269 95.4167 127.269 97.25C127.269 99.0833 126.627 100.642 125.344 101.925ZM120.669 101.7C121.919 101.7 122.969 101.275 123.819 100.425C124.669 99.575 125.094 98.5167 125.094 97.25C125.094 95.9833 124.669 94.925 123.819 94.075C122.969 93.225 121.919 92.8 120.669 92.8C119.435 92.8 118.394 93.225 117.544 94.075C116.694 94.925 116.269 95.9833 116.269 97.25C116.269 98.5167 116.694 99.575 117.544 100.425C118.394 101.275 119.435 101.7 120.669 101.7ZM142.833 97.1C144.216 97.6833 144.908 98.675 144.908 100.075C144.908 100.608 144.799 101.1 144.583 101.55C144.383 102 144.074 102.4 143.658 102.75C143.258 103.083 142.758 103.342 142.158 103.525C141.558 103.725 140.874 103.825 140.108 103.825C137.608 103.825 135.933 102.825 135.083 100.825L136.908 99.75C137.374 101.117 138.449 101.8 140.133 101.8C140.983 101.8 141.633 101.625 142.083 101.275C142.533 100.908 142.758 100.442 142.758 99.875C142.758 99.375 142.566 98.9667 142.183 98.65C141.816 98.3333 141.316 98.175 140.683 98.175H138.858V96.2H140.208C140.841 96.2 141.333 96.05 141.683 95.75C142.033 95.4333 142.208 95.0083 142.208 94.475C142.208 93.9417 141.999 93.5083 141.583 93.175C141.183 92.8417 140.624 92.675 139.908 92.675C138.508 92.675 137.558 93.2667 137.058 94.45L135.283 93.425C136.166 91.5917 137.708 90.675 139.908 90.675C140.591 90.675 141.199 90.775 141.733 90.975C142.283 91.1583 142.749 91.4167 143.133 91.75C143.516 92.0667 143.808 92.45 144.008 92.9C144.224 93.3333 144.333 93.8 144.333 94.3C144.333 95.5667 143.833 96.5 142.833 97.1ZM155.914 91H158.089V103.5H155.914V98.275H149.439V103.5H147.264V91H149.439V96.2H155.914V91ZM171.75 91H173.925V103.5H171.75V101.35C170.667 103 169.092 103.825 167.025 103.825C165.259 103.825 163.767 103.192 162.55 101.925C161.317 100.642 160.7 99.0833 160.7 97.25C160.7 95.4333 161.317 93.8833 162.55 92.6C163.784 91.3167 165.275 90.675 167.025 90.675C169.092 90.675 170.667 91.5 171.75 93.15V91ZM167.3 101.725C168.567 101.725 169.625 101.3 170.475 100.45C171.325 99.5833 171.75 98.5167 171.75 97.25C171.75 95.9833 171.325 94.925 170.475 94.075C169.625 93.2083 168.567 92.775 167.3 92.775C166.05 92.775 165 93.2083 164.15 94.075C163.3 94.925 162.875 95.9833 162.875 97.25C162.875 98.5167 163.3 99.5833 164.15 100.45C165 101.3 166.05 101.725 167.3 101.725ZM178.746 98.25C178.962 99.3667 179.471 100.233 180.271 100.85C181.071 101.467 182.071 101.775 183.271 101.775C184.921 101.775 186.121 101.167 186.871 99.95L188.721 101C187.487 102.883 185.654 103.825 183.221 103.825C181.254 103.825 179.637 103.208 178.371 101.975C177.137 100.708 176.521 99.1333 176.521 97.25C176.521 95.35 177.129 93.7833 178.346 92.55C179.562 91.3 181.137 90.675 183.071 90.675C184.904 90.675 186.396 91.325 187.546 92.625C188.712 93.8917 189.296 95.4417 189.296 97.275C189.296 97.6083 189.271 97.9333 189.221 98.25H178.746ZM183.071 92.725C181.904 92.725 180.937 93.0583 180.171 93.725C179.404 94.375 178.929 95.25 178.746 96.35H187.096C186.912 95.15 186.446 94.25 185.696 93.65C184.946 93.0333 184.071 92.725 183.071 92.725ZM204.296 91V103.5H202.171V94.425L198.196 100.825H197.921L193.946 94.425V103.5H191.796V91H194.121L198.046 97.325L201.971 91H204.296ZM208.991 93.95C208.541 93.95 208.158 93.7917 207.841 93.475C207.524 93.1583 207.366 92.775 207.366 92.325C207.366 91.875 207.524 91.4917 207.841 91.175C208.158 90.8583 208.541 90.7 208.991 90.7C209.458 90.7 209.841 90.8583 210.141 91.175C210.458 91.4917 210.616 91.875 210.616 92.325C210.616 92.775 210.458 93.1583 210.141 93.475C209.841 93.7917 209.458 93.95 208.991 93.95ZM208.991 103.775C208.541 103.775 208.158 103.617 207.841 103.3C207.524 102.983 207.366 102.6 207.366 102.15C207.366 101.7 207.524 101.317 207.841 101C208.158 100.683 208.541 100.525 208.991 100.525C209.458 100.525 209.841 100.683 210.141 101C210.458 101.317 210.616 101.7 210.616 102.15C210.616 102.6 210.458 102.983 210.141 103.3C209.841 103.617 209.458 103.775 208.991 103.775ZM29.275 140.5H26.575L20.875 134.575V140.5H18.7V128H20.875V133.525L26.275 128H29.075L23.1 134.05L29.275 140.5ZM40.7002 138.925C39.4335 140.192 37.8752 140.825 36.0252 140.825C34.1752 140.825 32.6169 140.192 31.3502 138.925C30.0835 137.658 29.4502 136.1 29.4502 134.25C29.4502 132.4 30.0835 130.842 31.3502 129.575C32.6169 128.308 34.1752 127.675 36.0252 127.675C37.8752 127.675 39.4335 128.308 40.7002 129.575C41.9835 130.858 42.6252 132.417 42.6252 134.25C42.6252 136.083 41.9835 137.642 40.7002 138.925ZM36.0252 138.7C37.2752 138.7 38.3252 138.275 39.1752 137.425C40.0252 136.575 40.4502 135.517 40.4502 134.25C40.4502 132.983 40.0252 131.925 39.1752 131.075C38.3252 130.225 37.2752 129.8 36.0252 129.8C34.7919 129.8 33.7502 130.225 32.9002 131.075C32.0502 131.925 31.6252 132.983 31.6252 134.25C31.6252 135.517 32.0502 136.575 32.9002 137.425C33.7502 138.275 34.7919 138.7 36.0252 138.7ZM57.6893 128V140.5H55.5643V131.425L51.5893 137.825H51.3143L47.3393 131.425V140.5H45.1893V128H47.5143L51.4393 134.325L55.3643 128H57.6893ZM71.8346 128V140.5H69.6596V130.075H63.1846V140.5H61.0096V128H71.8346ZM85.4953 128H87.6703V140.5H85.4953V138.35C84.412 140 82.837 140.825 80.7703 140.825C79.0036 140.825 77.512 140.192 76.2953 138.925C75.062 137.642 74.4453 136.083 74.4453 134.25C74.4453 132.433 75.062 130.883 76.2953 129.6C77.5286 128.317 79.0203 127.675 80.7703 127.675C82.837 127.675 84.412 128.5 85.4953 130.15V128ZM81.0453 138.725C82.312 138.725 83.3703 138.3 84.2203 137.45C85.0703 136.583 85.4953 135.517 85.4953 134.25C85.4953 132.983 85.0703 131.925 84.2203 131.075C83.3703 130.208 82.312 129.775 81.0453 129.775C79.7953 129.775 78.7453 130.208 77.8953 131.075C77.0453 131.925 76.6203 132.983 76.6203 134.25C76.6203 135.517 77.0453 136.583 77.8953 137.45C78.7453 138.3 79.7953 138.725 81.0453 138.725ZM99.6156 128H101.791V140.5H99.6156V135.275H93.1406V140.5H90.9656V128H93.1406V133.2H99.6156V128ZM114.176 128H115.926V140.5H113.776V131.725L106.851 140.5H105.101V128H107.251V136.775L114.176 128ZM128.587 128V140.5H126.437V136H124.612L121.112 140.5H118.462L122.112 135.875C121.162 135.642 120.395 135.183 119.812 134.5C119.245 133.8 118.962 132.975 118.962 132.025C118.962 130.875 119.37 129.917 120.187 129.15C121.004 128.383 122.029 128 123.262 128H128.587ZM126.437 134.05V130.025H123.337C122.72 130.025 122.195 130.208 121.762 130.575C121.329 130.942 121.112 131.433 121.112 132.05C121.112 132.65 121.329 133.133 121.762 133.5C122.195 133.867 122.72 134.05 123.337 134.05H126.437ZM135.134 137.925L133.509 144H131.634L132.634 137.925H135.134ZM155.032 140.5H152.332L146.632 134.575V140.5H144.457V128H146.632V133.525L152.032 128H154.832L148.857 134.05L155.032 140.5ZM166.457 138.925C165.19 140.192 163.632 140.825 161.782 140.825C159.932 140.825 158.374 140.192 157.107 138.925C155.84 137.658 155.207 136.1 155.207 134.25C155.207 132.4 155.84 130.842 157.107 129.575C158.374 128.308 159.932 127.675 161.782 127.675C163.632 127.675 165.19 128.308 166.457 129.575C167.74 130.858 168.382 132.417 168.382 134.25C168.382 136.083 167.74 137.642 166.457 138.925ZM161.782 138.7C163.032 138.7 164.082 138.275 164.932 137.425C165.782 136.575 166.207 135.517 166.207 134.25C166.207 132.983 165.782 131.925 164.932 131.075C164.082 130.225 163.032 129.8 161.782 129.8C160.549 129.8 159.507 130.225 158.657 131.075C157.807 131.925 157.382 132.983 157.382 134.25C157.382 135.517 157.807 136.575 158.657 137.425C159.507 138.275 160.549 138.7 161.782 138.7ZM179.758 128V130.1H175.508V140.5H173.333V130.1H169.058V128H179.758ZM191.726 138.925C190.459 140.192 188.901 140.825 187.051 140.825C185.201 140.825 183.642 140.192 182.376 138.925C181.109 137.658 180.476 136.1 180.476 134.25C180.476 132.4 181.109 130.842 182.376 129.575C183.642 128.308 185.201 127.675 187.051 127.675C188.901 127.675 190.459 128.308 191.726 129.575C193.009 130.858 193.651 132.417 193.651 134.25C193.651 136.083 193.009 137.642 191.726 138.925ZM187.051 138.7C188.301 138.7 189.351 138.275 190.201 137.425C191.051 136.575 191.476 135.517 191.476 134.25C191.476 132.983 191.051 131.925 190.201 131.075C189.351 130.225 188.301 129.8 187.051 129.8C185.817 129.8 184.776 130.225 183.926 131.075C183.076 131.925 182.651 132.983 182.651 134.25C182.651 135.517 183.076 136.575 183.926 137.425C184.776 138.275 185.817 138.7 187.051 138.7ZM203.115 127.675C204.865 127.675 206.356 128.317 207.59 129.6C208.823 130.883 209.44 132.433 209.44 134.25C209.44 136.083 208.823 137.642 207.59 138.925C206.373 140.192 204.881 140.825 203.115 140.825C201.031 140.825 199.456 140 198.39 138.35V145.5H196.215V128H198.39V130.15C199.456 128.5 201.031 127.675 203.115 127.675ZM202.84 138.725C204.09 138.725 205.14 138.3 205.99 137.45C206.84 136.583 207.265 135.517 207.265 134.25C207.265 132.983 206.84 131.925 205.99 131.075C205.14 130.208 204.09 129.775 202.84 129.775C201.573 129.775 200.515 130.208 199.665 131.075C198.815 131.925 198.39 132.983 198.39 134.25C198.39 135.517 198.815 136.583 199.665 137.45C200.515 138.3 201.573 138.725 202.84 138.725ZM222.385 128H224.56V140.5H222.385V138.35C221.302 140 219.727 140.825 217.66 140.825C215.893 140.825 214.402 140.192 213.185 138.925C211.952 137.642 211.335 136.083 211.335 134.25C211.335 132.433 211.952 130.883 213.185 129.6C214.418 128.317 215.91 127.675 217.66 127.675C219.727 127.675 221.302 128.5 222.385 130.15V128ZM217.935 138.725C219.202 138.725 220.26 138.3 221.11 137.45C221.96 136.583 222.385 135.517 222.385 134.25C222.385 132.983 221.96 131.925 221.11 131.075C220.26 130.208 219.202 129.775 217.935 129.775C216.685 129.775 215.635 130.208 214.785 131.075C213.935 131.925 213.51 132.983 213.51 134.25C213.51 135.517 213.935 136.583 214.785 137.45C215.635 138.3 216.685 138.725 217.935 138.725ZM237.205 128V140.5H235.055V136H233.23L229.73 140.5H227.08L230.73 135.875C229.78 135.642 229.014 135.183 228.43 134.5C227.864 133.8 227.58 132.975 227.58 132.025C227.58 130.875 227.989 129.917 228.805 129.15C229.622 128.383 230.647 128 231.88 128H237.205ZM235.055 134.05V130.025H231.955C231.339 130.025 230.814 130.208 230.38 130.575C229.947 130.942 229.73 131.433 229.73 132.05C229.73 132.65 229.947 133.133 230.38 133.5C230.814 133.867 231.339 134.05 231.955 134.05H235.055ZM257.602 140.5H255.052L251.552 135.775L248.027 140.5H245.477L250.277 134.075L245.752 128H248.327L251.552 132.35L254.777 128H257.327L252.827 134.05L257.602 140.5ZM269.289 138.925C268.022 140.192 266.464 140.825 264.614 140.825C262.764 140.825 261.206 140.192 259.939 138.925C258.672 137.658 258.039 136.1 258.039 134.25C258.039 132.4 258.672 130.842 259.939 129.575C261.206 128.308 262.764 127.675 264.614 127.675C266.464 127.675 268.022 128.308 269.289 129.575C270.572 130.858 271.214 132.417 271.214 134.25C271.214 136.083 270.572 137.642 269.289 138.925ZM264.614 138.7C265.864 138.7 266.914 138.275 267.764 137.425C268.614 136.575 269.039 135.517 269.039 134.25C269.039 132.983 268.614 131.925 267.764 131.075C266.914 130.225 265.864 129.8 264.614 129.8C263.381 129.8 262.339 130.225 261.489 131.075C260.639 131.925 260.214 132.983 260.214 134.25C260.214 135.517 260.639 136.575 261.489 137.425C262.339 138.275 263.381 138.7 264.614 138.7ZM281.385 128H283.56V140.5H281.385V136C280.368 136.433 279.243 136.65 278.01 136.65C276.393 136.65 275.151 136.275 274.285 135.525C273.418 134.775 272.985 133.65 272.985 132.15V128H275.16V132.025C275.16 132.975 275.41 133.65 275.91 134.05C276.41 134.433 277.16 134.625 278.16 134.625C279.31 134.625 280.385 134.408 281.385 133.975V128ZM288.389 135.25C288.606 136.367 289.114 137.233 289.914 137.85C290.714 138.467 291.714 138.775 292.914 138.775C294.564 138.775 295.764 138.167 296.514 136.95L298.364 138C297.131 139.883 295.297 140.825 292.864 140.825C290.897 140.825 289.281 140.208 288.014 138.975C286.781 137.708 286.164 136.133 286.164 134.25C286.164 132.35 286.772 130.783 287.989 129.55C289.206 128.3 290.781 127.675 292.714 127.675C294.547 127.675 296.039 128.325 297.189 129.625C298.356 130.892 298.939 132.442 298.939 134.275C298.939 134.608 298.914 134.933 298.864 135.25H288.389ZM292.714 129.725C291.547 129.725 290.581 130.058 289.814 130.725C289.047 131.375 288.572 132.25 288.389 133.35H296.739C296.556 132.15 296.089 131.25 295.339 130.65C294.589 130.033 293.714 129.725 292.714 129.725ZM310.251 128V130.1H306.001V140.5H303.826V130.1H299.551V128H310.251ZM24.375 165.825C22.525 165.825 21 165.217 19.8 164C18.6 162.783 18 161.217 18 159.3C18 157.15 18.3083 155.508 18.925 154.375C19.5583 153.225 20.8417 152.183 22.775 151.25C22.9583 151.167 23.1667 151.075 23.4 150.975C23.6333 150.858 23.9 150.733 24.2 150.6L25.55 150C25.7833 149.883 26.0167 149.75 26.25 149.6C26.5 149.433 26.725 149.25 26.925 149.05C27.125 148.85 27.2917 148.633 27.425 148.4C27.5583 148.15 27.6417 147.883 27.675 147.6L29.425 148.6C29.375 148.867 29.3083 149.117 29.225 149.35C29.1417 149.567 29.0167 149.783 28.85 150C28.7 150.2 28.5667 150.375 28.45 150.525C28.3333 150.675 28.1333 150.842 27.85 151.025C27.7167 151.108 27.6083 151.183 27.525 151.25C27.4417 151.3 27.35 151.35 27.25 151.4C27.1667 151.45 27.0667 151.508 26.95 151.575C26.85 151.625 26.7083 151.692 26.525 151.775C26.3417 151.858 26.1917 151.933 26.075 152C25.9583 152.05 25.8667 152.092 25.8 152.125L24.975 152.475L24.175 152.8C23.6083 153.05 23.1167 153.292 22.7 153.525C22.3 153.758 21.9583 154.008 21.675 154.275C21.4083 154.542 21.1833 154.833 21 155.15C20.8167 155.45 20.6667 155.792 20.55 156.175C21.0833 155.508 21.75 155.017 22.55 154.7C23.35 154.383 24.15 154.225 24.95 154.225C26.5333 154.225 27.8583 154.758 28.925 155.825C30.025 156.908 30.575 158.283 30.575 159.95C30.575 161.65 29.9917 163.058 28.825 164.175C27.6417 165.275 26.1583 165.825 24.375 165.825ZM28.4 159.95C28.4 159.4 28.3 158.892 28.1 158.425C27.9167 157.958 27.65 157.558 27.3 157.225C26.9667 156.875 26.5583 156.608 26.075 156.425C25.5917 156.242 25.05 156.15 24.45 156.15C23.4 156.15 22.4333 156.492 21.55 157.175C20.7 157.858 20.275 158.742 20.275 159.825C20.275 160.958 20.6667 161.892 21.45 162.625C22.2333 163.358 23.2083 163.725 24.375 163.725C25.5583 163.725 26.5167 163.367 27.25 162.65C28.0167 161.933 28.4 161.033 28.4 159.95ZM38.1596 157.5C39.3929 157.5 40.4262 157.875 41.2596 158.625C42.0929 159.358 42.5096 160.317 42.5096 161.5C42.5096 162.683 42.0929 163.65 41.2596 164.4C40.4262 165.133 39.3929 165.5 38.1596 165.5H32.8846V153H35.0596V157.5H38.1596ZM44.1346 153H46.3096V165.5H44.1346V153ZM38.1596 163.475C38.7762 163.475 39.2929 163.3 39.7096 162.95C40.1429 162.583 40.3596 162.1 40.3596 161.5C40.3596 160.9 40.1429 160.417 39.7096 160.05C39.2929 159.683 38.7762 159.5 38.1596 159.5H35.0596V163.475H38.1596ZM58.9326 153V155.1H54.6826V165.5H52.5076V155.1H48.2326V153H58.9326ZM66.1137 157.5C67.347 157.5 68.3803 157.875 69.2137 158.625C70.047 159.358 70.4637 160.317 70.4637 161.5C70.4637 162.683 70.047 163.65 69.2137 164.4C68.3803 165.133 67.347 165.5 66.1137 165.5H60.8387V153H63.0137V157.5H66.1137ZM66.1137 163.475C66.7303 163.475 67.247 163.3 67.6637 162.95C68.097 162.583 68.3137 162.1 68.3137 161.5C68.3137 160.9 68.097 160.417 67.6637 160.05C67.247 159.683 66.7303 159.5 66.1137 159.5H63.0137V163.475H66.1137ZM83.5516 152.675C85.4349 152.675 86.9682 153.292 88.1516 154.525C89.3349 155.758 89.9266 157.333 89.9266 159.25C89.9266 161.133 89.3349 162.708 88.1516 163.975C86.9682 165.208 85.4266 165.825 83.5266 165.825C82.1766 165.825 81.0016 165.533 80.0016 164.95C79.0182 164.35 78.3016 163.542 77.8516 162.525L79.7016 161.45C79.9682 162.15 80.4266 162.708 81.0766 163.125C81.7432 163.525 82.5599 163.725 83.5266 163.725C84.6266 163.725 85.5349 163.417 86.2516 162.8C86.9849 162.167 87.4516 161.325 87.6516 160.275H82.0766V158.225H87.6516C87.4516 157.175 86.9932 156.342 86.2766 155.725C85.5766 155.092 84.6766 154.775 83.5766 154.775C82.6766 154.775 81.9016 154.975 81.2516 155.375C80.6016 155.775 80.1182 156.325 79.8016 157.025L77.9266 155.95C78.4266 154.933 79.1766 154.133 80.1766 153.55C81.1766 152.967 82.3016 152.675 83.5516 152.675ZM100.379 170.5H98.2287V165.75C96.2787 165.533 94.7204 164.825 93.5537 163.625C92.387 162.442 91.8037 160.983 91.8037 159.25C91.8037 157.517 92.387 156.058 93.5537 154.875C94.7204 153.675 96.2787 152.967 98.2287 152.75V148H100.379V152.75C102.329 152.967 103.887 153.675 105.054 154.875C106.22 156.058 106.804 157.517 106.804 159.25C106.804 160.983 106.22 162.442 105.054 163.625C103.887 164.825 102.329 165.533 100.379 165.75V170.5ZM93.9537 159.25C93.9537 160.4 94.3287 161.375 95.0787 162.175C95.8287 162.975 96.8787 163.467 98.2287 163.65V154.85C96.8787 155.017 95.8287 155.5 95.0787 156.3C94.3287 157.1 93.9537 158.083 93.9537 159.25ZM100.379 163.65C101.729 163.467 102.77 162.975 103.504 162.175C104.254 161.375 104.629 160.4 104.629 159.25C104.629 158.1 104.254 157.125 103.504 156.325C102.77 155.525 101.729 155.033 100.379 154.85V163.65ZM117.249 170.5H115.099V165.75C113.149 165.533 111.591 164.825 110.424 163.625C109.257 162.442 108.674 160.983 108.674 159.25C108.674 157.517 109.257 156.058 110.424 154.875C111.591 153.675 113.149 152.967 115.099 152.75V148H117.249V152.75C119.199 152.967 120.757 153.675 121.924 154.875C123.09 156.058 123.674 157.517 123.674 159.25C123.674 160.983 123.09 162.442 121.924 163.625C120.757 164.825 119.199 165.533 117.249 165.75V170.5ZM110.824 159.25C110.824 160.4 111.199 161.375 111.949 162.175C112.699 162.975 113.749 163.467 115.099 163.65V154.85C113.749 155.017 112.699 155.5 111.949 156.3C111.199 157.1 110.824 158.083 110.824 159.25ZM117.249 163.65C118.599 163.467 119.64 162.975 120.374 162.175C121.124 161.375 121.499 160.4 121.499 159.25C121.499 158.1 121.124 157.125 120.374 156.325C119.64 155.525 118.599 155.033 117.249 154.85V163.65ZM127.769 160.25C127.986 161.367 128.494 162.233 129.294 162.85C130.094 163.467 131.094 163.775 132.294 163.775C133.944 163.775 135.144 163.167 135.894 161.95L137.744 163C136.511 164.883 134.677 165.825 132.244 165.825C130.277 165.825 128.661 165.208 127.394 163.975C126.161 162.708 125.544 161.133 125.544 159.25C125.544 157.35 126.152 155.783 127.369 154.55C128.586 153.3 130.161 152.675 132.094 152.675C133.927 152.675 135.419 153.325 136.569 154.625C137.736 155.892 138.319 157.442 138.319 159.275C138.319 159.608 138.294 159.933 138.244 160.25H127.769ZM132.094 154.725C130.927 154.725 129.961 155.058 129.194 155.725C128.427 156.375 127.952 157.25 127.769 158.35H136.119C135.936 157.15 135.469 156.25 134.719 155.65C133.969 155.033 133.094 154.725 132.094 154.725ZM151.394 165.5H148.694L142.994 159.575V165.5H140.819V153H142.994V158.525L148.394 153H151.194L145.219 159.05L151.394 165.5ZM162.717 153V155.1H158.467V165.5H156.292V155.1H152.017V153H162.717ZM173.698 153H175.448V165.5H173.298V156.725L166.373 165.5H164.623V153H166.773V161.775L173.698 153ZM187.084 159.075C188.367 159.608 189.009 160.575 189.009 161.975C189.009 163.025 188.667 163.875 187.984 164.525C187.3 165.175 186.309 165.5 185.009 165.5H178.759V153H184.509C185.759 153 186.725 153.317 187.409 153.95C188.092 154.567 188.434 155.383 188.434 156.4C188.434 157.617 187.984 158.508 187.084 159.075ZM180.884 154.95V158.225H184.409C185.675 158.225 186.309 157.667 186.309 156.55C186.309 155.483 185.675 154.95 184.409 154.95H180.884ZM184.884 163.525C185.517 163.525 186 163.375 186.334 163.075C186.684 162.775 186.859 162.35 186.859 161.8C186.859 161.283 186.684 160.883 186.334 160.6C186 160.3 185.517 160.15 184.884 160.15H180.884V163.525H184.884ZM200.006 153H202.181V165.5H200.006V160.275H193.531V165.5H191.356V153H193.531V158.2H200.006V153ZM216.042 163.925C214.775 165.192 213.217 165.825 211.367 165.825C209.517 165.825 207.959 165.192 206.692 163.925C205.425 162.658 204.792 161.1 204.792 159.25C204.792 157.4 205.425 155.842 206.692 154.575C207.959 153.308 209.517 152.675 211.367 152.675C213.217 152.675 214.775 153.308 216.042 154.575C217.325 155.858 217.967 157.417 217.967 159.25C217.967 161.083 217.325 162.642 216.042 163.925ZM211.367 163.7C212.617 163.7 213.667 163.275 214.517 162.425C215.367 161.575 215.792 160.517 215.792 159.25C215.792 157.983 215.367 156.925 214.517 156.075C213.667 155.225 212.617 154.8 211.367 154.8C210.134 154.8 209.092 155.225 208.242 156.075C207.392 156.925 206.967 157.983 206.967 159.25C206.967 160.517 207.392 161.575 208.242 162.425C209.092 163.275 210.134 163.7 211.367 163.7ZM222.581 151.125V149.225H229.331V151.125H222.581ZM229.606 153H231.356V165.5H229.206V156.725L222.281 165.5H220.531V153H222.681V161.775L229.606 153ZM250.267 148H254.267V165.5H250.267V158.55H244.767V165.5H240.767V148H244.767V154.7H250.267V148ZM261.271 161.65H268.271V165.5H257.271V148H268.146V151.85H261.271V154.75H267.521V158.55H261.271V161.65ZM290.528 161.65H292.403V168.85H288.403V165.5H279.653V168.85H275.653V161.65H277.428C278.344 160.333 278.803 158.4 278.803 155.85V148H290.528V161.65ZM286.528 161.65V151.75H282.803V155.9C282.803 158.383 282.428 160.3 281.678 161.65H286.528ZM309.082 163.225C307.299 164.975 305.149 165.85 302.632 165.85C300.099 165.85 297.949 164.975 296.182 163.225C294.416 161.475 293.532 159.317 293.532 156.75C293.532 154.183 294.416 152.025 296.182 150.275C297.949 148.525 300.099 147.65 302.632 147.65C305.149 147.65 307.299 148.525 309.082 150.275C310.849 152.025 311.732 154.183 311.732 156.75C311.732 159.317 310.849 161.475 309.082 163.225ZM298.982 160.5C299.949 161.467 301.166 161.95 302.632 161.95C304.082 161.95 305.291 161.467 306.257 160.5C307.241 159.517 307.732 158.267 307.732 156.75C307.732 155.233 307.241 153.983 306.257 153C305.291 152.033 304.082 151.55 302.632 151.55C301.166 151.55 299.949 152.033 298.982 153C298.016 153.967 297.532 155.217 297.532 156.75C297.532 158.283 298.016 159.533 298.982 160.5ZM311.734 161.75C312.7 161.9 313.425 161.75 313.909 161.3C314.392 160.85 314.634 159.933 314.634 158.55V148H326.734V165.5H322.734V151.85H318.634V158.4C318.634 159.9 318.425 161.167 318.009 162.2C317.609 163.217 317.059 163.967 316.359 164.45C315.659 164.917 314.934 165.233 314.184 165.4C313.45 165.567 312.634 165.6 311.734 165.5V161.75ZM351.032 165.5H346.607L341.757 157.75V165.5H337.757V157.75L332.907 165.5H328.482L334.132 156.6L328.732 148H333.157L337.757 155.7V148H341.757V155.7L346.357 148H350.782L345.382 156.6L351.032 165.5ZM362.279 148H366.279V165.5H362.279V158.55H356.779V165.5H352.779V148H356.779V154.7H362.279V148ZM380.407 165.5L379.532 162.75H373.032L372.157 165.5H367.782L373.732 148H378.832L384.782 165.5H380.407ZM374.232 159H378.332L376.282 152.575L374.232 159ZM29.525 178V190.5H27.35V180.075H20.875V190.5H18.7V178H29.525ZM34.3607 185.25C34.5774 186.367 35.0857 187.233 35.8857 187.85C36.6857 188.467 37.6857 188.775 38.8857 188.775C40.5357 188.775 41.7357 188.167 42.4857 186.95L44.3357 188C43.1024 189.883 41.2691 190.825 38.8357 190.825C36.8691 190.825 35.2524 190.208 33.9857 188.975C32.7524 187.708 32.1357 186.133 32.1357 184.25C32.1357 182.35 32.7441 180.783 33.9607 179.55C35.1774 178.3 36.7524 177.675 38.6857 177.675C40.5191 177.675 42.0107 178.325 43.1607 179.625C44.3274 180.892 44.9107 182.442 44.9107 184.275C44.9107 184.608 44.8857 184.933 44.8357 185.25H34.3607ZM38.6857 179.725C37.5191 179.725 36.5524 180.058 35.7857 180.725C35.0191 181.375 34.5441 182.25 34.3607 183.35H42.7107C42.5274 182.15 42.0607 181.25 41.3107 180.65C40.5607 180.033 39.6857 179.725 38.6857 179.725ZM54.3109 177.675C56.0609 177.675 57.5526 178.317 58.7859 179.6C60.0193 180.883 60.6359 182.433 60.6359 184.25C60.6359 186.083 60.0193 187.642 58.7859 188.925C57.5693 190.192 56.0776 190.825 54.3109 190.825C52.2276 190.825 50.6526 190 49.5859 188.35V195.5H47.4109V178H49.5859V180.15C50.6526 178.5 52.2276 177.675 54.3109 177.675ZM54.0359 188.725C55.2859 188.725 56.3359 188.3 57.1859 187.45C58.0359 186.583 58.4609 185.517 58.4609 184.25C58.4609 182.983 58.0359 181.925 57.1859 181.075C56.3359 180.208 55.2859 179.775 54.0359 179.775C52.7693 179.775 51.7109 180.208 50.8609 181.075C50.0109 181.925 49.5859 182.983 49.5859 184.25C49.5859 185.517 50.0109 186.583 50.8609 187.45C51.7109 188.3 52.7693 188.725 54.0359 188.725ZM64.7563 185.25C64.9729 186.367 65.4813 187.233 66.2813 187.85C67.0813 188.467 68.0813 188.775 69.2813 188.775C70.9313 188.775 72.1313 188.167 72.8813 186.95L74.7313 188C73.4979 189.883 71.6646 190.825 69.2313 190.825C67.2646 190.825 65.6479 190.208 64.3813 188.975C63.1479 187.708 62.5313 186.133 62.5313 184.25C62.5313 182.35 63.1396 180.783 64.3563 179.55C65.5729 178.3 67.1479 177.675 69.0813 177.675C70.9146 177.675 72.4063 178.325 73.5563 179.625C74.7229 180.892 75.3063 182.442 75.3063 184.275C75.3063 184.608 75.2813 184.933 75.2313 185.25H64.7563ZM69.0813 179.725C67.9146 179.725 66.9479 180.058 66.1813 180.725C65.4146 181.375 64.9396 182.25 64.7563 183.35H73.1063C72.9229 182.15 72.4563 181.25 71.7063 180.65C70.9563 180.033 70.0813 179.725 69.0813 179.725ZM88.6314 178V190.5H86.4564V180.075H79.9814V190.5H77.8064V178H88.6314ZM102.367 178V190.5H100.192V180.1H95.2672V185.2C95.2672 187.25 94.8505 188.683 94.0172 189.5C93.2005 190.3 92.0422 190.633 90.5422 190.5V188.45C91.3922 188.567 92.0255 188.383 92.4422 187.9C92.8755 187.4 93.0922 186.483 93.0922 185.15V178H102.367ZM116.013 178H118.188V190.5H116.013V188.35C114.93 190 113.355 190.825 111.288 190.825C109.521 190.825 108.03 190.192 106.813 188.925C105.58 187.642 104.963 186.083 104.963 184.25C104.963 182.433 105.58 180.883 106.813 179.6C108.046 178.317 109.538 177.675 111.288 177.675C113.355 177.675 114.93 178.5 116.013 180.15V178ZM111.563 188.725C112.83 188.725 113.888 188.3 114.738 187.45C115.588 186.583 116.013 185.517 116.013 184.25C116.013 182.983 115.588 181.925 114.738 181.075C113.888 180.208 112.83 179.775 111.563 179.775C110.313 179.775 109.263 180.208 108.413 181.075C107.563 181.925 107.138 182.983 107.138 184.25C107.138 185.517 107.563 186.583 108.413 187.45C109.263 188.3 110.313 188.725 111.563 188.725ZM129.358 178H131.533V190.5H129.358V186C128.342 186.433 127.217 186.65 125.983 186.65C124.367 186.65 123.125 186.275 122.258 185.525C121.392 184.775 120.958 183.65 120.958 182.15V178H123.133V182.025C123.133 182.975 123.383 183.65 123.883 184.05C124.383 184.433 125.133 184.625 126.133 184.625C127.283 184.625 128.358 184.408 129.358 183.975V178ZM143.913 178H145.663V190.5H143.513V181.725L136.588 190.5H134.838V178H136.988V186.775L143.913 178ZM157.298 184.075C158.582 184.608 159.223 185.575 159.223 186.975C159.223 188.025 158.882 188.875 158.198 189.525C157.515 190.175 156.523 190.5 155.223 190.5H148.973V178H154.723C155.973 178 156.94 178.317 157.623 178.95C158.307 179.567 158.648 180.383 158.648 181.4C158.648 182.617 158.198 183.508 157.298 184.075ZM151.098 179.95V183.225H154.623C155.89 183.225 156.523 182.667 156.523 181.55C156.523 180.483 155.89 179.95 154.623 179.95H151.098ZM155.098 188.525C155.732 188.525 156.215 188.375 156.548 188.075C156.898 187.775 157.073 187.35 157.073 186.8C157.073 186.283 156.898 185.883 156.548 185.6C156.215 185.3 155.732 185.15 155.098 185.15H151.098V188.525H155.098ZM171.921 178H174.096V190.5H171.921V188.35C170.838 190 169.263 190.825 167.196 190.825C165.429 190.825 163.938 190.192 162.721 188.925C161.488 187.642 160.871 186.083 160.871 184.25C160.871 182.433 161.488 180.883 162.721 179.6C163.954 178.317 165.446 177.675 167.196 177.675C169.263 177.675 170.838 178.5 171.921 180.15V178ZM167.471 188.725C168.738 188.725 169.796 188.3 170.646 187.45C171.496 186.583 171.921 185.517 171.921 184.25C171.921 182.983 171.496 181.925 170.646 181.075C169.796 180.208 168.738 179.775 167.471 179.775C166.221 179.775 165.171 180.208 164.321 181.075C163.471 181.925 163.046 182.983 163.046 184.25C163.046 185.517 163.471 186.583 164.321 187.45C165.171 188.3 166.221 188.725 167.471 188.725ZM186.691 178V180.1H182.441V190.5H180.266V180.1H175.991V178H186.691ZM193.872 182.5C195.106 182.5 196.139 182.875 196.972 183.625C197.806 184.358 198.222 185.317 198.222 186.5C198.222 187.683 197.806 188.65 196.972 189.4C196.139 190.133 195.106 190.5 193.872 190.5H188.597V178H190.772V182.5H193.872ZM193.872 188.475C194.489 188.475 195.006 188.3 195.422 187.95C195.856 187.583 196.072 187.1 196.072 186.5C196.072 185.9 195.856 185.417 195.422 185.05C195.006 184.683 194.489 184.5 193.872 184.5H190.772V188.475H193.872ZM213.56 184.1C214.944 184.683 215.635 185.675 215.635 187.075C215.635 187.608 215.527 188.1 215.31 188.55C215.11 189 214.802 189.4 214.385 189.75C213.985 190.083 213.485 190.342 212.885 190.525C212.285 190.725 211.602 190.825 210.835 190.825C208.335 190.825 206.66 189.825 205.81 187.825L207.635 186.75C208.102 188.117 209.177 188.8 210.86 188.8C211.71 188.8 212.36 188.625 212.81 188.275C213.26 187.908 213.485 187.442 213.485 186.875C213.485 186.375 213.294 185.967 212.91 185.65C212.544 185.333 212.044 185.175 211.41 185.175H209.585V183.2H210.935C211.569 183.2 212.06 183.05 212.41 182.75C212.76 182.433 212.935 182.008 212.935 181.475C212.935 180.942 212.727 180.508 212.31 180.175C211.91 179.842 211.352 179.675 210.635 179.675C209.235 179.675 208.285 180.267 207.785 181.45L206.01 180.425C206.894 178.592 208.435 177.675 210.635 177.675C211.319 177.675 211.927 177.775 212.46 177.975C213.01 178.158 213.477 178.417 213.86 178.75C214.244 179.067 214.535 179.45 214.735 179.9C214.952 180.333 215.06 180.8 215.06 181.3C215.06 182.567 214.56 183.5 213.56 184.1ZM228.342 178H230.517V190.5H228.342V188.35C227.259 190 225.684 190.825 223.617 190.825C221.85 190.825 220.359 190.192 219.142 188.925C217.909 187.642 217.292 186.083 217.292 184.25C217.292 182.433 217.909 180.883 219.142 179.6C220.375 178.317 221.867 177.675 223.617 177.675C225.684 177.675 227.259 178.5 228.342 180.15V178ZM223.892 188.725C225.159 188.725 226.217 188.3 227.067 187.45C227.917 186.583 228.342 185.517 228.342 184.25C228.342 182.983 227.917 181.925 227.067 181.075C226.217 180.208 225.159 179.775 223.892 179.775C222.642 179.775 221.592 180.208 220.742 181.075C219.892 181.925 219.467 182.983 219.467 184.25C219.467 185.517 219.892 186.583 220.742 187.45C221.592 188.3 222.642 188.725 223.892 188.725ZM248.787 178H251.112L246.012 191.275C245.479 192.692 244.729 193.767 243.762 194.5C242.812 195.25 241.712 195.583 240.462 195.5V193.475C241.979 193.592 243.104 192.758 243.837 190.975L244.037 190.525L238.612 178H240.912L245.187 187.8L248.787 178ZM263.754 178V190.5H261.579V180.075H255.104V190.5H252.929V178H263.754ZM277.414 178H279.589V190.5H277.414V188.35C276.331 190 274.756 190.825 272.689 190.825C270.923 190.825 269.431 190.192 268.214 188.925C266.981 187.642 266.364 186.083 266.364 184.25C266.364 182.433 266.981 180.883 268.214 179.6C269.448 178.317 270.939 177.675 272.689 177.675C274.756 177.675 276.331 178.5 277.414 180.15V178ZM272.964 188.725C274.231 188.725 275.289 188.3 276.139 187.45C276.989 186.583 277.414 185.517 277.414 184.25C277.414 182.983 276.989 181.925 276.139 181.075C275.289 180.208 274.231 179.775 272.964 179.775C271.714 179.775 270.664 180.208 269.814 181.075C268.964 181.925 268.539 182.983 268.539 184.25C268.539 185.517 268.964 186.583 269.814 187.45C270.664 188.3 271.714 188.725 272.964 188.725ZM293.46 190.5H290.76L285.06 184.575V190.5H282.885V178H285.06V183.525L290.46 178H293.26L287.285 184.05L293.46 190.5ZM304.885 188.925C303.618 190.192 302.06 190.825 300.21 190.825C298.36 190.825 296.801 190.192 295.535 188.925C294.268 187.658 293.635 186.1 293.635 184.25C293.635 182.4 294.268 180.842 295.535 179.575C296.801 178.308 298.36 177.675 300.21 177.675C302.06 177.675 303.618 178.308 304.885 179.575C306.168 180.858 306.81 182.417 306.81 184.25C306.81 186.083 306.168 187.642 304.885 188.925ZM300.21 188.7C301.46 188.7 302.51 188.275 303.36 187.425C304.21 186.575 304.635 185.517 304.635 184.25C304.635 182.983 304.21 181.925 303.36 181.075C302.51 180.225 301.46 179.8 300.21 179.8C298.976 179.8 297.935 180.225 297.085 181.075C296.235 181.925 295.81 182.983 295.81 184.25C295.81 185.517 296.235 186.575 297.085 187.425C297.935 188.275 298.976 188.7 300.21 188.7ZM317.699 184.075C318.982 184.608 319.624 185.575 319.624 186.975C319.624 188.025 319.282 188.875 318.599 189.525C317.915 190.175 316.924 190.5 315.624 190.5H309.374V178H315.124C316.374 178 317.34 178.317 318.024 178.95C318.707 179.567 319.049 180.383 319.049 181.4C319.049 182.617 318.599 183.508 317.699 184.075ZM311.499 179.95V183.225H315.024C316.29 183.225 316.924 182.667 316.924 181.55C316.924 180.483 316.29 179.95 315.024 179.95H311.499ZM315.499 188.525C316.132 188.525 316.615 188.375 316.949 188.075C317.299 187.775 317.474 187.35 317.474 186.8C317.474 186.283 317.299 185.883 316.949 185.6C316.615 185.3 316.132 185.15 315.499 185.15H311.499V188.525H315.499ZM332.546 190.5H329.846L324.146 184.575V190.5H321.971V178H324.146V183.525L329.546 178H332.346L326.371 184.05L332.546 190.5ZM342.928 178H345.253L340.153 191.275C339.62 192.692 338.87 193.767 337.903 194.5C336.953 195.25 335.853 195.583 334.603 195.5V193.475C336.12 193.592 337.245 192.758 337.978 190.975L338.178 190.525L332.753 178H335.053L339.328 187.8L342.928 178ZM347.619 185.375L347.144 178V173H349.769V178L349.294 185.375H347.619ZM348.444 190.775C347.994 190.775 347.611 190.617 347.294 190.3C346.977 189.983 346.819 189.6 346.819 189.15C346.819 188.7 346.977 188.317 347.294 188C347.611 187.683 347.994 187.525 348.444 187.525C348.911 187.525 349.294 187.683 349.594 188C349.911 188.317 350.069 188.7 350.069 189.15C350.069 189.6 349.911 189.983 349.594 190.3C349.294 190.617 348.911 190.775 348.444 190.775Z" fill="#1E1E1E"/>
</g>
<mask id="mask0_201_47" style="mask-type:alpha" maskUnits="userSpaceOnUse" x="249" y="0" width="444" height="247">
<path d="M673 0.585449H269C257.954 0.585449 249 9.53975 249 20.5854V226.999C249 238.045 257.954 246.999 269 246.999H673C684.046 246.999 693 238.045 693 226.999V20.5854C693 9.53975 684.046 0.585449 673 0.585449Z" fill="#F8D000"/>
</mask>
<g mask="url(#mask0_201_47)">
<mask id="mask1_201_47" style="mask-type:alpha" maskUnits="userSpaceOnUse" x="153" y="-21" width="556" height="589">
<path d="M357.976 219.867L323.059 230.241L218.814 250.483C197.222 277.725 153.837 341.773 153.028 380.03C152.016 427.852 179.089 433.165 189.969 448.093C200.849 463.022 460.703 565.496 524.718 567.014C588.733 568.532 696.268 502.746 706.642 497.433C714.941 493.182 697.28 439.322 687.412 412.923L706.642 340.053C706.726 305.304 706.844 234.289 706.642 228.217C706.389 220.626 692.219 178.877 679.568 166.985C666.917 155.093 630.229 110.561 629.47 104.994C628.862 100.541 633.265 87.1141 635.542 80.9572C641.109 70.9206 652.495 47.8112 653.507 35.6661C654.772 20.4848 640.603 2.77315 617.325 -13.1673C594.047 -29.1077 585.191 -15.9505 579.118 -14.9384C573.046 -13.9263 526.236 38.9554 524.718 44.2689C523.2 49.5824 533.827 53.6308 541.165 55.6549C548.502 57.6791 544.96 55.908 543.948 65.5228C543.138 73.2147 545.803 79.6921 547.237 81.9693L541.165 90.8251C492.163 110.983 390.97 154.435 378.218 166.985C365.466 179.535 359.41 207.469 357.976 219.867Z" fill="#FFE34E"/>
</mask>
<g mask="url(#mask1_201_47)">
<path fill-rule="evenodd" clip-rule="evenodd" d="M560.249 100.901C560.519 102.587 560.764 104.999 561.197 105.938C561.978 106.39 562.781 106.982 563.677 107.271C563.838 107.389 563.976 107.367 564.275 107.463C565.152 106.746 566.007 105.889 566.283 105.845C568.863 105.144 571.575 106.151 573.779 107.528C574.1 107.765 574.836 107.936 575.71 108.084C583.058 106.188 587.887 100.947 586.204 101.937C579.389 102.739 576.166 102.966 567.97 97.792C566.746 98.997 563.151 100.437 560.249 100.901ZM517.834 248.5C519 250.475 520.008 251.467 521.107 253.02C524.198 257.282 526.996 259.717 529.239 263.106C531.07 265.695 532.905 267.419 530.251 269.43C526.95 271.831 521.569 264.765 519.645 262.478L516.371 257.958C513.74 253.911 510.97 249.886 508.571 245.514C507.36 243.257 504.04 244.653 505.573 247.146C509.277 253.472 511.52 256.861 515.548 262.557L517.861 265.503C519.625 267.67 519.144 267.315 521.643 269.654C523.082 272.45 522.494 275.859 519.824 275.998C515.451 276.121 509.549 266.688 506.825 262.944C505.36 260.872 504.171 258.757 502.844 256.663L497.058 247.067C496.027 245.935 494.115 246.385 494.086 247.975C494.083 248.84 497.08 253.405 497.697 254.604C500.624 259.612 506.32 268.646 509.964 272.819C510.995 273.951 511.316 274.188 511.769 276.133C512.155 277.657 511.942 278.989 510.949 279.868C507.855 282.669 502.114 273.355 500.582 270.861C499.415 268.886 497.928 266.673 496.739 264.558C496.145 263.5 495.55 262.442 494.934 261.243C493.401 258.75 491.233 254.053 489.655 251.278C489.244 250.48 488.377 248.6 486.67 249.45C485.379 250.233 486.041 251.713 486.612 252.63L486.635 252.77L486.657 252.911L486.68 253.052L486.702 253.192L486.725 253.332L486.747 253.473L486.77 253.614L486.792 253.754L486.815 253.895L486.837 254.035L486.86 254.176L486.882 254.316L486.905 254.457L486.927 254.597L486.95 254.738L486.972 254.879L486.995 255.019L487.017 255.159L487.04 255.3L487.062 255.441L487.085 255.581L487.107 255.722L487.13 255.862L487.152 256.003L487.175 256.143L487.197 256.284L487.219 256.424L487.242 256.565L487.265 256.706L487.287 256.846L487.309 256.986L487.332 257.127L487.354 257.267L487.377 257.408L487.399 257.549L487.422 257.689L487.444 257.829L487.467 257.97L487.489 258.111L487.512 258.251L487.534 258.392L487.557 258.533L487.579 258.673L487.602 258.813L487.624 258.954L487.647 259.094L487.669 259.235L487.692 259.376L487.714 259.516L487.737 259.656L487.759 259.797L487.782 259.938L487.804 260.078L487.827 260.219L487.849 260.359L487.872 260.5L487.894 260.64L487.916 260.781L487.939 260.921L487.961 261.062L487.984 261.203L488.006 261.343L488.029 261.483L488.051 261.624L488.074 261.765L488.096 261.905L488.119 262.046L488.141 262.186L488.164 262.326L488.186 262.467L488.209 262.608L488.231 262.748L488.254 262.889L488.276 263.03L488.299 263.17L488.321 263.31L488.344 263.451L488.366 263.591L488.389 263.732L488.411 263.873L488.434 264.013L488.456 264.153L488.479 264.294L488.501 264.435L488.524 264.575L488.546 264.716L488.568 264.856L488.591 264.997L488.613 265.137L488.636 265.278L488.658 265.418L488.681 265.559L488.703 265.7L488.726 265.84L488.748 265.98L488.771 266.121L488.793 266.262L488.816 266.402L488.838 266.543L488.861 266.683L488.883 266.823L488.906 266.964L488.928 267.105L488.951 267.245L488.973 267.386L488.996 267.526L489.018 267.667L489.041 267.807L489.063 267.948L489.086 268.089L489.108 268.229L489.131 268.369L489.153 268.51L489.176 268.65L489.198 268.791L489.221 268.932L489.243 269.072L489.265 269.212L489.288 269.353L489.31 269.494L489.333 269.634L489.355 269.775L489.378 269.915L489.4 270.056L489.423 270.196L489.445 270.337L489.468 270.477L489.49 270.618L493.217 277.084L493.24 277.224L493.262 277.365L493.285 277.506L493.307 277.646L493.33 277.786L493.352 277.927C493.352 277.927 493.352 277.927 493.375 278.068C493.375 278.068 493.375 278.068 493.397 278.208L493.419 278.349C493.419 278.349 493.419 278.349 493.442 278.489C493.442 278.489 493.442 278.489 493.464 278.63C493.464 278.63 493.464 278.63 493.487 278.77L493.509 278.911C493.509 278.911 493.509 278.911 493.532 279.051C493.532 279.051 493.532 279.051 493.554 279.192C493.554 279.192 493.554 279.192 493.577 279.333C493.577 279.333 493.577 279.333 493.599 279.473C493.599 279.473 493.599 279.473 493.461 279.495C493.461 279.495 493.461 279.495 493.323 279.517C493.323 279.517 493.323 279.517 493.185 279.539C493.185 279.539 493.185 279.539 493.047 279.561C493.047 279.561 493.047 279.561 492.908 279.584C492.908 279.584 492.908 279.584 492.77 279.606C492.632 279.628 492.77 279.606 492.632 279.628C492.632 279.628 492.632 279.628 492.494 279.65C492.494 279.65 492.494 279.65 492.356 279.672C492.356 279.672 492.356 279.672 492.218 279.694C492.218 279.694 492.218 279.694 492.079 279.716C492.079 279.716 492.079 279.716 491.942 279.738L491.803 279.76L491.665 279.782L491.527 279.805L491.389 279.827L491.251 279.849L491.113 279.871L490.974 279.893L490.836 279.915L490.698 279.937L490.56 279.959C490.56 279.959 490.422 279.981 490.399 279.841C490.399 279.841 490.261 279.863 490.239 279.723C490.239 279.723 490.1 279.745 490.078 279.604C490.078 279.604 489.939 279.626 489.917 279.486C489.917 279.486 489.779 279.508 489.757 279.367L489.596 279.249L489.435 279.13L489.274 279.012L489.114 278.893L488.953 278.775L488.793 278.657L488.632 278.538L488.472 278.42L488.311 278.301L488.15 278.183C488.15 278.183 487.989 278.064 487.967 277.924C487.944 277.783 487.807 277.805 487.784 277.665C487.762 277.525 487.623 277.547 487.601 277.406C487.578 277.265 487.44 277.287 487.418 277.147C487.395 277.007 487.257 277.029 487.234 276.888C487.212 276.747 487.074 276.769 487.052 276.629C487.029 276.489 486.891 276.511 486.868 276.37C486.846 276.229 486.708 276.251 486.685 276.111C485.586 274.557 484.854 273.522 483.55 271.568C482.955 270.511 482.223 269.475 481.628 268.417C478.907 263.807 477.06 259.347 475.187 255.611C473.815 253.236 472.488 251.143 471.207 249.329L471.344 249.307C468.022 245.371 463.521 242.921 454.753 243.026L468.389 239.692L502.033 233.876C502.055 234.017 502.216 234.136 502.238 234.276L502.171 233.854L503.691 233.611L516.125 231.622C516.906 232.073 517.709 232.665 518.65 233.235C535.589 245.227 545.705 259.751 520.677 245.018C518.013 243.427 515.627 241.791 513.814 240.207C514.977 243.048 516.118 245.748 517.008 247.767C517.236 248.307 517.625 248.965 517.991 249.483L517.834 248.5ZM475.31 247.52L450.235 251.1L495.392 286.248L508.286 284.474C506.175 282.794 504.389 280.485 503.45 279.05C502.412 279.648 500.125 282.176 496.542 280.155C492.019 277.564 482.335 257.782 475.31 247.52ZM517.68 282.971L589.588 272.763L589.242 248.461L561.309 235.058L534.577 238.903C543.383 247.007 549.745 256.654 541.548 257.677C543.752 259.054 549.798 266.734 547.645 270.106C546.164 272.36 544.114 272.832 540.342 272.283C541.203 275.892 540.41 278.902 537.46 279.95C534.372 281.021 530.906 278.837 528.425 277.505C527.728 279.345 526.802 280.647 524.797 281.4C522.262 282.382 520.678 281.338 518.243 280.286C518.262 281.292 518.121 282.18 517.68 282.971ZM533.972 252.836C538.772 255.383 544.012 257.139 541.825 251.435C541.369 250.355 540.176 249.105 538.686 247.758C538.798 248.461 538.634 249.208 538.332 249.976C537.657 251.958 535.929 252.667 533.972 252.836ZM523.806 251.291L526.325 254.636C528.937 257.677 531.459 260.156 533.586 263.707C534.775 265.823 534.177 265.631 534.98 266.223C536.265 267.17 542.029 270.428 544.153 268.647C546.669 266.658 543.877 262.493 542.499 261.849C539.167 260.508 537.673 260.027 534.666 258.057C531.659 256.089 528.767 253.957 526.014 251.803C525.278 251.632 524.542 251.462 523.806 251.291ZM534.437 269.912C532.998 273.314 529.569 273.142 528.348 273.481C529.081 274.517 534.225 277.441 536.114 276.851C538.649 275.868 536.827 270.683 534.437 269.912ZM455.283 242.798L435.16 245.44L407.94 232.068L383.25 194.653L411.121 175.781L423.866 195.217L435.467 212.818L455.283 242.798ZM426.103 249.051L372.122 222.52L322.52 237.519L322.243 237.563L227.622 266.105L278.842 298.41L303.451 290.149L422.992 249.981L426.032 249.495L426.103 249.051ZM541.791 223.769C542.794 220.293 544.509 216.848 546.868 213.876C550.66 209.234 552.706 203.429 553.028 197.469C553.308 190.362 550.779 183.416 546.221 177.948C541.501 172.361 534.956 168.652 527.849 167.627C520.604 166.624 513.189 168.099 507.189 172.23C498.492 178.089 486.944 176.766 479.494 169.166C474.404 163.927 467.375 160.728 460.081 160.31C452.926 159.869 445.761 162.024 440.083 166.391C434.544 170.736 430.723 176.969 429.57 183.927C429.264 185.562 429.119 187.314 429.251 189.023L432.981 194.623C432.438 192.116 432.287 189.402 432.551 186.621C433.959 173.28 444.72 163.488 456.682 164.745C458.982 164.953 465.742 166.466 467.053 166.688C478.6 168.012 486.957 179.503 485.758 192.377C484.421 205.274 474.029 214.72 462.504 213.537C461.216 213.455 454.404 213.392 452.104 213.183C448.93 212.826 445.919 211.723 443.394 210.109L451.265 222.109C455.198 222.777 461.636 224.053 463.223 224.232C468.422 224.841 473.061 227.27 476.753 230.859L541.791 223.769ZM440.972 254.311L465.607 422.458L515.781 414.575L500.45 397.57C521.519 376.04 524.208 364.512 553.386 359.122C574.387 337.17 564.731 298.071 586.104 281.104L492.577 294.337L440.972 254.311ZM598.019 276.747C598.157 276.725 598.157 276.725 598.295 276.703C599.101 276.43 600.097 274.685 600.859 274.131C603.259 272.306 605.589 270.924 608.217 269.639C608.538 269.875 608.538 269.875 608.722 270.135C608.04 273.847 606.552 277.832 603.345 279.931C599.538 282.702 596.235 285.969 592.588 288.858C568.287 307.014 578.866 339.481 562.292 358.995C559.542 362.174 556.309 364.997 553.054 367.679C549.822 370.502 545.587 370.603 541.581 371.244C537.298 371.93 533.914 372.038 530.932 375.542C528.204 378.861 524.606 381.167 521.351 383.849C518.327 386.207 516.268 389.274 513.52 391.588C512.274 392.652 511.232 394.116 509.986 395.18C508.877 396.222 508.736 397.11 509.514 398.426C511.39 401.297 514.082 401.298 517.054 400.391C520.556 399.254 522.25 395.668 524.859 393.377C526.221 392.15 527.725 390.036 529.749 390.288C531.06 390.511 531.423 391.894 531.487 393.181C531.532 393.463 530.134 404.207 529.925 404.673C529.504 406.47 527.936 407.297 526.506 408.103C524.823 409.093 523.926 408.804 522.063 408.67C520.421 410.806 521.362 411.376 523.174 412.959C524.803 414.284 526.316 415.772 528.293 416.609C530.246 417.305 532.019 416.877 533.908 416.287C536.212 415.63 537.408 416.015 539.544 416.97C540.922 417.615 543.429 418.222 544.904 417.698C545.986 417.381 547.14 416.62 548.178 416.021C548.939 415.467 549.656 414.632 550.738 414.315C552.628 413.724 554.186 415.493 555.934 415.79C557.681 416.087 559.693 413.603 561.261 412.775C563.243 411.882 565.201 411.713 567.456 411.64C568.86 411.559 570.174 410.917 570.984 409.778C572.372 407.827 572.931 406.008 573.699 403.723C577.7 392.417 574.606 395.219 581.848 384.691C582.658 383.553 583.468 382.414 584.438 381.395C605.558 358.414 626.086 352.103 636.64 317.986C637.594 315.095 637.537 312.078 640.534 310.445C641.849 309.803 642.543 308.826 644.017 308.302C646.022 307.549 650.023 296.244 650.582 294.425C651.838 290.765 652.796 287.008 655.569 283.971C658.458 280.77 662.4 278.842 664.99 275.545C667.117 272.898 661.408 267.326 660.126 265.513C649.344 250.376 601.556 223.575 596.773 253.021C596.301 256.268 596.721 266.866 596.216 272.568L598.019 276.747ZM416.641 286.453C414.89 287.021 413.117 287.449 411.228 288.04C411.902 292.256 412.577 296.471 413.251 300.687C413.926 304.903 414.6 309.119 415.275 313.335C415.949 317.551 416.624 321.767 417.298 325.982C417.973 330.199 418.647 334.415 419.322 338.63C416.327 339.398 413.31 340.025 410.293 340.651C409.393 335.03 408.494 329.409 407.595 323.788C406.695 318.167 405.796 312.545 404.897 306.924C404.042 301.584 403.165 296.103 402.311 290.763C401.457 285.423 400.58 279.942 399.725 274.602C403.642 273.399 407.421 272.218 411.338 271.015C415.254 269.812 419.033 268.631 422.972 267.568C423.849 273.049 424.725 278.53 425.625 284.151C426.502 289.631 427.378 295.112 428.278 300.734C429.2 306.495 430.121 312.257 431.043 318.019C431.965 323.78 432.887 329.542 433.809 335.304C430.814 336.071 427.798 336.698 424.919 337.303C424.244 333.087 423.57 328.871 422.873 324.515C422.198 320.298 421.524 316.082 420.827 311.726C420.152 307.51 419.455 303.154 418.781 298.938C418.013 295.025 417.316 290.668 416.641 286.453ZM377.652 281.881C383.182 280.132 388.573 278.404 394.103 276.655C395.282 281.367 396.461 286.078 397.639 290.79C398.818 295.502 399.997 300.214 401.038 304.947C402.262 309.94 403.463 314.792 404.687 319.785C405.911 324.778 407.112 329.63 408.337 334.623C408.674 336.731 409.011 338.839 409.371 341.088C406.1 341.899 402.668 342.592 399.397 343.404C398.402 338.951 397.29 334.661 396.156 330.23C394.797 330.592 393.438 330.953 392.079 331.314C392.522 335.856 392.965 340.397 393.248 344.82C389.977 345.632 386.684 346.302 383.551 347.092C383.281 345.406 383.011 343.719 382.742 342.033C382.346 336.908 381.952 331.782 381.441 326.819C381.046 321.694 380.651 316.568 380.118 311.465C379.768 306.621 379.258 301.658 378.907 296.813C378.535 291.829 378.162 286.844 377.652 281.881ZM392.857 314.039C392.202 310.829 391.409 307.641 390.731 304.29C390.076 301.08 389.282 297.892 388.604 294.541C388.328 294.586 388.052 294.63 387.798 294.815C388.177 298.069 388.556 301.323 388.935 304.578C389.314 307.832 389.693 311.086 390.072 314.341C390.094 314.481 390.117 314.621 390.139 314.762C391.083 314.467 392.051 314.312 392.857 314.039ZM362.008 286.834C362.547 290.207 363.064 293.439 363.604 296.812C364.211 300.606 364.979 304.519 365.586 308.313C365.033 308.402 364.641 308.609 364.088 308.697C363.067 304.969 362.045 301.241 360.886 297.535C359.954 294.369 359.023 291.203 358.207 287.875C355.234 288.782 352.263 289.69 349.268 290.458C349.515 292.004 349.762 293.549 350.01 295.096C351.33 298.92 352.49 302.626 353.81 306.45C355.13 310.274 356.312 314.12 357.611 317.804C357.662 322.553 357.828 327.138 357.88 331.886C357.908 336.493 358.098 341.219 358.126 345.827C358.486 348.075 358.846 350.324 359.183 352.432C362.2 351.805 365.195 351.038 368.073 350.433C367.836 346.291 367.714 341.987 367.476 337.845C367.239 333.703 366.979 329.421 366.88 325.257C367.433 325.169 367.963 324.94 368.377 324.874C369.029 328.949 369.819 333.003 370.494 337.218C371.146 341.294 371.798 345.369 372.45 349.444C375.444 348.677 378.599 348.028 381.594 347.261C380.717 341.78 379.84 336.299 378.848 330.982C377.971 325.501 376.956 320.042 376.101 314.702C375.269 309.502 374.322 304.465 373.49 299.266C372.658 294.066 371.688 288.889 370.879 283.83C368.09 284.996 365.118 285.904 362.008 286.834ZM428.368 362.406C429.065 366.762 429.74 370.978 430.574 375.312C431.271 379.669 431.946 383.885 432.643 388.241C433.34 392.597 434.014 396.813 434.85 401.148C435.547 405.504 436.221 409.72 436.918 414.076C439.958 413.59 442.859 413.126 445.898 412.64C444.977 406.878 444.032 400.976 442.973 395.236C442.051 389.474 441.106 383.572 440.046 377.832C439.147 372.211 438.132 366.753 437.233 361.131C436.333 355.51 435.457 350.03 434.419 344.43C426.749 346.09 419.102 347.89 411.317 349.712C412.194 355.192 413.049 360.532 414.063 365.991C414.94 371.472 415.795 376.812 416.81 382.27C417.709 387.892 418.631 393.653 419.668 399.253C420.568 404.874 421.489 410.636 422.527 416.235C425.566 415.749 428.49 415.425 431.53 414.938C430.856 410.722 430.159 406.366 429.484 402.15C428.81 397.934 428.113 393.578 427.438 389.362C426.764 385.146 426.067 380.789 425.392 376.574C424.718 372.358 424.021 368.001 423.208 363.808C424.798 363.121 426.594 362.833 428.368 362.406ZM389.574 354.631C389.947 359.616 390.458 364.579 390.808 369.423C391.18 374.408 391.668 379.231 392.041 384.215C392.436 389.341 392.831 394.466 393.364 399.57C393.758 404.695 394.154 409.821 394.548 414.946C394.818 416.633 395.11 418.459 395.38 420.146C398.696 419.615 401.874 419.107 405.212 418.717C404.769 414.175 404.326 409.634 404.021 405.071C405.403 404.85 406.784 404.629 408.165 404.408C409.3 408.838 410.295 413.291 411.452 417.862C414.768 417.332 418.083 416.802 421.422 416.412C421.085 414.303 420.725 412.055 420.388 409.947C419.164 404.955 417.917 399.821 416.693 394.829C415.469 389.836 414.223 384.702 412.999 379.71C411.798 374.857 410.619 370.145 409.556 365.271C408.377 360.559 407.175 355.707 405.997 350.995C400.493 352.02 395.034 353.326 389.574 354.631ZM404.822 387.936C403.993 388.068 403.026 388.223 402.219 388.496C402.197 388.356 402.174 388.215 402.152 388.075C401.773 384.821 401.394 381.566 401.015 378.312C400.636 375.057 400.257 371.803 399.878 368.549C400.154 368.505 400.431 368.46 400.707 368.416C401.362 371.626 402.178 374.955 402.856 378.306C403.489 381.375 404.144 384.585 404.822 387.936ZM374.004 358.276C374.544 361.649 375.083 365.021 375.601 368.253C376.23 372.188 376.837 375.983 377.467 379.917C376.914 380.006 376.5 380.072 375.947 380.16C374.925 376.432 373.881 372.564 372.86 368.836C371.906 365.53 371.112 362.342 370.158 359.035C367.302 359.78 364.285 360.407 361.429 361.153C361.676 362.698 361.923 364.244 362.171 365.79C363.353 369.636 364.673 373.461 365.855 377.307C367.037 381.154 368.358 384.978 369.562 388.965C369.613 393.713 369.642 398.32 369.693 403.069C369.722 407.676 369.773 412.424 369.802 417.032C370.161 419.28 370.521 421.528 370.881 423.777C373.921 423.291 376.822 422.827 379.884 422.481C379.647 418.339 379.525 414.035 379.287 409.893C379.049 405.751 378.927 401.447 378.69 397.305C379.243 397.217 379.657 397.151 380.21 397.062C380.862 401.137 381.536 405.353 382.188 409.429C382.84 413.504 383.515 417.72 384.167 421.796C387.207 421.309 390.246 420.823 393.446 420.455C392.569 414.975 391.692 409.494 390.815 404.013C389.939 398.532 389.062 393.052 388.185 387.571C387.353 382.371 386.521 377.172 385.689 371.972C384.857 366.772 384.026 361.573 383.055 356.396C380.154 356.86 377.022 357.649 374.004 358.276ZM350.418 364.067C350.89 367.018 351.339 369.829 351.812 372.78C352.329 376.012 352.846 379.244 353.363 382.477C350.069 383.147 351.175 382.971 347.926 383.923C345.484 384.602 344.254 387.537 344.88 392.337C345.484 396.997 346.386 401.753 347.128 406.39C347.87 411.028 348.635 415.806 349.377 420.443C349.939 423.957 351.516 426.731 354.025 426.474C361.184 426.049 362.337 425.288 369.384 424.161C366.056 403.362 362.613 382.726 359.285 361.928C355.854 362.621 353.827 363.234 350.418 364.067ZM355.398 410.256C354.769 406.321 354.139 402.386 353.51 398.452C354.891 398.231 354.04 398.222 355.421 398.001C356.051 401.936 356.681 405.871 357.31 409.806C356.089 410.145 356.78 410.035 355.398 410.256ZM339.75 428.469C338.941 423.41 338.154 418.492 337.345 413.433C336.535 408.374 335.748 403.455 334.939 398.396C334.152 393.477 333.365 388.559 332.6 383.781C331.814 378.862 331.027 373.944 330.24 369.025C333.257 368.398 336.251 367.631 339.268 367.004C340.055 371.923 340.842 376.841 341.651 381.9C342.438 386.819 343.225 391.737 344.035 396.797C344.844 401.856 345.654 406.915 346.463 411.974C347.272 417.033 348.082 422.092 348.891 427.151C345.852 427.637 342.789 427.983 339.75 428.469ZM321.013 405.236C324.168 404.587 327.253 404.382 330.363 403.452C332.528 402.817 333.252 400.251 332.735 397.019C331.97 392.241 331.229 387.604 330.464 382.825C329.745 378.328 329.048 373.972 328.328 369.475C325.311 370.102 322.316 370.869 319.299 371.496C319.749 374.306 320.198 377.117 320.671 380.069C321.165 383.16 321.682 386.392 322.177 389.484C321.072 389.661 319.851 390 318.745 390.177C318.251 387.086 317.756 383.994 317.239 380.762C316.789 377.951 316.34 375.14 315.89 372.33C312.873 372.957 309.856 373.583 306.861 374.35C307.716 379.691 308.548 384.89 309.402 390.23C309.852 393.041 310.301 395.852 310.729 398.522C311.178 401.333 311.628 404.143 312.055 406.813C312.73 411.029 313.404 415.245 314.079 419.461C314.753 423.677 315.428 427.893 316.102 432.109C319.142 431.622 322.181 431.136 325.243 430.79C324.569 426.575 323.872 422.218 323.197 418.002C322.362 413.668 321.688 409.452 321.013 405.236ZM413.325 164.763L424.011 181.07C425.743 173.298 430.027 166.415 436.466 161.493C443.252 156.084 451.914 153.545 460.518 154.186C469.399 154.783 477.669 158.648 483.767 164.879C489.039 170.377 497.551 171.322 503.803 167.007C507.634 164.376 511.897 162.685 516.434 161.815C528.406 148.081 541.057 137.698 553.401 135.146C553.953 135.058 554.622 134.807 555.406 134.393C549.622 130.129 547.416 123.421 549.633 115.138C550.684 111.079 550.929 107.293 550.829 103.129C550.553 96.9757 550.714 90.8967 550.692 84.5585C548.716 83.7215 547.363 82.3527 546.541 80.7545C532.51 78.9639 518.996 80.4054 504.627 82.7042C427.534 95.0384 368.27 151.506 347.659 222.831L373.646 215.214L393.791 225.107L372.281 192.516L380.841 186.679L375.03 177.808L398.793 161.611L404.605 170.482L413.325 164.763ZM518.538 171.423C520.999 171.75 528.334 173.315 529.645 173.537C542.182 174.847 551.11 187.254 549.654 201.179C548.198 215.105 537.068 225.245 524.531 223.936C523.22 223.713 515.74 223.9 513.279 223.574C500.305 222.19 491.033 209.405 492.537 194.896C493.926 180.549 505.564 170.04 518.538 171.423ZM518.15 213.282C512.659 210.846 509.186 204.195 509.858 196.881C510.53 189.567 515.292 183.905 521.188 182.673C526.056 185.642 529.184 191.915 528.468 198.948C527.866 205.818 523.519 211.414 518.15 213.282ZM512.993 213.819C505.356 213.023 499.956 204.951 500.772 195.884C501.727 186.796 508.587 180.077 516.224 180.873C516.362 180.851 516.5 180.829 516.523 180.97C511.311 183.821 507.423 189.632 506.684 196.524C505.945 203.416 508.682 209.896 513.292 213.915C513.292 213.915 513.131 213.796 512.993 213.819ZM456.374 203.564C451.32 201.202 448.076 195.091 448.699 188.362C449.323 181.632 453.854 176.295 459.197 175.152C463.743 177.883 466.529 183.779 465.86 190.228C465.329 196.654 461.329 201.762 456.374 203.564ZM451.494 204.057C451.632 204.034 451.77 204.012 451.793 204.153C447.526 200.512 445.017 194.571 445.686 188.123C446.354 181.675 449.895 176.352 454.853 173.685C454.715 173.707 454.577 173.729 454.554 173.589C447.492 172.845 441.117 179.053 440.188 187.417C439.42 195.9 444.432 203.313 451.494 204.057ZM323.86 229.954C337.91 165.443 380.049 109.986 438.453 80.0317C438.43 79.8912 438.43 79.8912 438.269 79.7728C457.799 69.8743 479.181 62.7058 501.839 59.0807C504.465 58.6607 507.228 58.2188 509.875 57.9394C513.352 57.5273 516.69 57.1372 520.051 56.8878C520.051 56.8878 520.051 56.8879 520.073 57.0284C528.199 56.449 536.392 56.2911 544.376 56.5991C542.355 55.4812 540.704 54.0159 538.821 52.8759C536.778 51.6174 535.634 49.7825 537.254 47.5056C538.896 45.3692 542.356 43.0861 544.776 42.2667C547.333 41.4251 554.45 39.8541 554.45 39.8541C555.726 37.1999 565.462 18.3468 566.568 18.17C578.848 14.3316 610.936 5.88281 634.958 43.5484C636.651 46.16 638.736 48.5649 637.688 51.7592C636.827 54.347 635.436 57.1639 635.172 59.9445C635.147 60.6692 635.419 61.4903 635.256 62.2375C635.23 62.9621 634.883 63.4497 634.696 64.0561C634.208 65.4314 634.687 66.652 634.475 67.9832C634.427 68.5674 633.893 69.6619 633.498 70.7338C637.327 74.3005 636.325 77.7764 636.019 79.4104C635.949 79.8543 635.74 80.3196 635.669 80.7635C698.877 113.601 745.908 176.41 755.19 253.908C769.089 370.012 691.13 477.898 578.034 499.018C515.995 510.674 455.141 494.323 408.006 459.202C404.15 456.36 389.814 443.808 386.052 440.663L301.251 452.645L278.796 310.524C278.594 309.26 278.53 307.973 278.764 306.782L210.879 263.307L323.86 229.954ZM283.973 304.796L311.236 294.525L431.834 254.764L457.41 423.481L306.276 444.202L283.973 304.796ZM628.292 84.2495C628.292 84.2495 628.758 82.7339 628.922 81.9871C628.922 81.9871 630.638 78.5417 630.23 76.8778C628.957 72.4693 625.757 72.8366 624.254 74.9509C625.221 74.7962 626.67 74.997 627.679 75.9888C629.214 77.6168 627.338 80.9433 626.174 84.3004C624.754 82.5098 623.778 79.0626 623.039 79.7575C622.21 79.8901 621.259 81.9159 621.67 82.7147C622.772 83.4036 623.668 83.6922 624.009 84.9349C624.327 86.0372 622.781 87.005 622.155 88.4024C622.222 88.8242 623.164 89.3942 623.787 88.8618C624.388 88.1897 624.989 87.517 625.451 86.8664C626.792 85.4988 627.643 85.5065 628.292 84.2495ZM585.47 70.7788C589.37 73.9022 588.059 73.6793 592.693 71.6409C594.325 72.1009 595.658 72.4636 597.91 73.2565C591.337 64.94 581.329 64.3792 576.609 71.1878C578.211 73.2371 578.167 72.9563 580.001 74.6805C582.684 77.2782 587.012 76.8739 590.469 75.4562C585.505 73.656 581.521 74.4373 582.427 72.1307C583.372 71.835 584.41 71.237 585.47 70.7788ZM501.12 476.157L498.132 426.479L417.934 438.012C440.634 454.126 473.456 470.638 501.12 476.157ZM686.227 410.942C670.8 382.711 657.862 365.612 659.856 331.135C660.795 313.978 722.586 215.742 678.599 181.703C677.635 180.992 647.332 143.034 647.172 142.916C646.577 141.858 647.355 136.977 646.76 135.919C644.293 131.125 631.523 118.612 631.005 115.38C630.649 112.266 629.534 108.841 629.592 105.661C629.64 105.077 629.688 104.493 629.897 104.027C631.137 104.693 632.24 105.382 633.48 106.048C633.457 105.907 633.457 105.907 633.435 105.767C683.861 134.884 721.364 185.959 731.369 248.495C741.22 309.181 722.842 367.899 686.227 410.942ZM630.384 72.5289C630.863 73.7495 631.573 74.6451 632.145 75.5623C632.504 77.811 631.692 79.8148 631.412 80.7241C629.555 85.0568 627.697 89.3894 625.679 93.6037C624.404 96.2581 623.045 96.6196 620.079 95.7969C620.58 90.9606 618.984 87.1806 619.463 82.2033C617.439 81.9506 614.322 84.6115 613.949 85.8238C612.853 89.6026 614.254 90.387 612.699 93.9508C606.87 107.999 590.124 93.6715 580.498 89.3018C575.143 87.7089 571.936 89.8071 567.826 93.3476C566.201 91.1573 565.468 90.1214 562.958 90.3789C560.61 90.7546 557.22 92.5941 554.916 93.2507C554.971 90.9362 555.119 88.3182 555.129 85.7224C556.809 85.5975 558.329 85.3544 559.733 85.2737C560.963 88.5363 563.306 89.8907 567.357 89.5311C566.602 88.3547 566.146 87.2745 565.343 86.6825C563.897 85.6166 563.329 83.8338 564.048 82.1336C564.35 81.3641 564.906 80.4106 565.369 79.76C567.335 76.9951 568.843 74.0155 569.591 70.725C569.778 70.1187 570.102 69.4903 570.427 68.8619C570.565 68.8397 570.864 68.9362 571.002 68.9141C571.092 69.4762 571.204 70.1789 571.432 70.7189C572.547 74.1435 573.385 77.6128 574.776 80.9932C575.711 83.2939 577.523 84.8777 579.959 85.9293C583.888 87.4629 587.799 87.9899 591.988 87.6082C596.338 87.3442 599.201 84.8684 600.528 80.7646C601.181 78.6424 601.673 76.402 602.187 74.3021C602.328 73.4148 602.63 72.6453 603.026 71.5735C604.176 71.6775 605.188 71.8041 606.222 72.0707C607.257 72.3377 608.314 72.745 609.349 73.0121C609.092 74.0618 608.995 75.2304 609.22 76.6356C609.535 78.6029 610.151 79.8016 611.112 81.3776C611.523 82.1764 611.751 82.7165 611.98 83.2565C612.503 84.7579 613.361 83.0355 614.814 82.3706L619.032 80.3985C619.032 80.3985 619.187 76.0501 621.015 73.3073C623.537 69.5889 622.571 69.7436 626.715 69.0805C628.303 69.2591 629.861 71.0275 630.384 72.5289ZM608.244 60.7938C606.911 60.4305 604.767 61.2058 603.386 61.4268C602.143 61.6257 600.899 61.8247 599.794 62.0015C600.231 62.0757 600.645 62.0095 600.944 62.1058C601.818 62.2542 608.208 64.1143 612.369 65.3222C612.832 64.6717 613.295 64.0212 613.735 63.2301C614.451 62.3949 609.738 61.2753 608.244 60.7938ZM594.071 66.0879C589.291 64.5467 584.548 65.0173 579.712 65.7909C578.331 66.012 576.834 66.3956 574.922 66.8455C575.169 68.3913 575.095 69.7003 575.435 70.9431C576.345 73.9684 577.646 76.7872 578.533 79.6716C579.079 81.314 579.927 82.1869 581.443 82.8094C585.074 84.2463 588.778 84.3741 592.393 83.9398C594.765 83.7044 596.175 81.8936 596.828 79.7715C597.457 77.509 598.042 74.965 598.235 72.6279C598.753 69.6627 596.899 66.9327 594.071 66.0879ZM562.858 49.895C561.73 49.9313 560.92 51.0697 560.342 51.8829C560.111 52.2081 556.078 59.7716 555.522 60.7252C560.354 60.8169 566.176 60.8943 570.495 63.0859C571.712 63.6117 573.165 62.947 574.408 62.7481C579.52 61.9302 584.677 61.3935 589.763 61.3003C581.859 57.9528 573.699 49.4577 562.858 49.895ZM553.639 71.9802C555.759 71.0645 556.229 68.6832 558.118 68.0927C559.869 67.5244 563.178 68.7245 564.952 68.2966C559.349 65.1575 559.072 65.2017 554.484 67.5212L553.639 71.9802ZM554.085 81.8539C554.821 82.0241 555.534 82.0541 556.27 82.2249C558.432 82.4556 560.299 81.7243 561.458 79.2324C562.317 77.5099 563.474 75.8837 564.469 74.1387L565.331 71.5508C563.303 72.1635 564.062 72.4745 561.967 72.6655L559.12 70.815L558.333 72.094L562.054 74.0932C560.627 74.0329 556.508 73.9714 554.943 73.9335C553.555 75.8849 555.181 78.075 554.368 80.0788C554.229 80.1009 554.088 80.9883 554.085 81.8539ZM547.55 69.3511C547.608 66.171 548.81 64.8256 551.894 64.6205C550.783 66.5278 550.959 68.5175 550.747 69.8486C550.442 71.4828 550.146 76.7188 550.637 80.6757C549.214 79.7503 548.53 78.1305 547.897 75.0607C547.604 73.2338 547.566 71.2222 547.55 69.3511ZM622.331 108.985C623.233 113.74 622.982 119.258 625.498 123.467C631.878 134.121 589.63 157.887 585.533 157.966C583.499 154.112 579.869 146.477 577.524 139.79C591.426 139.007 604.619 131.131 612.148 117.964C614.812 113.358 616.374 108.064 618.417 103.125C618.835 102.194 618.954 101.165 619.234 100.256C620.085 100.264 620.821 100.434 621.512 100.324C621.11 103.127 621.922 107.32 622.331 108.985Z" fill="#1E1E1E"/>
</g>
</g>
<defs>
<clipPath id="clip0_201_47">
<rect width="694" height="212" fill="white" transform="translate(0 35)"/>
</clipPath>
</defs>
</svg>
