<svg width="26" height="25" viewBox="0 0 26 25" fill="none" xmlns="http://www.w3.org/2000/svg">
<g clip-path="url(#clip0_75_246)">
<path fill-rule="evenodd" clip-rule="evenodd" d="M13 0C5.82055 0 0 5.59668 0 12.5C0 19.4033 5.82055 25 13 25C20.1795 25 26 19.4033 26 12.5C26 5.59668 20.1795 0 13 0ZM19.0257 8.50098C18.8302 10.4775 17.9837 15.2739 17.553 17.4878C17.3707 18.4248 17.0117 18.7388 16.6644 18.7695C15.9098 18.8364 15.3364 18.2896 14.6052 17.8286C13.4611 17.1074 12.8146 16.6587 11.7041 15.9551C10.4203 15.1416 11.2526 14.6948 11.9839 13.9644C12.1753 13.7729 15.5015 10.8638 15.566 10.6001C15.5741 10.5669 15.5817 10.4438 15.5055 10.3789C15.4294 10.314 15.3171 10.3364 15.2364 10.354C15.1216 10.3789 13.2935 11.5405 9.75305 13.8389C9.23406 14.1816 8.76434 14.3481 8.34285 14.3398C7.87871 14.3301 6.98598 14.0874 6.32227 13.8799C5.50824 13.6255 4.86129 13.4907 4.91766 13.0586C4.9466 12.8335 5.26906 12.6035 5.88453 12.3682C9.67434 10.7803 12.2012 9.73389 13.4657 9.22803C17.0762 7.78423 17.8263 7.5332 18.3152 7.5249C18.9277 7.5145 19.0756 8.00064 19.0257 8.50098Z" fill="#1E1E1E"/>
</g>
<defs>
<clipPath id="clip0_75_246">
<rect width="26" height="25" fill="white"/>
</clipPath>
</defs>
</svg>
