<svg width="26" height="25" viewBox="0 0 26 25" fill="none" xmlns="http://www.w3.org/2000/svg">
<path d="M13 0.308594C16.4027 0.308622 19.5871 1.58147 21.9824 3.88281C24.377 6.1836 25.6913 9.24366 25.6914 12.4961C25.6914 19.2014 20.0034 24.6787 13 24.6787H12.9932C10.8665 24.6786 8.77807 24.1629 6.92383 23.1934C6.87335 23.167 6.81688 23.1555 6.76074 23.1592L6.70508 23.168L0.69043 24.6836C0.510586 24.7289 0.391325 24.5712 0.426758 24.4463L2.03418 18.8174C2.0576 18.7353 2.04585 18.6464 2.00195 18.5732C0.891576 16.7225 0.307801 14.6247 0.308594 12.4902C0.308641 5.78481 5.99673 0.308594 13 0.308594ZM8.23438 6.2002C7.94122 6.2002 7.49292 6.30429 7.11426 6.69824C7.09706 6.71614 7.07708 6.73595 7.05469 6.75879C6.68984 7.131 5.85256 7.98724 5.85254 9.61133C5.85254 10.4666 6.17154 11.2904 6.5 11.917C6.83043 12.5473 7.18526 13.0057 7.28516 13.1348L7.29199 13.1436V13.1445C7.29859 13.1531 7.31641 13.177 7.35254 13.2285C7.77379 13.8295 9.91095 16.888 13.1748 18.127C14.4689 18.6187 15.3135 18.8499 15.915 18.9473C16.5273 19.0464 16.8814 19.0054 17.1787 18.9707C17.2389 18.9637 17.2931 18.9571 17.3467 18.9521L17.3477 18.9531C17.7266 18.919 18.2726 18.6958 18.7461 18.4014C19.214 18.1104 19.7023 17.6933 19.8818 17.2148L19.8828 17.2129C20.031 16.8088 20.1062 16.4316 20.1328 16.1318C20.1461 15.9823 20.1479 15.8472 20.1387 15.7344C20.1308 15.6382 20.1121 15.5075 20.0498 15.4062C19.9768 15.2876 19.8688 15.2108 19.7764 15.1562C19.683 15.1012 19.569 15.0489 19.457 14.9971C19.3994 14.9704 19.3394 14.9419 19.2754 14.9111C19.1062 14.8298 18.6074 14.5933 18.1123 14.3633C17.6263 14.1374 17.119 13.9067 16.9473 13.8447C16.7985 13.7911 16.5993 13.7229 16.3955 13.7461C16.1609 13.7729 15.9784 13.9082 15.834 14.1191C15.6208 14.4232 14.9914 15.1319 14.791 15.3564C14.7268 15.4284 14.6927 15.4355 14.6748 15.4375C14.6434 15.441 14.5723 15.4351 14.4248 15.3643C14.3612 15.3337 14.2778 15.2995 14.1895 15.2627C13.7267 15.07 12.8263 14.6947 11.7871 13.8018L11.7861 13.8008C10.8228 12.9767 10.1653 11.9492 9.97754 11.6367C9.94588 11.584 9.93822 11.5529 9.93652 11.54C9.93522 11.5299 9.93586 11.5243 9.93848 11.5176C9.94236 11.5076 9.95266 11.4894 9.97656 11.4609C10.0013 11.4315 10.0323 11.4016 10.0752 11.3604C10.1829 11.2568 10.3044 11.1149 10.4121 10.9893C10.4759 10.9149 10.536 10.8433 10.5938 10.7793C10.7719 10.5818 10.8499 10.4236 10.9395 10.2441C10.9512 10.2205 10.964 10.1966 10.9766 10.1719C11.1491 9.83016 11.0554 9.53199 10.9482 9.32617C10.9185 9.26874 10.7795 8.94249 10.5967 8.5127C10.4826 8.24457 10.3551 7.94355 10.2344 7.66406L9.91504 6.94336L9.80371 6.73438C9.68751 6.54429 9.55589 6.4106 9.40332 6.3252C9.20288 6.21304 9.00644 6.21007 8.88867 6.20703H8.88965C8.69015 6.20067 8.45897 6.2002 8.23438 6.2002Z" fill="#1E1E1E" stroke="#1E1E1E" stroke-width="0.616814" stroke-linejoin="round"/>
</svg>
